<?xml version="1.0" encoding="UTF-8"?>
<svg width="453px" height="300px" viewBox="0 0 453 300" version="1.1" xmlns="http://www.w3.org/2000/svg" xmlns:xlink="http://www.w3.org/1999/xlink">
    <!-- Generator: Sketch 61.2 (89653) - https://sketch.com -->
    <title>img-problem-1</title>
    <desc>Created with Sketch.</desc>
    <g id="img-problem-1" stroke="none" stroke-width="1" fill="none" fill-rule="evenodd">
        <g id="undraw_Hamburger_8ge6" transform="translate(20.000000, 24.000000)">
            <path d="M364.55752,81 C364.55752,81 370.0531,94.6153847 364.55752,107.76923 C359.061941,120.923076 356.672564,123 356.672564,123 L355,105.69231 L356.923223,104.00718 C356.923223,104.00718 358.087826,98.7562829 357.14126,95.6473716 C356.194694,92.5384603 357.628322,82.8461529 357.628322,82.8461529 L364.55752,81 Z" id="Path" fill="#FFB9B9" fill-rule="nonzero"></path>
            <path d="M359.9357,68 L363.408375,68.4657542 C363.408375,68.4657542 363.176865,73.1232887 364.102913,74.5205475 C365.028961,75.9178063 366.64954,83.136987 365.723492,83.369866 C364.797444,83.6027451 356.463024,85 356.463024,85 L356,74.2876723 L359.9357,68 Z" id="Path" fill="#EA565C" fill-rule="nonzero"></path>
            <path d="M283.837364,219.106456 C322.472502,218.647517 361.106326,218.910684 399.738837,219.895959 C403.062224,219.980764 406.510844,220.089683 409.44571,220.976012 C412.380576,221.862342 414.639187,223.76371 413.83621,225.590357 C398.755346,226.039625 383.658912,226.178443 368.54691,226.006811 C365.255893,227.630166 361.64279,230.075222 363.665364,232.264509 C365.06491,233.779416 368.519591,234.230414 371.540746,234.233963 C377.012613,234.240394 382.506489,233.335912 387.897389,233.866579 C393.288288,234.397246 398.667453,237.252606 397.088257,240.216881 C395.889027,242.467923 391.339366,243.582239 387.19898,243.781219 C383.058593,243.980198 378.819115,243.566434 374.772039,244.099494 C370.926082,244.606055 367.593998,245.922333 363.994601,246.84118 C358.316786,248.290598 352.022804,248.738441 345.830351,249.119415 C298.280882,252.044768 250.337103,252.021556 202.507393,251.995062 C183.143932,251.984331 163.517462,251.9548 144.819037,249.108125 C134.160554,247.485459 123.946917,244.965625 113.15396,243.658124 C100.261912,242.096336 86.9377698,242.308327 73.7537905,242.355136 C50.6088795,242.43731 27.4834861,241.988148 4.3776104,241.007651 C2.65815974,240.934644 0.547578553,240.687376 0.0835465378,239.747761 C-0.457993777,238.651189 1.73979907,237.795527 3.59754563,237.35793 C14.1243077,234.904149 24.8279894,233.296324 35.6076009,232.549627 C41.0668682,232.163042 46.6925045,231.966251 51.7136052,230.693626 C56.7347058,229.421001 61.1213228,226.75214 61.0741834,223.639275 C61.0598044,222.689691 60.6619206,221.673855 61.4488764,220.835097 C62.4938514,219.721328 65.0649215,219.465806 67.2832039,219.34438 C91.8741994,217.998282 116.599213,217.436362 141.301805,217.662163 C149.991213,217.741593 158.716432,217.917442 167.344306,217.328021 C174.413735,216.845068 181.338042,215.853503 188.305184,215.021045 C197.657134,213.903639 238.356586,208.11505 244.293698,212.811949 C248.738115,216.327964 239.562245,217.086606 251.482452,218.521359 C261.861505,219.770614 273.310484,219.231504 283.837364,219.106456 Z" id="Path" fill="#F2F2F2" fill-rule="nonzero"></path>
            <path d="M133.062289,203.476568 C133.062289,203.476568 118.71072,231.989099 130.924822,231.989099 C143.138923,231.989099 297.036612,232.602272 301.311546,224.631027 C304.306622,219.04627 302.655272,199.164912 301.398022,187.761048 C300.891087,183.158974 296.890047,179.757245 292.285617,180.013579 C259.001785,181.858093 134.659031,188.693812 135.199756,187.840681 C136.268489,186.154456 135.505111,186.614335 135.505111,186.614335 C135.505111,186.614335 130.619467,202.250226 133.062289,203.476568 Z" id="Path" fill="#E7C798" fill-rule="nonzero"></path>
            <path d="M301.405356,187.717759 C300.900735,183.141343 296.918021,179.758588 292.33469,180.013505 C259.203387,181.847755 135.430345,188.645346 135.968573,187.796952 C137.03241,186.120128 136.272525,186.577443 136.272525,186.577443 C136.272525,186.577443 135.187018,190.048624 134.298088,193.839268 C134.424093,193.826762 134.518264,193.945741 134.107894,194.67004 C134.071384,194.833495 134.035419,194.996987 134,195.160517 C138.95735,195.651813 257.838788,189.122522 290.207016,187.330549 C294.790347,187.075632 298.773061,190.458387 299.277682,195.034803 C300.208181,203.466191 301.354893,216.556144 300.656973,225 C300.926117,224.853342 301.153939,224.64083 301.319272,224.382206 C304.300632,218.828588 302.656864,199.058059 301.405356,187.717759 Z" id="Path" fill="#000000" fill-rule="nonzero" opacity="0.1"></path>
            <path d="M150.359689,161.356546 C148.775078,160.869453 146.769557,160.240433 146.950307,159.214703 C147.046338,158.669717 147.773398,158.244548 148.300199,157.787616 C149.315672,156.906844 149.589491,155.666239 148.498732,154.815575 C147.407973,153.964911 144.780715,153.851164 143.818394,154.751342 C143.323354,155.214408 143.353181,155.795157 143.097606,156.318172 C142.300261,157.949832 139.074172,158.666259 136.333601,159.300168 C133.59303,159.934078 130.526768,161.113471 130.784411,162.801507 C131.065461,164.642927 135.293238,166.276483 133.592152,167.846614 C132.975294,168.415983 131.677688,168.733681 131.401571,169.385009 C131.207295,169.843273 131.597534,170.309306 131.976351,170.727916 L134.668588,173.702956 C135.73974,174.886622 136.843426,176.174589 136.484674,177.492163 C135.773583,180.103759 129.99374,181.102869 125.412547,180.809426 C123.734906,180.701965 121.763101,180.554862 120.610272,181.261946 C119.721829,181.806867 119.723341,182.655631 120.018645,183.382125 C120.778692,185.251941 123.210131,186.871264 126.3219,187.580052 C122.834223,188.270222 121.464503,191.179259 123.872483,192.782163 C122.494502,193.257666 121.00474,193.300498 119.601866,192.904947 C118.410903,194.004668 119.111052,195.513862 120.621538,196.475907 C122.132024,197.437952 124.271896,197.979216 126.3439,198.493137 L124.404809,200.311742 C125.808082,201.410969 128.838406,201.023494 130.88192,200.328721 C132.925433,199.633947 135.142864,198.701073 137.432435,199.064605 C139.579737,199.405545 141.203906,200.842162 143.390318,200.596165 C145.084727,200.405525 145.891047,199.313336 146.418948,198.370628 L148.663044,194.363169 C151.857443,194.864457 155.216143,192.668986 153.93328,190.91819 C157.507883,191.303234 161.02636,188.974832 159.852896,187.000799 C161.756595,188.473525 163.096955,190.184376 163.752714,191.978563 C164.045716,192.780241 164.224065,193.627887 165.022158,194.307218 C166.079768,195.096368 167.444469,195.344001 168.710692,194.976523 C168.058862,196.24443 167.530888,197.723309 168.870416,198.79909 C170.209943,199.874871 174.075341,199.569775 173.904696,198.251554 C175.947385,199.132016 178.236418,199.959472 180.789298,200.025156 C183.342178,200.090841 186.136034,199.116367 186.368463,197.657123 C189.966138,198.847261 193.729874,199.454905 197.518166,199.457211 C197.840438,198.480665 200.090898,198.164886 201.773468,198.403551 C203.456038,198.642215 205.016797,199.21564 206.750076,199.21662 C208.483355,199.217601 210.347371,198.171273 209.459988,197.317538 C213.109786,198.083379 216.856408,198.27302 220.56453,197.879614 C224.062441,197.507156 227.377445,196.621892 230.919541,196.430977 C234.512655,196.211536 238.110219,196.781446 241.461015,198.100909 C242.622231,198.589266 244.065531,199.203969 245.341248,198.820889 C246.06486,198.603599 246.416603,198.134406 246.908172,197.760337 C249.023907,196.150349 253.350154,196.459078 256.687999,197.092057 C260.025843,197.725036 263.908501,198.487071 266.833078,197.368316 C267.9366,196.946176 268.749708,196.293868 269.923499,195.939495 C274.128493,194.669965 279.161502,197.922894 283.624636,196.986956 C285.078033,196.682159 286.257276,195.952939 287.796855,195.862989 C290.52768,195.703438 292.332306,197.559887 294.987462,197.959205 C297.742448,198.373515 300.728966,196.69211 300.056963,195.105055 C302.704889,195.164 305.345065,194.795929 307.876594,194.014907 L306.625921,191.757057 C309.742408,191.706704 312.035033,189.465828 310.591084,187.881388 C313.716366,187.284379 316.187562,185.677665 316.829933,183.82503 C317.472303,181.972395 316.260882,179.945846 313.771553,178.708741 C312.30237,177.97861 310.372967,177.465164 309.53314,176.459732 C308.928346,175.735674 309.01649,174.893353 308.78127,174.101945 C308.266422,172.36972 306.034912,170.840251 303.15232,170.243882 C301.900356,169.98487 300.530395,169.886446 299.396833,169.486484 C298.263271,169.086522 297.444529,168.220132 298.098734,167.555509 C298.444988,167.203756 299.111879,166.996601 299.543084,166.677211 C301.291557,165.382144 298.29356,163.743017 295.734178,163.015957 L301.846005,162.815449 L303.158378,156.847045 C300.740235,158.819703 294.467593,158.4048 292.896225,156.168254 C294.859551,156.814451 297.492775,155.98816 298.452695,154.812577 C299.412615,153.636994 299.176678,152.269837 298.920458,150.980112 C298.871169,150.328433 298.484449,149.750537 297.901828,149.457917 C297.303615,149.172109 296.350544,149.052797 296.154302,148.620744 C295.95407,148.17989 296.727933,147.790068 296.842743,147.339293 C297.063139,146.473949 295.079989,146.092569 293.740816,145.674082 C290.581141,144.686692 289.051129,141.91195 285.456133,142.002148 C281.889051,142.091646 280.892051,144.823326 280.889608,146.870679 C280.887165,148.918032 279.680038,151.655919 276.110139,151.618578 C274.684602,151.603663 273.441689,151.089559 272.303485,150.597189 L262.079164,146.174279 C260.728239,145.543871 259.322759,145.038473 257.880221,144.664376 C255.817937,144.181651 253.539593,144.124632 251.313852,144.0739 L237.011128,143.747894 C236.282644,143.690509 235.549711,143.753722 234.841688,143.934999 C234.09039,144.186775 233.725297,144.682507 233.272755,145.108706 C231.281233,146.984308 226.598749,147.718908 223.219412,146.685917 C222.323448,146.412036 221.520594,146.03447 220.571165,145.828096 C217.580623,145.17804 214.44251,146.380714 211.335361,146.815211 C206.241782,147.527486 199.912159,146.30152 196.240125,148.447304 C195.015911,149.162685 194.366463,150.140847 193.231981,150.903319 C192.097499,151.66579 190.050378,152.182808 188.619595,151.607083 C188.799319,153.006278 188.962978,154.46636 188.018626,155.760634 C187.074274,157.054908 184.652214,158.111191 182.272587,157.784828 C181.009697,157.449976 181.109256,156.385288 181.706541,155.664719 C182.303826,154.944149 183.219901,154.207922 182.922123,153.428583 C182.626705,152.655436 181.27474,152.20576 180.263863,151.666809 C179.252986,151.127858 178.57872,150.106397 179.652399,149.608987 C178.928886,148.6763 176.328401,148.790025 175.184467,149.572178 C174.040532,150.354331 173.926276,151.455806 173.801553,152.474093 C173.676829,153.49238 173.404972,154.607838 172.079543,155.289309 C169.820776,156.450678 165.484386,155.848141 163.986368,157.3609 C163.510504,157.841453 163.482426,158.421146 163.210161,158.951245 C161.994892,161.317367 156.748485,161.930098 152.460043,162.12318 C152.369671,162.615501 152.34959,163.118214 152.400405,163.616208 C153.867294,162.979373 151.422859,161.68335 150.359689,161.356546 Z" id="Path" fill="#61AB43" fill-rule="nonzero"></path>
            <path d="M299.91415,157.778493 C300.16121,159.048011 300.388655,160.393765 299.463194,161.550933 C299.325825,161.718029 299.170439,161.868676 299,162 C300.244899,161.958288 301.48981,161.9166 302.734733,161.874936 C303.156513,159.916595 303.578269,157.958283 304,156 C303.034163,156.804418 301.430452,157.204298 299.775547,157.241642 C299.834573,157.416859 299.8809,157.596296 299.91415,157.778493 Z" id="Path" fill="#000000" fill-rule="nonzero" opacity="0.1"></path>
            <path d="M300,164.911871 C299.850728,164.214161 298.552646,163.506083 297.099549,163 C295.820377,163.538516 294.365453,163.651689 293,163.318887 C294.060587,164.652754 297.309285,165.237032 300,164.911871 Z" id="Path" fill="#000000" fill-rule="nonzero" opacity="0.1"></path>
            <path d="M302.134539,169 C302.10147,169.156102 302.068436,169.312181 302.035437,169.468237 C300.023627,169.536783 298.011815,169.605356 296,169.673958 C298.527416,170.419914 301.487938,172.101702 299.761299,173.430461 C299.335483,173.758178 298.676932,173.970735 298.335003,174.331634 C297.68899,175.013544 298.497483,175.902503 299.616879,176.312853 C300.736276,176.723203 302.089078,176.824188 303.325415,177.089937 C306.171968,177.701836 308.375587,179.271089 308.884004,181.048402 C309.116287,181.860408 309.029249,182.724643 309.626484,183.467538 C310.455816,184.499138 312.361083,185.02596 313.811905,185.775079 C313.951665,185.84725 314.086132,185.922765 314.217643,186 C315.529196,185.226963 316.472012,184.229983 316.832059,183.151093 C317.4664,181.250233 316.270114,179.170957 313.811905,177.90166 C312.361083,177.152537 310.455816,176.625719 309.626484,175.594119 C309.029249,174.851224 309.116287,173.986989 308.884004,173.174982 C308.375587,171.397666 306.171975,169.828413 303.325415,169.216514 C302.936378,169.132898 302.535715,169.065795 302.134539,169 Z" id="Path" fill="#000000" fill-rule="nonzero" opacity="0.1"></path>
            <path d="M122.713398,197 C123.168202,195.898741 124.330041,194.920711 126,194.546017 C124.404489,194.169199 122.901316,193.398147 121.596888,192.287442 C120.914083,192.310253 120.232264,192.213302 119.57542,192 C118.436793,193.192036 119.106167,194.827918 120.550263,195.870725 C121.231288,196.339281 121.957006,196.718145 122.713398,197 L122.713398,197 Z" id="Path" fill="#000000" fill-rule="nonzero" opacity="0.1"></path>
            <path d="M133.906353,167.659649 C134.779942,167.334384 135.674911,167.069081 136.584967,166.865605 C139.335647,166.234459 142.573681,165.52113 143.373984,163.896537 C143.630519,163.375808 143.600555,162.797549 144.097447,162.336513 C145.06332,161.44021 147.700306,161.553487 148.795081,162.400441 C149.889856,163.247395 149.61506,164.482662 148.595788,165.359609 C148.067074,165.814564 147.337313,166.237894 147.240908,166.780533 C147.059501,167.801814 149.07241,168.428104 150.662882,168.913075 C151.41154,169.152807 152.112439,169.520627 152.734071,170 C152.74734,169.891664 152.760567,169.783602 152.771039,169.676428 C157.075337,169.484171 162.341148,168.874115 163.560909,166.51824 C163.834172,165.99045 163.862347,165.413255 164.339973,164.934791 C165.843522,163.428604 170.19595,164.028507 172.46308,162.872179 C173.793365,162.193658 174.066253,161.083053 174.19143,160.069149 C174.316607,159.055245 174.43127,157.95859 175.579478,157.179827 C176.727617,156.401063 179.337735,156.287828 180.06388,157.216477 C178.986248,157.711722 179.663022,158.728768 180.677634,159.265376 C181.692247,159.801983 183.049181,160.249706 183.345699,161.019514 C183.644604,161.795479 182.725125,162.528507 182.125644,163.245981 C181.526163,163.963454 181.426217,165.02349 182.693747,165.356879 C185.082215,165.681831 187.513199,164.630133 188.461036,163.341454 C189.408874,162.052774 189.244645,160.599047 189.064207,159.205927 C190.500289,159.779142 192.554972,159.264369 193.693638,158.505187 C194.832305,157.746004 195.48415,156.772109 196.712926,156.05984 C200.398516,153.923337 206.751534,155.143997 211.863925,154.434824 C214.982561,154.002191 218.132275,152.804718 221.133865,153.451976 C222.086768,153.65744 222.892604,154.033385 223.791868,154.306071 C227.183732,155.3346 231.883486,154.603173 233.882384,152.735696 C234.336606,152.311363 234.703033,151.817776 235.457091,151.567095 C236.167735,151.386596 236.903383,151.323656 237.634564,151.380797 C242.419768,151.488986 247.204972,151.597183 251.990176,151.705387 C254.2241,151.755899 256.510871,151.812667 258.580796,152.293311 C260.028663,152.665789 261.439336,153.168993 262.795257,153.796658 C266.215963,155.26456 269.63667,156.732478 273.057378,158.20041 C274.199773,158.690639 275.44726,159.20253 276.878088,159.217368 C280.461196,159.254548 281.672756,156.528527 281.675216,154.490036 C281.677676,152.451546 282.678349,149.73172 286.25859,149.642606 C289.86688,149.552814 291.402585,152.315526 294.573914,153.298629 C295.918027,153.715303 297.908537,154.095029 297.687296,154.956631 C297.58463,155.356472 296.958764,155.708261 296.965136,156.090614 C297.858113,155.881427 298.670547,155.41804 299.303225,154.757038 C300.266677,153.58655 300.029895,152.225311 299.772693,150.941187 C299.723227,150.292328 299.335071,149.716932 298.750287,149.42559 C298.149864,149.141017 297.193282,149.022249 296.996296,148.592034 C296.795362,148.153102 297.572078,147.764962 297.687304,147.316152 C297.908545,146.454551 295.918035,146.074828 294.573921,145.658154 C291.402593,144.675052 289.866899,141.912328 286.258598,142.002139 C282.67836,142.091241 281.677684,144.811082 281.675224,146.849562 C281.672764,148.888041 280.461203,151.614062 276.878096,151.57689 C275.447267,151.562051 274.199781,151.05016 273.057386,150.559936 C269.636678,149.092011 266.21597,147.624092 262.795265,146.156179 C261.439341,145.528518 260.028669,145.025312 258.580804,144.652825 C256.510879,144.172189 254.224108,144.115424 251.990183,144.064912 C247.204979,143.956708 242.419775,143.84851 237.634571,143.740318 C236.903391,143.683182 236.167745,143.746119 235.457099,143.926609 C234.703025,144.177297 234.336613,144.670873 233.882391,145.095221 C231.883494,146.96269 227.18374,147.694121 223.791875,146.665596 C222.892581,146.392914 222.08678,146.016962 221.133872,145.811498 C218.132283,145.164243 214.982569,146.361712 211.863933,146.794345 C206.751542,147.503519 200.398524,146.282858 196.712934,148.419365 C195.484158,149.13163 194.832317,150.105556 193.693646,150.864712 C192.554975,151.623868 190.500293,152.13866 189.064215,151.565452 C189.244653,152.958572 189.408916,154.412314 188.461044,155.700975 C187.513172,156.989636 185.082222,158.041356 182.693755,157.716404 C181.426236,157.383015 181.526166,156.32293 182.125651,155.605506 C182.725136,154.888082 183.644612,154.155004 183.345707,153.379039 C183.049189,152.609243 181.69222,152.161516 180.677642,151.624901 C179.663064,151.088285 178.986256,150.071255 180.063888,149.576006 C179.337743,148.647357 176.727624,148.760592 175.579486,149.539356 C174.431278,150.318119 174.31665,151.414816 174.191438,152.428678 C174.066227,153.44254 173.793373,154.553183 172.463088,155.231704 C170.195958,156.38804 165.843549,155.788133 164.33998,157.294317 C163.862354,157.772787 163.83418,158.349979 163.560916,158.877769 C162.341156,161.23364 157.075345,161.843696 152.771047,162.035953 C152.760575,162.143127 152.747348,162.251189 152.734079,162.359529 C152.112448,161.880153 151.411549,161.512332 150.662889,161.2726 C149.072418,160.787648 147.059508,160.16134 147.240915,159.140062 C147.33732,158.597434 148.067082,158.174104 148.595796,157.719138 C149.615072,156.842187 149.889864,155.606966 148.795089,154.75997 C147.700314,153.912974 145.063332,153.799739 144.097454,154.696038 C143.600563,155.157078 143.630526,155.73533 143.373992,156.256066 C142.573689,157.880659 139.335654,158.593984 136.584974,159.225131 C133.834295,159.856277 130.756685,161.030578 131.01525,162.711325 C131.292886,164.515495 135.402178,166.119229 133.906353,167.659649 Z" id="Path" fill="#000000" fill-rule="nonzero" opacity="0.1"></path>
            <path d="M126.591852,187.001134 C125.825279,187.147326 125.092832,187.443782 124.434,187.874519 C124.851634,187.89345 125.267456,187.921708 125.666846,187.948094 C130.32695,188.255771 136.206383,187.208159 136.929746,184.469783 C137.294691,183.088265 136.171976,181.73777 135.082383,180.49662 C134.64439,179.997747 134.206425,179.498873 133.768486,179 C131.488456,179.801035 128.372931,180.080518 125.666846,179.901847 C123.960321,179.789159 121.954482,179.634911 120.7818,180.376319 C119.878059,180.947696 119.879608,181.837643 120.180009,182.599419 C120.953114,184.56002 123.426473,186.25796 126.591852,187.001134 Z" id="Path" fill="#000000" fill-rule="nonzero" opacity="0.1"></path>
            <ellipse id="Oval" fill="#EA565C" fill-rule="nonzero" cx="219.5" cy="145" rx="45.5" ry="30"></ellipse>
            <path d="M204.617862,142.776332 C204.617862,142.776332 184.068755,144.886342 190.11261,136.14487 C196.156464,127.403399 203.711282,124.389096 207.337597,126.800534 C210.963912,129.211973 212.474874,135.843438 211.870489,135.843438 C211.266103,135.843438 202.502514,130.719126 199.480585,134.637717 C196.458655,138.556309 204.617862,142.776332 204.617862,142.776332 Z" id="Path" fill="#FFFFFF" fill-rule="nonzero" opacity="0.2"></path>
            <path d="M221.898516,144 C221.898516,144 239.057461,156.084504 228.647989,158.866557 C218.238517,161.64861 210.451825,158.95241 209.262091,154.647795 C208.072356,150.343179 211.292288,144.159361 211.755978,144.563208 C212.219668,144.967055 215.559326,154.8211 220.465479,153.78286 C225.371631,152.744621 221.898516,144 221.898516,144 Z" id="Path" fill="#FFFFFF" fill-rule="nonzero" opacity="0.2"></path>
            <path d="M226,136.217368 C226,136.217368 227.361215,115.029719 235.1205,122.656076 C242.879785,130.282434 244.628587,138.456451 241.591291,141.71736 C238.553996,144.978269 231.634898,145.370636 231.737275,144.758137 C231.839651,144.145637 238.47311,136.144315 235.047768,132.408796 C231.622426,128.673277 226,136.217368 226,136.217368 Z" id="Path" fill="#FFFFFF" fill-rule="nonzero" opacity="0.2"></path>
            <ellipse id="Oval" fill="#EA565C" fill-rule="nonzero" cx="164.5" cy="143" rx="45.5" ry="30"></ellipse>
            <path d="M149.617862,140.776332 C149.617862,140.776332 129.068755,142.886342 135.11261,134.14487 C141.156464,125.403397 148.711286,122.389094 152.337597,124.800537 C155.963908,127.211979 157.474875,133.843438 156.870489,133.843438 C156.266103,133.843438 147.502514,128.719128 144.480585,132.63772 C141.458655,136.556312 149.617862,140.776332 149.617862,140.776332 Z" id="Path" fill="#FFFFFF" fill-rule="nonzero" opacity="0.2"></path>
            <path d="M166.898519,141 C166.898519,141 184.057458,153.084509 173.647991,155.866558 C163.238524,158.648607 155.451825,155.952415 154.262091,151.647795 C153.072356,147.343176 156.292287,141.159361 156.755981,141.563208 C157.219675,141.967055 160.559325,151.821104 165.465481,150.782865 C170.371637,149.744625 166.898519,141 166.898519,141 Z" id="Path" fill="#FFFFFF" fill-rule="nonzero" opacity="0.2"></path>
            <path d="M171,134.217367 C171,134.217367 172.361215,113.029721 180.1205,120.656075 C187.879785,128.282428 189.628587,136.456446 186.591291,139.717358 C183.553996,142.978271 176.634902,143.370634 176.737294,142.758138 C176.839686,142.145643 183.473125,134.144313 180.047783,130.408794 C176.622442,126.673275 171,134.217367 171,134.217367 Z" id="Path" fill="#FFFFFF" fill-rule="nonzero" opacity="0.2"></path>
            <path d="M188.965199,117 C198.903731,122.534485 205.220493,130.82196 205.220493,140.086261 C205.220493,156.749191 184.792318,170.257189 159.592848,170.257189 C150.958276,170.257189 142.884321,168.670757 136,165.915334 C143.937088,170.335318 154.18333,173 165.372351,173 C190.571825,173 211,159.492002 211,142.829073 C211,131.875684 202.172284,122.286071 188.965199,117 Z" id="Path" fill="#000000" fill-rule="nonzero" opacity="0.1"></path>
            <path d="M243.965199,119 C253.903731,124.534489 260.220497,132.82196 260.220497,142.086261 C260.220497,158.749191 239.792322,172.257189 214.592848,172.257189 C205.958276,172.257189 197.884321,170.670757 191,167.915334 C198.937088,172.335318 209.183334,175 220.372355,175 C245.57181,175 266,161.492002 266,144.829073 C266,133.875684 257.172303,124.286075 243.965199,119 Z" id="Path" fill="#000000" fill-rule="nonzero" opacity="0.1"></path>
            <path d="M137.202885,136.684732 C137.202885,136.684732 176.479537,94.9285197 272.692116,112.175651 C348.748886,125.809639 286.293398,149.275979 256.787587,158.509666 C248.22713,161.187536 239.359148,162.774258 230.39643,163.231757 C197.109541,164.935285 113.382823,166.458121 137.202885,136.684732 Z" id="Path" fill="#714B4F" fill-rule="nonzero"></path>
            <path d="M256.788506,149.156884 C248.227814,151.885395 239.359585,153.502118 230.396619,153.968259 C203.429978,155.374398 143.363155,156.6587 134.186096,140.967783 C122.59801,166.329659 198.972184,164.855928 230.396619,163.217338 C239.359581,162.751195 248.227806,161.13447 256.788495,158.405959 C278.416357,151.509855 317.744928,136.82256 307.254618,124 C300.19145,134.062863 273.319774,143.885838 256.788506,149.156884 Z" id="Path" fill="#000000" fill-rule="nonzero" opacity="0.1"></path>
            <line x1="221" y1="112" x2="232" y2="133" id="Path" stroke="#000000" stroke-width="2" opacity="0.1"></line>
            <line x1="188" y1="120" x2="197" y2="138" id="Path" stroke="#000000" stroke-width="2" opacity="0.1"></line>
            <line x1="240" y1="112" x2="254" y2="133" id="Path" stroke="#000000" stroke-width="2" opacity="0.1"></line>
            <line x1="188" y1="139" x2="284" y2="127" id="Path" stroke="#000000" stroke-width="2" opacity="0.1"></line>
            <line x1="280" y1="116" x2="287" y2="125" id="Path" stroke="#000000" stroke-width="2" opacity="0.1"></line>
            <line x1="169" y1="127" x2="173" y2="136" id="Path" stroke="#000000" stroke-width="2" opacity="0.1"></line>
            <path d="M183.102899,98.6687869 C183.102899,98.6687869 271.015393,98.2716103 271.82193,97.477261 C272.628466,96.6829116 291.178808,96.2620884 294.808221,101.425361 C298.437635,106.588634 299.647442,108.971679 294.808221,109.766032 C289.969001,110.560385 130.678018,191.981199 130.678018,191.981199 C130.678018,191.981199 121.806113,192.775548 126.242068,184.037705 C130.678022,175.299862 183.102899,98.6687869 183.102899,98.6687869 Z" id="Path" fill="#F6C964" fill-rule="nonzero"></path>
            <path d="M220,134.615385 C220,137.929093 204.106107,146 184.5,146 C164.893893,146 149,137.929093 149,134.615385 C149,131.301676 164.893893,130 184.500012,130 C204.10613,130 220,131.301676 220,134.615385 Z" id="Path" fill="#61AB43" fill-rule="nonzero"></path>
            <ellipse id="Oval" fill="#61AB43" fill-rule="nonzero" cx="184.5" cy="135" rx="35.5" ry="6"></ellipse>
            <path d="M263,129.615385 C263,132.929093 247.106107,141 227.5,141 C207.893893,141 192,132.929093 192,129.615385 C192,126.301676 207.893889,125 227.5,125 C247.106111,125 263,126.301676 263,129.615385 Z" id="Path" fill="#61AB43" fill-rule="nonzero"></path>
            <ellipse id="Oval" fill="#61AB43" fill-rule="nonzero" cx="227.5" cy="129" rx="35.5" ry="6"></ellipse>
            <path d="M306,123.615386 C306,126.929091 290.106107,135 270.5,135 C250.893893,135 235,126.929091 235,123.615386 C235,120.301681 250.893889,119 270.5,119 C290.106111,119 306,120.301677 306,123.615386 Z" id="Path" fill="#61AB43" fill-rule="nonzero"></path>
            <ellipse id="Oval" fill="#61AB43" fill-rule="nonzero" cx="270.5" cy="124" rx="35.5" ry="6"></ellipse>
            <path d="M140.223953,125.679024 C140.223953,125.679024 125.677144,123.306437 133.119699,111.443495 C140.562255,99.580553 143.06555,86.2823646 146.313317,83.3113732 C149.944293,79.9898303 224.888006,21.7534474 283.2728,86.195252 C289.458224,93.1037684 294.486342,100.970153 298.161956,109.489024 C298.8682,111.099581 299.646859,112.545053 300.408018,113.307652 C302.776103,115.680239 304.805889,122.459065 300.408018,125.848476 C296.010147,129.237886 166.442044,142.456612 140.223953,125.679024 Z" id="Path" fill="#E7C798" fill-rule="nonzero"></path>
            <path d="M293.5,41 C298.16292,41 306.996253,38.6666667 320,34 C317.333333,28.2994537 316,23.7994537 316,20.5 C316,9.17816263 305.926407,0 293.5,0 C281.073593,0 271,9.17816263 271,20.5 C271,31.8218374 281.073593,41 293.5,41 Z" id="Oval" fill="#54C41C"></path>
            <path d="M291.632,26.8177015 C292.698667,26.8177015 293.333333,26.2681638 293.536,25.1690885 C293.653333,24.651255 293.741333,24.2892999 293.8,24.0832232 C293.858667,23.8771466 293.941333,23.67107 294.048,23.4649934 C294.154667,23.2589168 294.317333,23.0317041 294.536,22.7833554 C294.754667,22.5350066 295.045333,22.2470277 295.408,21.9194188 C296.72,20.7569353 297.629333,19.9299868 298.136,19.4385733 C298.642667,18.9471598 299.08,18.3632761 299.448,17.6869221 C299.816,17.010568 300,16.2232497 300,15.324967 C300,14.1836196 299.677333,13.1268164 299.032,12.1545575 C298.386667,11.1822985 297.472,10.4134742 296.288,9.84808454 C295.104,9.28269485 293.738667,9 292.192,9 C290.528,9 289.072,9.33817701 287.824,10.014531 C286.576,10.6908851 285.626667,11.5442536 284.976,12.5746367 C284.325333,13.6050198 284,14.6221929 284,15.6261559 C284,16.1122853 284.205333,16.5640687 284.616,16.9815059 C285.026667,17.3989432 285.530667,17.6076618 286.128,17.6076618 C287.141333,17.6076618 287.829333,17.010568 288.192,15.8163804 C288.576,14.675033 289.045333,13.8110964 289.6,13.2245707 C290.154667,12.6380449 291.018667,12.344782 292.192,12.344782 C293.194667,12.344782 294.013333,12.6354029 294.648,13.2166446 C295.282667,13.7978864 295.6,14.5112285 295.6,15.3566711 C295.6,15.7899604 295.496,16.1915456 295.288,16.5614267 C295.08,16.9313078 294.824,17.2668428 294.52,17.5680317 C294.216,17.8692206 293.722667,18.3157199 293.04,18.9075297 C292.261333,19.5838838 291.642667,20.1677675 291.184,20.659181 C290.725333,21.1505945 290.357333,21.7212682 290.08,22.3712021 C289.802667,23.0211361 289.664,23.7899604 289.664,24.677675 C289.664,25.3857332 289.853333,25.9194188 290.232,26.2787318 C290.610667,26.6380449 291.077333,26.8177015 291.632,26.8177015 Z M291.808,33 C292.437333,33 292.992,32.7886394 293.472,32.3659181 C293.952,31.9431968 294.192,31.3619551 294.192,30.6221929 C294.192,29.9564069 293.962667,29.3963012 293.504,28.9418758 C293.045333,28.4874505 292.48,28.2602378 291.808,28.2602378 C291.125333,28.2602378 290.549333,28.4874505 290.08,28.9418758 C289.610667,29.3963012 289.376,29.9564069 289.376,30.6221929 C289.376,31.3725231 289.618667,31.9564069 290.104,32.3738441 C290.589333,32.7912814 291.157333,33 291.808,33 Z" id="?" fill="#FFFFFF" fill-rule="nonzero"></path>
            <path d="M208,76 C207.116653,76.6142562 206.075231,76.9613962 205,77 C203.343145,77 202,76.5522845 202,76 C202,75.4477193 203.343145,75 205,75 C206.075232,75.0386043 207.116654,75.3857457 208,76 Z" id="Path" fill="#F2F2F2" fill-rule="nonzero"></path>
            <path d="M184,70 C183.116653,70.6142555 182.075231,70.9613961 181,71 C179.343145,71 178,70.5522837 178,70 C178,69.4477163 179.343145,69 181,69 C182.075231,69.0386039 183.116653,69.3857445 184,70 L184,70 Z" id="Path" fill="#F2F2F2" fill-rule="nonzero"></path>
            <path d="M250,78.7905967 C248.927442,79.0525373 247.780577,79.0690843 246.696252,78.8382632 C245.043941,78.4364752 243.844155,77.7637024 244.016464,77.3355866 C244.188773,76.9074707 245.667905,76.8861291 247.320212,77.287917 C248.380448,77.5785887 249.310711,78.1002297 250,78.7905967 L250,78.7905967 Z" id="Path" fill="#F2F2F2" fill-rule="nonzero"></path>
            <path d="M205,61.7905958 C203.927442,62.0525365 202.780577,62.0690845 201.696252,61.8382653 C200.043941,61.4364743 198.844155,60.7637018 199.016464,60.335586 C199.188773,59.9074703 200.667905,59.8861287 202.320212,60.2879196 C203.380448,60.5785894 204.310711,61.1002293 205,61.7905958 L205,61.7905958 Z" id="Path" fill="#F2F2F2" fill-rule="nonzero"></path>
            <path d="M254,67.7905967 C252.927442,68.0525373 251.780577,68.0690843 250.696252,67.8382632 C249.04394,67.4364752 247.844159,66.7637024 248.016463,66.3355866 C248.188768,65.9074707 249.6679,65.8861291 251.320212,66.287917 C252.380448,66.5785887 253.310711,67.1002297 254,67.7905967 L254,67.7905967 Z" id="Path" fill="#F2F2F2" fill-rule="nonzero"></path>
            <path d="M244,67 C243.116652,67.6142552 242.07523,67.9613957 241,68 C239.343144,68 238,67.5522837 238,67 C238,66.4477163 239.343144,66 241,66 C242.07523,66.0386043 243.116652,66.3857448 244,67 Z" id="Path" fill="#F2F2F2" fill-rule="nonzero"></path>
            <path d="M215,61 C214.116653,61.6142555 213.075232,61.9613961 212,62 C210.343148,62 209,61.5522874 209,61 C209,60.4477126 210.343148,60 212,60 C213.075232,60.0386039 214.116653,60.3857445 215,61 L215,61 Z" id="Path" fill="#F2F2F2" fill-rule="nonzero"></path>
            <path d="M237,61 C236.116653,61.6142555 235.075232,61.9613961 234,62 C232.343148,62 231,61.5522874 231,61 C231,60.4477126 232.343148,60 234,60 C235.075232,60.0386039 236.116653,60.3857445 237,61 L237,61 Z" id="Path" fill="#F2F2F2" fill-rule="nonzero"></path>
            <path d="M229,74 C228.116653,74.6142555 227.075231,74.9613961 226,75 C224.343145,75 223,74.5522874 223,74 C223,73.4477126 224.343145,73 226,73 C227.075231,73.0386039 228.116653,73.3857445 229,74 L229,74 Z" id="Path" fill="#F2F2F2" fill-rule="nonzero"></path>
            <path d="M204,72 C204.27345,70.9864956 204.870193,70.0641036 205.719026,69.3428854 C207.070307,68.2745342 208.491528,67.7320186 208.893413,68.131147 C209.295298,68.5302754 208.525668,69.7199067 207.174387,70.7882616 C206.26937,71.4536801 205.167412,71.8743236 204,72 Z" id="Path" fill="#F2F2F2" fill-rule="nonzero"></path>
            <path d="M189,68 C189.273448,66.986495 189.870192,66.0641029 190.719026,65.3428869 C192.070303,64.2745312 193.491528,63.7320189 193.893413,64.1311475 C194.295298,64.5302762 193.525668,65.7199085 192.174387,66.7882606 C191.269371,67.4536813 190.167412,67.8743253 189,68 Z" id="Path" fill="#F2F2F2" fill-rule="nonzero"></path>
            <path d="M162,86 C162.273449,84.9864957 162.870192,84.0641041 163.719024,83.3428869 C165.070304,82.2745312 166.491523,81.7320189 166.893412,82.1311475 C167.295301,82.5302762 166.525663,83.7199049 165.174387,84.7882606 C164.269371,85.4536812 163.167412,85.8743252 162,86 Z" id="Path" fill="#F2F2F2" fill-rule="nonzero"></path>
            <path d="M221,66 C221.273447,64.986495 221.870191,64.0641029 222.719026,63.3428869 C224.070302,62.2745312 225.491522,61.7320189 225.893411,62.1311475 C226.2953,62.5302762 225.525666,63.7199085 224.174386,64.7882606 C223.26937,65.4536807 222.167412,65.8743247 221,66 Z" id="Path" fill="#F2F2F2" fill-rule="nonzero"></path>
            <path d="M215,78 C215.273448,76.986495 215.870192,76.0641029 216.719026,75.3428869 C218.070307,74.2745312 219.491528,73.7320189 219.893413,74.1311475 C220.295298,74.5302762 219.525668,75.7199085 218.174387,76.7882606 C217.269371,77.4536813 216.167412,77.8743253 215,78 L215,78 Z" id="Path" fill="#F2F2F2" fill-rule="nonzero"></path>
            <path d="M327.707463,211 C327.707463,211 323.029038,212.364598 320.689826,215.09379 C320.689826,215.09379 316.479244,216.91325 313.906108,216.458384 C311.332972,216.003518 306.654551,220.55217 310.397289,221.916768 C314.140028,223.281366 337.064317,226.920286 337.532157,225.783123 C338,224.64596 338,213.046895 338,213.046895 L327.707463,211 Z" id="Path" fill="#000000" fill-rule="nonzero"></path>
            <path d="M363.752812,209 C363.752812,209 359.401818,211.114786 357.584364,214.182634 C357.584364,214.182634 353.7719,216.66674 351.168009,216.64594 C348.564117,216.625139 344.770066,221.867297 348.680504,222.588013 C352.590943,223.30873 375.716914,223.087909 375.976976,221.893541 C376.237039,220.699173 374.208171,209.306593 374.208171,209.306593 L363.752812,209 Z" id="Path" fill="#000000" fill-rule="nonzero"></path>
            <circle id="Oval" fill="#FFB9B9" fill-rule="nonzero" cx="334.5" cy="41.5" r="10.5"></circle>
            <path d="M343.812712,43 C343.812712,43 344.971957,50.6774184 347.05858,51.5806454 C348.510355,52.2766531 349.84047,53.1910906 351,54.2903227 L345.203796,57 L333.843234,56.3225779 C333.843234,56.3225779 334.770628,51.3548368 333.14769,48.8709681 C331.524752,46.3870994 343.812712,43 343.812712,43 Z" id="Path" fill="#FFB9B9" fill-rule="nonzero"></path>
            <path d="M325.023167,110.546779 C325.023167,110.546779 318.360797,125.792386 319.05001,133.184195 C319.739224,140.576004 325.023167,171.760199 325.023167,171.760199 C325.023167,171.760199 324.333957,211.953161 326.40159,211.953161 C328.469223,211.953161 338.347907,215.649064 338.347907,213.108131 C338.347907,210.567199 340.41554,149.584772 340.41554,149.584772 C340.41554,149.584772 352.132118,176.380079 353.280802,178.459023 C354.429486,180.537966 361.781066,213.108128 364.308173,213.108128 C366.835281,213.108128 374.646331,210.798188 373.957122,209.181229 C373.267912,207.56427 365.456858,171.529202 361.091856,162.289438 C356.726854,153.049674 357.6458,118.169584 357.6458,118.169584 L350.294224,102 L325.023167,110.546779 Z" id="Path" fill="#3F3D56" fill-rule="nonzero"></path>
            <path d="M331.898495,36.761164 C331.898495,36.761164 325.496503,36.3018102 325.039205,34.6940737 C324.581907,33.0863372 323.667344,31.7082796 324.124631,31.7082796 C324.581918,31.7082796 324.810559,30.5598969 324.810559,30.5598969 C324.810559,30.5598969 325.267846,30.3302219 325.496491,30.5598969 C325.725137,30.7895719 325.953778,28.9521642 325.953778,28.9521642 C325.953778,28.9521642 326.18242,28.2631354 326.411061,28.7224892 C326.639703,29.181843 326.639707,28.9521642 326.868348,28.2631354 C327.09699,27.5741066 328.240208,27.1147527 328.240208,27.1147527 C328.240208,27.1147527 332.584423,27.3444278 333.270356,26.4257239 C333.956288,25.5070201 341.730148,26.1960451 343.330646,27.3444278 C344.931144,28.4928104 352.019084,32.626991 350.875869,36.072139 C349.732653,39.5172869 345.61708,47.0966117 345.61708,48.2449943 C345.61708,49.393377 344.016582,49.163702 343.559291,48.0153193 C343.102001,46.8669367 339.443718,45.4888752 339.443718,44.799854 C339.443718,44.1108327 337.385929,37.679883 336.242722,38.1392331 C335.099514,38.5985831 333.727646,42.2734136 333.270363,41.5843848 C332.81308,40.895356 331.898495,36.761164 331.898495,36.761164 Z" id="Path" fill="#3F3D56" fill-rule="nonzero"></path>
            <path d="M364,68.2093024 C364,68.2093024 354.614566,54.2558229 351.867617,53.5581378 C349.120667,52.8604527 342.940006,51 342.940006,51 C342.940006,51 336.759353,51.9302302 334.928065,52.8604642 C333.096776,53.7906982 326.229366,55.418602 326.000454,58.2093002 C325.771543,61 327.831758,87.7441859 326.687192,90.3023237 C325.542627,92.8604614 321.651105,117.279072 323.482416,116.813955 C325.313727,116.348838 323.940243,110.30234 331.952199,110.069768 C339.964156,109.837196 344.313506,104.953488 347.289378,110.767441 C350.265251,116.581394 358.735031,121 358.735031,121 C358.947911,119.12511 359.253515,117.26229 359.650685,115.418604 C360.337423,112.162796 357.819377,104.255815 357.819377,104.255815 C357.819377,104.255815 358.048292,85.8837217 358.963942,83.7906971 C359.879592,81.6976725 364,68.2093024 364,68.2093024 Z" id="Path" fill="#D24D52" fill-rule="nonzero"></path>
            <path d="M322.799068,76 C322.799068,76 320.452735,91.1294521 319.279569,92.9915377 C318.106403,94.8536234 312.24057,120.922838 312.24057,120.922838 C312.24057,120.922838 302.59473,134.229741 307.2874,133.996982 C311.980069,133.764222 316.933236,121.853882 316.933236,121.853882 C316.933236,121.853882 331.480501,95.5519088 331.480501,92.7587823 C331.480501,89.9656558 335,76 335,76 L322.799068,76 Z" id="Path" fill="#FFB9B9" fill-rule="nonzero"></path>
            <path d="M329.247339,56 L325.203565,57.6355525 C325.203565,57.6355525 320.036518,76.7949194 321.159788,78.4304758 C322.283059,80.0660322 335.762309,77.7295241 335.986962,77.0285686 C336.211614,76.3276131 333.515757,56 329.247339,56 Z" id="Path" fill="#EA565C" fill-rule="nonzero"></path>
            <path d="M37,182 C37,204.662109 51.3124992,223 69,223" id="Path" fill="#46455B" fill-rule="nonzero"></path>
            <path d="M69,222 C69,199.337892 84.6542998,181 104,181" id="Path" fill="#54C41C" fill-rule="nonzero"></path>
            <path d="M49,184 C49,205.556645 57.9453144,223 69,223" id="Path" fill="#54C41C" fill-rule="nonzero"></path>
            <path d="M69,223 C69,193.705077 87.3378905,170 110,170" id="Path" fill="#46455B" fill-rule="nonzero"></path>
            <path d="M62,223.287818 C62,223.287818 66.5686717,223.157415 67.9455531,222.248792 C69.3224345,221.340169 74.9733217,220.255219 75.3148931,221.712454 C75.6564646,223.169689 82.1807538,228.960077 77.0227464,228.998632 C71.8647389,229.037188 65.0378331,228.254058 63.6635811,227.47829 C62.2893291,226.702521 62,223.287818 62,223.287818 Z" id="Path" fill="#A8A8A8" fill-rule="nonzero"></path>
            <path d="M77.1158495,228.466255 C71.9574814,228.50673 65.1301021,227.684926 63.7557735,226.870849 C62.709148,226.250891 62.2920764,224.026328 62.1525305,223 C62.0558885,223.004038 62,223.005781 62,223.005781 C62,223.005781 62.2893883,226.589086 63.6637169,227.403158 C65.0380454,228.21723 71.8654481,229.039038 77.0237967,228.998564 C78.5128124,228.986888 79.0271454,228.471726 78.9989051,227.708728 C78.7920444,228.169713 78.2241682,228.457565 77.1158495,228.466255 Z" id="Path" fill="#000000" fill-rule="nonzero" opacity="0.2"></path>
        </g>
    </g>
</svg>