<?xml version="1.0" encoding="UTF-8"?>
<svg width="453px" height="300px" viewBox="0 0 453 300" version="1.1" xmlns="http://www.w3.org/2000/svg" xmlns:xlink="http://www.w3.org/1999/xlink">
    <!-- Generator: Sketch 61.2 (89653) - https://sketch.com -->
    <title>img-problem-3</title>
    <desc>Created with Sketch.</desc>
    <defs>
        <linearGradient x1="49.9904777%" y1="100.001574%" x2="49.9904777%" y2="0.00230103318%" id="linearGradient-1">
            <stop stop-color="#808080" stop-opacity="0.25" offset="0%"></stop>
            <stop stop-color="#808080" stop-opacity="0.12" offset="54%"></stop>
            <stop stop-color="#808080" stop-opacity="0.1" offset="100%"></stop>
        </linearGradient>
    </defs>
    <g id="img-problem-3" stroke="none" stroke-width="1" fill="none" fill-rule="evenodd">
        <g id="undraw_feeling_blue_4b7q-3" transform="translate(64.000000, 30.000000)" fill-rule="nonzero">
            <path d="M3.78675136,114.729129 C8.90948276,134.526996 19.7447822,151.641107 36.8677405,159.93716 C72.4643829,177.178085 152.744102,168.286298 212.65971,158.079174 C243.652677,152.800136 270.894283,138.231171 290.683303,117.728448 L3.78675136,114.729129 Z" id="Path" fill="#54C41C" opacity="0.1"></path>
            <path d="M317.980944,21.5378857 L285.106397,21.5378857 C283.546279,21.5378857 282.266334,20.3818058 282.266334,18.969147 C282.266334,17.5564882 283.546279,16.3974592 285.106397,16.3974592 L290.792423,16.3974592 C289.229356,16.3974592 287.952359,15.2413793 287.952359,13.8257713 C287.952359,12.4101633 289.229356,11.2570327 290.792423,11.2570327 L286.734347,11.2570327 C285.171279,11.2570327 283.891334,10.1009528 283.891334,8.68534483 C283.891334,7.26973684 285.171279,6.11660617 286.734347,6.11660617 L303.892695,6.11660617 C300.085299,4.51519964 295.634982,3.37681488 290.506352,2.77813067 C243.717559,-2.65721416 227.013385,0.93784029 221.120917,4.63316697 C213.776245,9.2965507 205.617677,12.5323624 197.073276,14.1708258 C168.20667,19.5589837 114.221869,26.0412886 65.2919691,12.1063975 C40.9730036,5.16696915 22.8974592,16.878176 12.0651089,36.4548548 L323.690563,36.4548548 C323.283575,30.7658802 322.065563,25.5104356 319.830082,20.9126588 C319.300659,21.3214205 318.649795,21.5414894 317.980944,21.5378857 L317.980944,21.5378857 Z" id="Path" fill="#54C41C" opacity="0.1"></path>
            <path d="M0.99977314,73.4051724 C-0.262932185,84.9192822 0.166298723,96.5562091 2.27382033,107.946007 L290.904492,117.498412 C298.849704,109.258008 305.600236,99.9442595 310.958938,89.8291742 L0.99977314,73.4051724 Z M115.15676,98.0455989 L109.473684,98.0455989 C111.036751,98.0455989 112.316697,99.2046279 112.316697,100.617287 C112.316697,102.029946 111.036751,103.186025 109.473684,103.186025 L76.5991379,103.186025 C75.03902,103.186025 73.7590744,102.029946 73.7590744,100.617287 C73.7590744,99.2046279 75.03902,98.0455989 76.5991379,98.0455989 L82.2851633,98.0455989 C80.7220962,98.0455989 79.4450998,96.8895191 79.4450998,95.4768603 C79.4450998,94.0642015 80.7220962,92.9051724 82.2851633,92.9051724 L78.2241379,92.9051724 C76.6610708,92.9051724 75.3811252,91.7490926 75.3811252,90.3364338 C75.3811252,88.923775 76.6610708,87.7647459 78.2241379,87.7647459 L111.098684,87.7647459 C112.661751,87.7647459 113.938748,88.9208258 113.938748,90.3364338 C113.938748,91.7520417 112.661751,92.9051724 111.098684,92.9051724 L115.15676,92.9051724 C116.719828,92.9051724 117.996824,94.0612523 117.996824,95.4768603 C117.996824,96.8924682 116.719828,98.0455989 115.15676,98.0455989 Z" id="Shape" fill="#54C41C" opacity="0.1"></path>
            <path d="M323.702359,36.6318058 L8.58802178,43.5623866 C4.75408348,52.4777677 2.21188748,62.5580762 1.04106171,73.0040835 L318.181488,73.0040835 C320.245428,66.8925422 321.776846,60.6139224 322.758621,54.2384301 C323.705309,48.1011797 324.082804,42.1644737 323.702359,36.6318058 Z M65.0206443,59.3552632 L59.3375681,59.3552632 C60.9006352,59.3552632 62.1805808,60.5142922 62.1805808,61.926951 C62.1805808,63.3396098 60.9006352,64.4986388 59.3375681,64.4986388 L26.4630218,64.4986388 C24.9029038,64.4986388 23.6229583,63.3396098 23.6229583,61.926951 C23.6229583,60.5142922 24.9029038,59.3552632 26.4630218,59.3552632 L32.1490472,59.3552632 C30.58598,59.3552632 29.3089837,58.1991833 29.3089837,56.7865245 C29.3089837,55.3738657 30.58598,54.2148367 32.1490472,54.2148367 L28.0880218,54.2148367 C26.5249546,54.2148367 25.2450091,53.0587568 25.2450091,51.646098 C25.2450091,50.2334392 26.5249546,49.0744102 28.0880218,49.0744102 L60.9625681,49.0744102 C62.5256352,49.0744102 63.8026316,50.23049 63.8026316,51.646098 C63.8026316,53.061706 62.5256352,54.2148367 60.9625681,54.2148367 L65.0206443,54.2148367 C66.5837114,54.2148367 67.8607078,55.3738657 67.8607078,56.7865245 C67.8607078,58.1991833 66.5837114,59.3552632 65.0206443,59.3552632 Z" id="Shape" fill="#54C41C" opacity="0.1"></path>
            <ellipse id="Oval" fill="#54C41C" opacity="0.1" cx="161.049002" cy="218.227768" rx="131.822595" ry="12.1270417"></ellipse>
            <path d="M295.401996,118.061706 C295.40053,118.041088 295.40053,118.020391 295.401996,117.999773 C295.401996,117.967332 295.401996,117.93784 295.401996,117.908348 L295.401996,117.908348 C295.342894,117.570579 295.215442,117.248436 295.02745,116.961661 C294.352654,115.881448 293.412475,114.992035 292.296506,114.378176 C290.350045,113.310572 287.675136,112.853448 286.896552,110.815563 C286.657668,110.184437 286.65177,109.497278 286.533802,108.836661 C286.113728,106.741842 284.608627,105.029916 282.584846,104.345054 C281.658802,104.03539 280.659029,103.949864 279.759528,103.56647 C277.748185,102.711207 276.686479,100.602541 275.786978,98.6531307 C274.623034,96.1364943 273.45909,93.6188748 272.295145,91.1002722 C271.41039,91.5455989 270.266107,91.3362069 269.437387,90.7788113 C268.638861,90.1842995 268.002924,89.398253 267.588249,88.4931942 C266.387931,86.1633394 265.871824,83.5238203 264.462114,81.3060345 C263.052405,79.0882486 260.235935,77.3364338 257.746824,78.3008167 C257.260845,78.5436293 256.758217,78.7515796 256.24274,78.9230944 C254.110481,79.4215064 251.751134,76.9854809 249.92559,78.1681034 C249.622351,78.3625898 249.375283,78.6330422 249.208938,78.9525862 C249.207297,78.9329592 249.207297,78.9132295 249.208938,78.8936025 C248.971406,79.3733236 248.838702,79.8981084 248.819646,80.4330762 L248.819646,80.4330762 C248.819646,80.542196 248.819646,80.6483666 248.819646,80.751588 C248.819646,80.7692831 248.819646,80.7869782 248.819646,80.8046733 C248.819646,81.2293557 248.846189,81.6599365 248.852087,82.0905172 C248.858686,82.4521173 248.831037,82.81353 248.76951,83.1699183 L248.76951,83.1404265 C248.734999,83.3409866 248.6837,83.5382927 248.616152,83.7302632 C248.141334,85.0043103 246.825998,85.8389292 246.209619,87.0362976 L246.209619,86.977314 C246.140153,87.1075597 246.080034,87.2425795 246.029719,87.3813521 C245.920127,87.6952207 245.863323,88.025085 245.861615,88.3575318 C245.80853,90.6077586 248.194419,92.7252722 248.471642,95.1406534 C248.669238,96.8511797 249.061479,97.3997278 250.515426,98.3670599 L250.833938,98.5794011 C250.707123,98.5794011 250.577359,98.5970962 250.432849,98.6000454 C250.37641,98.6010869 250.320166,98.6070073 250.264746,98.6177405 C249.745202,98.4747183 249.188904,98.5721244 248.748866,98.883167 C247.634074,99.767922 244.997505,99.0866606 243.826679,98.883167 C242.655853,98.6796733 238.644964,99.2282214 238.084619,101.451906 C237.524274,103.67559 236.56284,108.264519 236.56284,108.264519 C236.56284,108.264519 236.56284,111.175363 236.205989,111.718013 C236.192253,111.756136 236.192253,111.797857 236.205989,111.83598 C236.205989,112.652904 236.235481,117.563294 235.4451,118.828494 C235.250454,119.123412 235.2652,119.775181 235.40971,120.577359 C234.57804,121.647913 233.796506,122.898367 233.935118,123.71824 C234.188748,125.396325 237.592105,130.672414 242.470054,127.847096 C242.470054,127.847096 245.245236,122.771552 241.753403,120.073049 L241.903811,119.483212 C242.959619,120.780853 243.741152,121.712795 243.741152,121.712795 C243.741152,121.712795 243.782441,121.821915 243.847323,122.007713 L243.741152,122.007713 C244.196902,123.247909 244.472987,124.546897 244.561025,125.865245 C244.547709,126.348602 244.460178,126.82704 244.301497,127.283802 L244.392922,127.283802 C244.366379,127.384074 244.336887,127.484347 244.301497,127.578721 C244.13012,128.076747 243.809962,128.510145 243.384301,128.820327 C240.945327,130.548548 238.15245,142.89088 238.15245,142.89088 C238.15245,142.89088 232.619782,162.842105 231.513838,163.977541 C230.599592,164.909483 236.344601,167.534256 240.656307,167.221642 C241.25811,167.185837 241.852817,167.072842 242.425817,166.885436 C242.452359,167.180354 242.481851,167.475272 242.511343,167.743648 C242.602768,168.628403 242.697142,169.448276 242.756125,169.704855 C242.909483,170.347777 243.213249,176.912659 243.213249,176.912659 C243.213249,176.912659 242.590971,181.177178 242.741379,184.144056 C242.741379,184.34755 242.767922,184.542196 242.785617,184.733893 L242.248866,184.81647 C241.434891,186.644964 244.788113,201.901089 245.245236,203.183984 C245.548001,204.19485 245.718507,205.240686 245.752495,206.295372 C245.752495,206.295372 245.457577,207.380672 245.702359,207.973457 C245.854826,208.335761 245.954157,208.718188 245.997278,209.108893 C245.997278,209.108893 245.796733,210.09392 246.100499,210.736842 C246.404265,211.379764 246.050363,212.506352 246.050363,212.506352 C246.050363,212.506352 245.950091,216.950771 245.035844,219.369102 C244.529077,220.693802 244.771063,222.188484 245.669918,223.285617 C245.733462,223.369652 245.802423,223.449449 245.876361,223.524501 C245.876361,223.524501 250.919465,223.565789 251.807169,223.524501 L251.922187,223.524501 C252.279038,223.474365 253.193285,219.475272 252.37931,217.549456 C251.565336,215.623639 252.279038,213.252495 252.279038,213.252495 L252.279038,209.748866 C252.279038,209.748866 253.193285,208.905399 252.279038,207.094601 C251.364791,205.283802 251.5152,204.735254 251.5152,204.735254 C251.5152,204.735254 252.532668,201.821461 251.465064,200.883621 C250.397459,199.94578 251.668557,196.389065 251.668557,196.389065 L252.028358,184.533348 C251.839988,184.472029 251.647902,184.422776 251.453267,184.385889 C251.432623,184.191243 251.411978,183.990699 251.391334,183.778358 C251.181942,181.631352 251.002042,178.711661 251.468013,177.879991 C251.933984,177.048321 252.158122,169.787432 252.231851,164.741379 L256.879764,164.91833 C256.977087,167.277677 257.080309,169.430581 257.145191,169.704855 C257.298548,170.347777 257.605263,176.912659 257.605263,176.912659 C257.605263,176.912659 256.980036,181.177178 257.130445,184.144056 C257.130445,184.34755 257.156987,184.542196 257.174682,184.733893 L256.637931,184.81647 C255.823956,186.644964 259.177178,201.901089 259.634301,203.183984 C259.937325,204.194889 260.108807,205.240631 260.14451,206.295372 C260.14451,206.295372 259.849592,207.380672 260.091425,207.973457 C260.243891,208.335761 260.343223,208.718188 260.386343,209.108893 C260.386343,209.108893 260.185799,210.09392 260.489564,210.736842 C260.79333,211.379764 260.439428,212.506352 260.439428,212.506352 C260.439428,212.506352 260.339156,216.950771 259.424909,219.369102 C258.926111,220.695734 259.175929,222.187894 260.079628,223.279719 C260.143172,223.363753 260.212133,223.443551 260.286071,223.518603 C260.286071,223.518603 265.329174,223.559891 266.216878,223.518603 L266.331897,223.518603 C266.688748,223.468466 267.602995,219.469374 266.78902,217.543557 C265.975045,215.61774 266.688748,213.246597 266.688748,213.246597 L266.688748,209.748866 C266.688748,209.748866 267.602995,208.905399 266.688748,207.094601 C265.774501,205.283802 265.924909,204.735254 265.924909,204.735254 C265.924909,204.735254 266.942377,201.821461 265.874773,200.883621 C264.807169,199.94578 266.078267,196.389065 266.078267,196.389065 L266.443966,184.533348 C266.250877,184.471042 266.053821,184.421778 265.854129,184.385889 C265.833485,184.191243 265.81284,183.990699 265.792196,183.778358 C265.582804,181.631352 265.402904,178.711661 265.868875,177.879991 C266.243421,177.19873 266.458711,172.810345 266.556034,168.525181 C266.556034,168.230263 266.556034,167.935345 266.579628,167.640426 C268.715144,167.55152 270.841801,167.313035 272.943966,166.926724 C272.943966,166.926724 270.457804,158.135209 271.218693,156.704855 C271.546053,156.088475 271.074183,152.806034 270.428312,149.269964 C271.329086,149.999027 272.448796,150.404117 273.607532,150.420145 C274.719374,152.558303 278.102087,157.477541 280.00726,158.235481 C282.24274,159.120236 280.564655,151.275408 279.5,150.139973 C278.996188,149.520045 278.572127,148.839369 278.23775,148.113884 C278.267241,148.078494 278.299682,148.049002 278.329174,148.016561 C278.358666,147.98412 278.38226,139.670372 277.872051,139.82078 C277.361842,139.971189 276.75431,138.585073 276.75431,138.585073 L275.179446,124.76225 L274.518829,118.975953 L274.518829,118.975953 C275.070327,119.38294 275.725045,119.642468 276.288339,120.046506 C277.821915,121.170145 278.323276,123.143149 278.99569,124.889065 C279.550136,126.325318 280.328721,127.749773 281.605717,128.652223 C282.882713,129.554673 284.755445,129.793557 286.029492,128.87931 C287.209165,128.021098 287.557169,126.472777 287.816697,125.060118 C289.957804,125.81216 292.556034,123.800817 292.278811,121.603675 C292.21098,121.061025 292.010436,120.46824 292.293557,119.993421 C292.8598,119.055581 294.652904,119.60118 295.24274,118.675136 C295.34193,118.514965 295.393106,118.329708 295.3902,118.141334 C295.399047,118.100045 295.401996,118.08235 295.401996,118.061706 Z M266.762477,125.664701 C266.730036,126.192604 267.455535,130.43353 268.045372,133.789701 C267.561706,131.69873 266.591425,129.466198 264.680354,127.935572 C264.680354,127.935572 264.680354,127.829401 264.65676,127.640653 L264.680354,127.640653 C264.680354,127.640653 264.600726,126.797187 264.588929,125.596869 C264.592352,124.532886 264.671195,123.470483 264.824864,122.41765 L264.824864,122.391107 L264.786525,122.391107 C264.786525,122.302632 264.810118,122.211207 264.824864,122.122731 C264.942072,121.234258 265.183306,120.366613 265.541515,119.545145 C265.699876,119.223205 265.882258,118.913648 266.087114,118.619102 C266.402677,121.470962 266.791969,125.130898 266.762477,125.664701 L266.762477,125.664701 Z M268.349138,135.491379 C268.608666,136.939428 268.794465,137.956897 268.794465,137.956897 L270.360481,148.709619 L270.360481,148.759755 C269.517015,144.220962 268.440563,139.437387 268.440563,139.437387 C268.550284,138.122536 268.519636,136.799738 268.349138,135.491379 L268.349138,135.491379 Z" id="Shape" fill="url(#linearGradient-1)"></path>
            <path d="M249.155853,95.73049 C248.860935,93.0054446 245.911751,90.6549456 246.796506,88.0626134 C247.277223,86.6499546 248.781307,85.7858439 249.288566,84.3820327 C249.624773,83.4559891 249.474365,82.4385209 249.477314,81.4534936 C249.480263,80.4684664 249.710299,79.3684211 250.530172,78.8228221 C252.299682,77.6431488 254.576452,80.0703267 256.64088,79.5748639 C257.139985,79.4041559 257.625931,79.1971605 258.094828,78.9555354 C260.50431,77.9970508 263.229356,79.7429673 264.583031,81.9489564 C265.936706,84.1549456 266.443966,86.7856171 267.605944,89.1036751 C268.002675,89.9988327 268.617065,90.7805063 269.393149,91.3774955 C270.195327,91.9319419 271.292423,92.1413339 272.159483,91.6989564 L275.536298,99.2193739 C276.421053,101.156987 277.435572,103.256806 279.370236,104.10912 C280.237296,104.489564 281.204628,104.575091 282.10118,104.884755 C284.084226,105.584213 285.544933,107.286498 285.935118,109.352768 C286.050136,110.013385 286.053085,110.697595 286.286071,111.325771 C287.038113,113.354809 289.624546,113.808984 291.509074,114.864791 C292.599269,115.479526 293.51324,116.364047 294.163339,117.43353 C294.458258,117.943739 294.711887,118.613203 294.396325,119.114564 C293.827132,120.03471 292.095962,119.49206 291.547414,120.426951 C291.270191,120.89882 291.464837,121.488657 291.547414,122.031307 C291.815789,124.216652 289.300136,126.219147 287.229809,125.470054 C286.979129,126.876815 286.639973,128.419238 285.501588,129.271552 C284.277677,130.185799 282.463929,129.943966 281.228221,129.047414 C279.992514,128.150862 279.243421,126.732305 278.70667,125.301951 C278.0549,123.561933 277.568285,121.597777 276.084846,120.480036 C275.548094,120.078947 274.905172,119.819419 274.380218,119.415381 C273.200544,118.512931 272.610708,117.023593 272.188975,115.581443 C271.643376,113.782441 271.209846,111.933303 270.419465,110.234574 C269.629083,108.535844 268.37863,106.955082 266.665154,106.179446 C265.057849,105.456897 263.205762,105.504083 261.545372,104.917196 C258.687613,103.908575 256.573049,101.504991 253.730036,100.372505 C252.821148,99.9904844 251.960039,99.5035127 251.164247,98.9215064 C249.733893,97.9807169 249.344601,97.435118 249.155853,95.73049 Z" id="Path" fill="#3F3D56"></path>
            <g id="Group" opacity="0.1" transform="translate(246.551724, 79.333031)" fill="#000000">
                <path d="M2.86955535,4.47096189 C2.9303792,4.35561822 2.9835785,4.23641238 3.02881125,4.11411071 C3.36206897,3.18806715 3.2146098,2.17059891 3.21755898,1.18557169 C3.21739896,0.857056898 3.24800752,0.529249124 3.30898367,0.206442831 C3.03678969,0.789166594 2.90449321,1.42742139 2.92264065,2.07032668 C2.91969147,2.86365699 3.01406534,3.69532668 2.86955535,4.47096189 Z" id="Path"></path>
                <path d="M39.2270871,49.0124773 C38.003176,49.923775 36.1894283,49.6848911 34.9537205,48.7853902 C33.7180127,47.8858893 32.965971,46.4732305 32.4439655,45.0369782 C31.792196,43.2969601 31.3085299,41.332804 29.8221416,40.2150635 C29.2883394,39.8139746 28.6424682,39.5514973 28.1204628,39.1504083 C26.9407895,38.2479583 26.3509528,36.7586207 25.9262704,35.331216 C25.3806715,33.5322142 24.9500907,31.6830762 24.1567604,29.9843466 C23.3634301,28.2856171 22.1188748,26.7048548 20.4024501,25.9292196 C18.7980944,25.2066697 16.9460073,25.2538566 15.2856171,24.6669691 C12.4249093,23.6583485 10.3103448,21.2547641 7.47028131,20.1222777 C6.56102761,19.7391205 5.69907019,19.2522283 4.90154265,18.6712795 C3.50362976,17.7068966 3.13203267,17.1612976 2.92558984,15.4596189 C2.63067151,12.9056261 0.0353901996,10.6789927 0.439428312,8.27245917 C0.373655197,8.40264763 0.315555322,8.53657277 0.265426497,8.67354809 C-0.619328494,11.2688294 2.32985481,13.6193285 2.62477314,16.3414247 C2.81647005,18.0431034 3.2146098,18.5887024 4.60072595,19.5530853 C5.3982535,20.1340341 6.26021091,20.6209263 7.16946461,21.0040835 C10.0095281,22.1365699 12.1240926,24.5431034 14.9848004,25.548775 C16.6451906,26.1386116 18.4972777,26.0884755 20.1016334,26.8110254 C21.8180581,27.5866606 23.0508167,29.1703721 23.8559437,30.8661525 C24.6610708,32.5619328 25.0916515,34.4051724 25.6254537,36.2130218 C26.0589837,37.6404265 26.628176,39.1297641 27.8196461,40.0322142 C28.3534483,40.4333031 28.9993194,40.6957804 29.5213249,41.0968693 C30.9959165,42.2146098 31.4913793,44.1787659 32.1431488,45.918784 C32.6799002,47.3491379 33.4319419,48.7647459 34.6676497,49.6612976 C35.9033575,50.5578494 37.7171053,50.7996824 38.9410163,49.8883848 C39.7225499,49.2985481 40.1206897,48.3990472 40.383167,47.4346642 C40.1498188,48.0566828 39.7498704,48.6025308 39.2270871,49.0124773 L39.2270871,49.0124773 Z" id="Path"></path>
                <path d="M45.2876588,40.1678766 C45.1748323,40.3794206 45.125666,40.6191064 45.146098,40.8579855 C45.8126134,40.2003176 47.3166969,40.5866606 47.8416515,39.740245 C47.9635225,39.5310546 48.0113166,39.2868888 47.977314,39.0471869 C47.2931034,39.6960073 45.78902,39.3096642 45.2876588,40.1678766 Z" id="Path"></path>
                <path d="M40.9553085,45.21098 C40.899274,45.5058984 40.8432396,45.821461 40.7724592,46.128176 C42.5773593,46.6914701 44.6624319,45.2434211 44.9573503,43.4149274 C44.2406987,44.8216878 42.4711887,45.7624773 40.9553085,45.21098 Z" id="Path"></path>
            </g>
            <path d="M252.966198,97.1490472 C252.966198,97.1490472 253.948276,99.1308984 251.049229,99.1721869 C248.150181,99.2134755 252.916062,112.042423 252.916062,112.042423 L257.735027,118.176724 L263.730717,114.932623 L264.075771,105.9848 L264.518149,100.578947 C264.518149,100.578947 258.914701,98.7593013 259.946915,96.3527677 C260.979129,93.9462341 252.966198,97.1490472 252.966198,97.1490472 Z" id="Path" fill="#FBBEBE"></path>
            <path d="M270.369328,149.455762 C270.369328,149.455762 273.908348,152.938748 278.037205,148.317377 L274.866833,144.952359 L270.855944,144.952359 L270.369328,149.455762 Z" id="Path" fill="#575A89"></path>
            <path d="M270.752722,144.952359 L270.266107,149.455762 C270.266107,149.455762 273.805127,152.938748 277.933984,148.317377" id="Path" fill="#000000" opacity="0.1"></path>
            <path d="M276.707123,145.565789 C276.707123,145.565789 278.131579,149.302405 279.163793,150.431942 C280.196007,151.561479 281.818058,159.376815 279.656307,158.49206 C277.494555,157.607305 273.365699,151.021779 273.117967,149.892241 C272.870236,148.762704 272.775862,145.565789 272.775862,145.565789 L276.707123,145.565789 Z" id="Path" fill="#FBBEBE"></path>
            <polygon id="Path" fill="#575A89" points="245.790835 164.735481 264.860254 165.472777 262.648367 157.40971 253.042877 157.215064"></polygon>
            <polygon id="Path" fill="#000000" opacity="0.1" points="248.442151 164.735481 267.514519 165.472777 265.302632 157.40971 255.694192 157.215064"></polygon>
            <path d="M252.031307,178.045145 C251.580082,178.885662 251.754083,181.793557 251.957577,183.943512 C252.087341,185.311933 252.228902,186.364791 252.228902,186.364791 C252.228902,186.364791 245.100726,188.576679 244.021325,186.65971 C243.747051,186.173094 243.611388,185.32078 243.564201,184.321007 C243.416742,181.371824 244.021325,177.122051 244.021325,177.122051 C244.021325,177.122051 243.726407,170.586661 243.578947,169.946688 C243.519964,169.690109 243.428539,168.876134 243.340064,167.994328 C243.210299,166.684891 243.086434,165.227995 243.086434,165.227995 L252.818739,160.066924 C252.818739,160.066924 252.818739,161.034256 252.801044,162.523593 C252.747958,167.200998 252.591652,177.012931 252.031307,178.045145 Z" id="Path" fill="#FBBEBE"></path>
            <path d="M252.228902,186.364791 C252.228902,186.364791 245.100726,188.576679 244.021325,186.65971 C243.747051,186.173094 243.611388,185.32078 243.564201,184.321007 C245.038793,184.096869 249.52745,183.477541 251.957577,183.943512 C252.087341,185.311933 252.228902,186.364791 252.228902,186.364791 Z" id="Path" fill="#000000" opacity="0.1"></path>
            <path d="M252.473684,223.524501 L252.361615,223.524501 C251.503403,223.556942 246.625454,223.524501 246.625454,223.524501 C246.554071,223.449826 246.487109,223.371047 246.424909,223.288566 C245.548239,222.190689 245.307876,220.714976 245.790835,219.395644 C246.67559,216.986162 246.772913,212.562387 246.772913,212.562387 C246.772913,212.562387 247.117967,211.432849 246.823049,210.792877 C246.528131,210.152904 246.722777,209.170826 246.722777,209.170826 C246.677498,208.782427 246.578235,208.402247 246.427858,208.041289 C246.183076,207.451452 246.477995,206.369102 246.477995,206.369102 C246.444246,205.320326 246.278778,204.279954 245.985481,203.272459 C245.543103,201.995463 242.299002,186.807169 243.086434,184.987523 C243.086434,184.987523 249.966878,183.807849 252.573956,184.692604 L252.228902,196.489338 C252.228902,196.489338 250.999093,200.028358 252.031307,200.963249 C253.063521,201.89814 252.081443,204.797187 252.081443,204.797187 C252.081443,204.797187 251.933984,205.336887 252.818739,207.156534 C253.703494,208.97618 252.818739,209.810799 252.818739,209.810799 L252.818739,213.299682 C252.818739,213.299682 252.131579,215.659029 252.916062,217.575998 C253.700544,219.492967 252.818739,223.462568 252.473684,223.524501 Z" id="Path" fill="#3F3D56"></path>
            <path d="M265.977995,178.045145 C265.52677,178.885662 265.700771,181.793557 265.904265,183.943512 C266.034029,185.311933 266.17559,186.364791 266.17559,186.364791 C266.17559,186.364791 259.047414,188.576679 257.968013,186.65971 C257.693739,186.173094 257.558076,185.32078 257.510889,184.321007 C257.36343,181.371824 257.968013,177.122051 257.968013,177.122051 C257.968013,177.122051 257.673094,170.586661 257.525635,169.946688 C257.446007,169.601633 257.307396,166.310345 257.198276,163.358212 C257.106851,160.83961 257.033122,158.56284 257.033122,158.56284 L266.765426,160.066924 C266.765426,160.066924 266.765426,164.346189 266.64451,168.743421 C266.538339,173.00794 266.340744,177.37863 265.977995,178.045145 Z" id="Path" fill="#FBBEBE"></path>
            <path d="M266.17559,186.364791 C266.17559,186.364791 259.047414,188.576679 257.968013,186.65971 C257.693739,186.173094 257.558076,185.32078 257.510889,184.321007 C258.985481,184.096869 263.474138,183.477541 265.904265,183.943512 C266.034029,185.311933 266.17559,186.364791 266.17559,186.364791 Z" id="Path" fill="#000000" opacity="0.1"></path>
            <path d="M266.420372,223.524501 L266.308303,223.524501 C265.450091,223.556942 260.572142,223.524501 260.572142,223.524501 C260.500759,223.449826 260.433797,223.371047 260.371597,223.288566 C259.494926,222.190689 259.254564,220.714976 259.737523,219.395644 C260.622278,216.974365 260.710753,212.55059 260.710753,212.55059 C260.710753,212.55059 261.055808,211.421053 260.760889,210.78108 C260.465971,210.141107 260.660617,209.159029 260.660617,209.159029 C260.615339,208.77063 260.516075,208.39045 260.365699,208.029492 C260.120917,207.439655 260.415835,206.357305 260.415835,206.357305 C260.382087,205.308529 260.216618,204.268157 259.923321,203.260662 C259.480944,201.983666 256.236842,186.795372 257.024274,184.975726 C257.024274,184.975726 263.904719,183.796053 266.511797,184.680808 L266.166742,196.477541 C266.166742,196.477541 264.936933,200.016561 265.969147,200.951452 C267.001361,201.886343 266.019283,204.78539 266.019283,204.78539 C266.019283,204.78539 265.871824,205.325091 266.756579,207.144737 C267.641334,208.964383 266.756579,209.799002 266.756579,209.799002 L266.756579,213.287886 C266.756579,213.287886 266.069419,215.647232 266.853902,217.564201 C267.638385,219.481171 266.765426,223.462568 266.420372,223.524501 Z" id="Path" fill="#3F3D56"></path>
            <circle id="Oval" fill="#000000" opacity="0.1" cx="256.800136" cy="92.5365245" r="6.93058076"></circle>
            <circle id="Oval" fill="#FBBEBE" cx="256.800136" cy="92.2416062" r="6.93058076"></circle>
            <path d="M243.086434,165.227995 L252.818739,160.066924 C252.818739,160.066924 252.818739,161.034256 252.801044,162.523593 C251.379537,163.372958 249.235481,164.649955 247.174002,165.856171 C246.053312,166.513838 244.959165,167.150862 244.021325,167.684664 C243.803416,167.802943 243.575433,167.901637 243.340064,167.979583 C243.210299,166.684891 243.086434,165.227995 243.086434,165.227995 Z" id="Path" fill="#000000" opacity="0.1"></path>
            <path d="M266.765426,160.055127 C266.765426,160.055127 266.765426,164.334392 266.64451,168.731624 L266.60912,168.731624 C265.881938,168.7575 265.153839,168.73484 264.429673,168.663793 C263.158575,168.528131 262.141107,168.191924 261.775408,167.525408 C261.035163,166.227768 258.961887,164.576225 257.210073,163.346416 C257.118648,160.827813 257.044918,158.551044 257.044918,158.551044 L266.765426,160.055127 Z" id="Path" fill="#000000" opacity="0.1"></path>
            <path d="M264.954628,122.573956 C264.707958,124.493663 264.660518,126.433735 264.813067,128.363203 C269.284029,132.049682 268.44941,139.814882 268.44941,139.814882 C268.44941,139.814882 271.891107,155.545826 271.153811,156.970281 C270.416515,158.394737 272.823049,167.144964 272.823049,167.144964 C270.771857,167.533699 268.695032,167.772233 266.60912,167.858666 C265.881938,167.884542 265.153839,167.861882 264.429673,167.790835 C263.158575,167.655172 262.141107,167.318966 261.775408,166.65245 C260.401089,164.245917 254.452586,160.65676 254.452586,160.65676 C254.452586,160.65676 250.68353,162.915835 247.174002,164.971416 C246.053312,165.629083 244.959165,166.266107 244.021325,166.799909 C243.260201,167.203583 242.419324,167.434195 241.558757,167.475272 C237.385662,167.784936 231.826452,165.17196 232.711207,164.245917 C233.793557,163.11343 239.152223,143.256579 239.152223,143.256579 C239.152223,143.256579 241.853675,130.967332 244.213022,129.247958 C244.626636,128.935512 244.935254,128.504476 245.097777,128.01225 C245.905853,125.767922 244.555127,122.169918 244.555127,122.169918 C244.555127,122.169918 236.937387,112.782668 237.279492,112.240018 C237.621597,111.697368 237.624546,108.80127 237.624546,108.80127 C237.624546,108.80127 238.559437,104.230036 239.099138,102.018149 C239.638838,99.8062613 243.522913,99.2636116 244.65245,99.4612069 C245.781987,99.6588022 248.33598,100.345962 249.415381,99.4612069 C250.494782,98.5764519 252.317377,99.8062613 252.317377,99.8062613 L256.794238,101.03902 L260.819873,98.6796733 C260.819873,98.6796733 264.854356,98.8861162 265.19941,99.4258167 C265.544465,99.9655172 270.852995,101.000681 270.852995,101.000681 C273.554446,102.817377 273.457123,111.470281 273.457123,111.470281 C273.457123,111.470281 266.96892,117.120917 265.641788,120.022913 C265.298052,120.838145 265.066877,121.69637 264.954628,122.573956 L264.954628,122.573956 Z" id="Path" fill="#575A89"></path>
            <path d="M271.98843,110.272913 L273.463022,111.452586 L274.98775,125.166289 L276.509528,138.930127 C276.509528,138.930127 277.099365,140.307396 277.591878,140.159936 C278.084392,140.012477 278.034256,148.317377 278.034256,148.317377 C278.034256,148.317377 272.389519,144.846189 270.366379,149.455762 L268.791515,138.34029 C268.791515,138.34029 266.774274,126.985935 266.82441,126.10118 C266.874546,125.216425 265.792196,115.631579 265.792196,115.631579 L271.98843,110.272913 Z" id="Path" fill="#575A89"></path>
            <path d="M238.36774,110.912886 L237.28539,112.240018 C237.28539,112.240018 237.385662,117.940789 236.548094,119.318058 C235.710526,120.695327 238.860254,128.755445 240.039927,128.262931 C241.219601,127.770417 243.873866,115.189201 243.873866,115.041742 C243.873866,114.894283 238.36774,110.912886 238.36774,110.912886 Z" id="Path" fill="#575A89"></path>
            <path d="M238.270417,119.02314 C238.270417,119.02314 234.828721,122.512024 235.073503,124.184211 C235.318285,125.856397 238.612523,131.108893 243.331216,128.286525 C243.331216,128.286525 247.707804,120.055354 238.270417,119.02314 Z" id="Path" fill="#575A89"></path>
            <path d="M252.361615,223.533348 C251.503403,223.565789 246.625454,223.533348 246.625454,223.533348 C246.554071,223.458673 246.487109,223.379894 246.424909,223.297414 C247.672414,222.872731 250.367967,222.235708 252.361615,223.533348 Z" id="Path" fill="#000000" opacity="0.1"></path>
            <path d="M266.314201,223.533348 C265.455989,223.565789 260.57804,223.533348 260.57804,223.533348 C260.506657,223.458673 260.439695,223.379894 260.377495,223.297414 C261.619102,222.872731 264.314655,222.235708 266.314201,223.533348 Z" id="Path" fill="#000000" opacity="0.1"></path>
            <path d="M247.522005,137.083938 C246.769964,144.297641 247.017695,158.612976 247.174002,164.971416 C246.053312,165.629083 244.959165,166.266107 244.021325,166.799909 C243.260201,167.203583 242.419324,167.434195 241.558757,167.475272 C241.246143,165.552405 245.575544,145.801724 247.522005,137.083938 Z" id="Path" fill="#000000" opacity="0.1"></path>
            <path d="M248.442151,132.990472 C248.421506,133.093693 248.064655,134.662659 247.522005,137.083938 C247.734347,135.016561 248.029265,133.533122 248.442151,132.990472 Z" id="Path" fill="#000000" opacity="0.1"></path>
            <path d="M260.415835,132.211887 C260.415835,132.211887 264.594828,158.459619 252.220054,161.703721 C252.217105,161.691924 260.781534,160.391334 260.415835,132.211887 Z" id="Path" fill="#000000" opacity="0.1"></path>
            <path d="M266.60912,167.858666 C265.881938,167.884542 265.153839,167.861882 264.429673,167.790835 L261.091198,131.902223 C263.220508,133.294238 265.768603,158.763385 266.60912,167.858666 Z" id="Path" fill="#000000" opacity="0.1"></path>
            <path d="M251.639065,88.1658348 C251.860589,88.148228 252.083466,88.1712153 252.296733,88.2336661 C252.609739,88.3896547 252.891595,88.6015461 253.128403,88.8588929 C253.910143,89.5122231 254.972643,89.7182635 255.941924,89.4044918 C256.278244,89.254167 256.635077,89.1547705 257.000681,89.1095735 C257.563975,89.1095735 258.05059,89.5224592 258.342559,89.9943285 C258.634528,90.4661978 258.784936,91.0265426 259.035617,91.530853 C259.286298,92.0351633 259.687387,92.512931 260.238884,92.6367967 C260.503328,92.6470719 260.763466,92.7071036 261.005672,92.8137477 C261.154133,92.9343528 261.268083,93.0920518 261.33598,93.2708711 C261.796053,94.2647459 262.161751,95.4385209 263.143829,95.9251361 C263.505067,96.0925613 263.898817,96.178159 264.29696,96.1758167 C264.701793,96.2055353 265.107573,96.1324949 265.476633,95.9634755 C265.839672,95.7607258 266.139708,95.4617103 266.343693,95.0993648 C266.957123,94.0848457 267.027904,92.8284936 266.883394,91.6517695 C266.703312,90.1673224 266.174794,88.7464878 265.340971,87.5052178 C263.552687,84.9493569 260.527523,83.5533874 257.422414,83.8511797 C256.890015,83.9110565 256.362683,84.0096233 255.844601,84.146098 C253.96892,84.6474592 252.12863,85.5852995 250.990245,87.1572142 C250.714971,87.5495906 250.412423,87.922108 250.084846,88.2720054 C250.600953,88.2218693 251.120009,88.1776316 251.639065,88.1658348 Z" id="Path" fill="#000000" opacity="0.1"></path>
            <path d="M251.639065,87.8709165 C251.860589,87.8533097 252.083466,87.876297 252.296733,87.9387477 C252.609739,88.0947363 252.891595,88.3066277 253.128403,88.5639746 C253.910143,89.2173048 254.972643,89.4233451 255.941924,89.1095735 C256.278244,88.9592487 256.635077,88.8598522 257.000681,88.8146552 C257.563975,88.8146552 258.05059,89.2275408 258.342559,89.6994102 C258.634528,90.1712795 258.784936,90.7316243 259.035617,91.2359347 C259.286298,91.740245 259.687387,92.2180127 260.238884,92.3418784 C260.503328,92.3521535 260.763466,92.4121853 261.005672,92.5188294 C261.154133,92.6394344 261.268083,92.7971335 261.33598,92.9759528 C261.796053,93.9698276 262.161751,95.1436025 263.143829,95.6302178 C263.505067,95.797643 263.898817,95.8832407 264.29696,95.8808984 C264.701793,95.910617 265.107573,95.8375766 265.476633,95.6685572 C265.839672,95.4658075 266.139708,95.166792 266.343693,94.8044465 C266.957123,93.7899274 267.027904,92.5335753 266.883394,91.3568512 C266.703312,89.872404 266.174794,88.4515695 265.340971,87.2102995 C263.552687,84.6544386 260.527523,83.2584691 257.422414,83.5562613 C256.890015,83.6161382 256.362683,83.7147049 255.844601,83.8511797 C253.96892,84.3525408 252.12863,85.2903811 250.990245,86.8622958 C250.714971,87.2546723 250.412423,87.6271896 250.084846,87.9770871 C250.600953,87.926951 251.120009,87.8827132 251.639065,87.8709165 Z" id="Path" fill="#3F3D56"></path>
            <path d="M244.118648,104.374546 C244.118648,104.374546 244.463702,107.129083 243.284029,107.816243 C242.104356,108.503403 244.118648,104.374546 244.118648,104.374546 Z" id="Path" fill="#000000" opacity="0.1"></path>
            <path d="M269.13657,125.708938 C269.13657,125.708938 271.938294,121.580082 272.333485,122.759755 C272.728675,123.939428 269.13657,125.708938 269.13657,125.708938 Z" id="Path" fill="#000000" opacity="0.1"></path>
            <path d="M269.334165,127.083258 C269.334165,127.083258 272.09755,123.691697 272.362976,125.018829 C272.628403,126.345962 269.334165,127.083258 269.334165,127.083258 Z" id="Path" fill="#000000" opacity="0.1"></path>
            <path d="M261.218013,123.045826 C260.215836,123.060005 259.237781,122.73814 258.439882,122.131579 L258.198049,122.131579 C257.370541,122.887553 256.28393,123.29622 255.163339,123.272913 C253.985929,123.300223 252.84872,122.844061 252.016561,122.010662 L251.6951,122.010662 C249.941917,123.438597 247.414085,123.392478 245.714156,121.901543 L244.561025,121.880898 C244.561025,121.880898 245.911751,125.478902 245.103675,127.72323 L264.813067,128.074183 C264.660518,126.144715 264.707958,124.204643 264.954628,122.284936 L264.954628,122.258394 L263.872278,122.23775 C263.093646,122.777738 262.165454,123.060321 261.218013,123.045826 L261.218013,123.045826 Z" id="Path" fill="#000000" opacity="0.1"></path>
            <path d="M261.218013,123.635662 C260.215836,123.649841 259.237781,123.327976 258.439882,122.721416 L258.198049,122.721416 C257.370541,123.47739 256.28393,123.886057 255.163339,123.86275 C253.985929,123.89006 252.84872,123.433897 252.016561,122.600499 L251.6951,122.600499 C249.941917,124.028433 247.414085,123.982314 245.714156,122.491379 L244.561025,122.470735 C244.561025,122.470735 245.911751,126.068739 245.103675,128.313067 L264.813067,128.66402 C264.660518,126.734552 264.707958,124.794479 264.954628,122.874773 L264.954628,122.84823 L263.872278,122.827586 C263.093646,123.367575 262.165454,123.650158 261.218013,123.635662 L261.218013,123.635662 Z" id="Path" fill="#000000" opacity="0.1"></path>
            <path d="M261.218013,123.340744 C260.215836,123.354923 259.237781,123.033058 258.439882,122.426497 L258.198049,122.426497 C257.370541,123.182471 256.28393,123.591139 255.163339,123.567831 C253.985929,123.595142 252.84872,123.138979 252.016561,122.305581 L251.6951,122.305581 C249.941917,123.733515 247.414085,123.687396 245.714156,122.196461 L244.561025,122.175817 C244.561025,122.175817 245.911751,125.77382 245.103675,128.018149 L264.813067,128.369102 C264.660518,126.439634 264.707958,124.499561 264.954628,122.579855 L264.954628,122.553312 L263.872278,122.532668 C263.093646,123.072657 262.165454,123.35524 261.218013,123.340744 L261.218013,123.340744 Z" id="Path" fill="#3F3D56"></path>
            <path d="M260.342105,103.67559 C260.342105,103.67559 264.491606,103.941016 264.518149,104.530853 C264.544691,105.12069 260.342105,103.67559 260.342105,103.67559 Z" id="Path" fill="#000000" opacity="0.1"></path>
            <path d="M250.261797,101.159936 C250.261797,101.159936 246.112296,101.425363 246.085753,102.0152 C246.059211,102.605036 250.261797,101.159936 250.261797,101.159936 Z" id="Path" fill="#000000" opacity="0.1"></path>
            <path d="M266.119555,113.219147 C266.078267,113.189655 266.036978,113.166062 265.99569,113.139519 C267.057396,114.095054 266.880445,116.183076 265.576906,117.905399 C264.273367,119.627722 262.294465,120.344374 261.091198,119.571688 C261.129537,119.604129 261.161978,119.639519 261.203267,119.67196 C262.38294,120.57441 264.447368,119.866606 265.809891,118.085299 C267.172414,116.303993 267.305127,114.124546 266.119555,113.219147 Z" id="Path" fill="#000000" opacity="0.1"></path>
            <path d="M243.325318,117.684211 C242.275408,115.790835 242.411071,113.699864 243.599592,112.906534 C243.555354,112.927178 243.508167,112.944873 243.463929,112.968466 C242.16039,113.693966 241.989338,115.867514 243.068739,117.825771 C244.14814,119.784029 246.094601,120.774955 247.39814,120.061252 C247.441199,120.03648 247.482578,120.008895 247.522005,119.978675 C246.221416,120.568512 244.375227,119.577586 243.325318,117.684211 Z" id="Path" fill="#000000" opacity="0.1"></path>
            <path d="M244.729129,101.717332 L244.729129,101.717332 L244.348684,102.307169 L243.378403,101.791062 L243.888612,101.006579 C244.226012,101.166083 244.515787,101.411121 244.729129,101.717332 L244.729129,101.717332 Z" id="Path" fill="#000000" opacity="0.1"></path>
            <path d="M238.565336,123.544238 C238.565336,123.544238 239.429446,119.480263 238.270417,118.188521 C237.111388,116.896779 237.482985,110.125454 239.252495,110.272913 C241.022005,110.420372 243.67627,115.776089 243.233893,116.908575 C242.791515,118.041062 241.119328,123.839156 241.119328,123.839156 L238.565336,123.544238 Z" id="Path" fill="#FBBEBE"></path>
            <path d="M266.314201,94.2234574 C266.110216,94.5858029 265.81018,94.8848183 265.447142,95.0875681 C265.078081,95.2565875 264.672301,95.3296279 264.267468,95.2999093 C263.869325,95.3022516 263.475575,95.2166539 263.114338,95.0492287 C262.13226,94.5596642 261.766561,93.3858893 261.306488,92.3949637 C261.248267,92.2162075 261.14461,92.0556406 261.005672,91.9289927 C260.766808,91.8203764 260.509748,91.7573616 260.247731,91.7431942 C259.696234,91.6193285 259.298094,91.1386116 259.044465,90.6372505 C258.790835,90.1358893 258.640426,89.5814428 258.351407,89.100726 C258.062387,88.6200091 257.572822,88.1982759 257.009528,88.215971 C256.642877,88.2645687 256.285824,88.3689992 255.950771,88.5256352 C254.980888,88.8368772 253.919178,88.6298772 253.13725,87.9770871 C252.900443,87.7197403 252.618587,87.5078489 252.305581,87.3518603 C252.092314,87.2894095 251.869437,87.2664222 251.647913,87.284029 C251.308757,87.284029 250.97255,87.3164701 250.633394,87.3430127 C250.465426,87.5633052 250.285243,87.7740107 250.093693,87.9741379 C250.6098,87.9299002 251.128857,87.8856624 251.647913,87.8738657 C251.869437,87.8562589 252.092314,87.8792462 252.305581,87.9416969 C252.618587,88.0976855 252.900443,88.3095769 253.13725,88.5669238 C253.919178,89.2197138 254.980888,89.4267138 255.950771,89.1154719 C256.285824,88.9588359 256.642877,88.8544053 257.009528,88.8058076 C257.572822,88.8058076 258.059437,89.2186933 258.351407,89.6905626 C258.643376,90.1624319 258.793784,90.7227768 259.044465,91.2270871 C259.295145,91.7313975 259.696234,92.2091652 260.247731,92.3330309 C260.509748,92.3471983 260.766808,92.410213 261.005672,92.5188294 C261.154133,92.6394344 261.268083,92.7971335 261.33598,92.9759528 C261.796053,93.9698276 262.161751,95.1436025 263.143829,95.6302178 C263.505067,95.797643 263.898817,95.8832407 264.29696,95.8808984 C264.701793,95.910617 265.107573,95.8375766 265.476633,95.6685572 C265.839672,95.4658075 266.139708,95.166792 266.343693,94.8044465 C266.801563,93.9708112 267.006534,93.0217975 266.93353,92.0735027 C266.911105,92.8308229 266.698097,93.5702647 266.314201,94.2234574 L266.314201,94.2234574 Z" id="Path" fill="#000000" opacity="0.1"></path>
            <ellipse id="Oval" fill="#575A89" cx="239.871824" cy="124.968693" rx="2.65426497" ry="1.79900181"></ellipse>
            <circle id="Oval" fill="#F2B102" cx="153.354583" cy="134.125907" r="90.9823049"></circle>
            <path d="M201.093013,179.847096 C201.093013,194.209619 178.514065,181.073956 154.307169,181.073956 C130.100272,181.073956 105.616152,193.666969 105.616152,179.304446 C105.616152,171.114564 113.419691,159.724819 124.614791,151.452359 L124.614791,151.452359 C133.049456,145.217786 143.406987,140.752722 153.811706,140.752722 C164.511343,140.752722 174.99274,145.586434 183.353675,152.222096 C193.905853,160.588929 201.093013,171.831216 201.093013,179.847096 Z" id="Path" fill="#444053"></path>
            <path d="M183.350726,152.216198 C170.483439,150.278584 147.211434,147.916289 124.614791,151.446461 C133.049456,145.211887 143.406987,140.746824 153.811706,140.746824 C164.508394,140.746824 174.989791,145.580535 183.350726,152.216198 Z" id="Path" fill="#F6F8FB"></path>
            <path d="M105.616152,69.9015426 C105.616152,69.9015426 78.209392,87.4226407 78.4335299,114.829401 C78.6576679,142.236162 105.616152,69.9015426 105.616152,69.9015426 Z" id="Path" fill="#000000" opacity="0.05"></path>
            <path d="M244.301497,20.417196 C244.301497,20.417196 219.469374,18.9219601 222.397913,36.3221416 C222.397913,36.3221416 221.808076,39.3951906 224.603902,40.7931034 C224.603902,40.7931034 224.64814,39.5043103 227.149047,39.9407895 C228.040327,40.0899011 228.946075,40.1334562 229.84755,40.0705535 C231.065704,39.9877299 232.223471,39.5092967 233.144737,38.7080309 L233.144737,38.7080309 C233.144737,38.7080309 240.125454,35.8266788 242.841652,24.4162886 C242.841652,24.4162886 244.850045,21.9271779 244.770417,21.2901543 L240.579628,23.0773593 C240.579628,23.0773593 242.009982,26.1002722 240.874546,28.6129764 C240.874546,28.6129764 240.738884,23.1894283 239.933757,23.3044465 C239.771552,23.3309891 237.75726,24.3514065 237.75726,24.3514065 C237.75726,24.3514065 240.219828,29.6186479 238.347096,33.4437387 C238.347096,33.4437387 239.051951,26.9555354 236.972777,24.7318512 L234.023593,26.4541742 C234.023593,26.4541742 236.901996,31.8924682 234.949637,36.3309891 C234.949637,36.3309891 235.450998,29.524274 233.404265,26.8729583 L230.729356,28.9580309 C230.729356,28.9580309 233.433757,34.3196461 231.785163,38.0002269 C231.785163,38.0002269 231.569873,30.0757713 230.151316,29.4770871 C230.151316,29.4770871 227.812613,31.5415154 227.455762,32.387931 C227.455762,32.387931 229.307849,36.2779038 228.160617,38.3305354 C228.160617,38.3305354 227.455762,33.0514973 226.877722,33.0220054 C226.877722,33.0220054 224.547868,36.5197368 224.303085,38.9203721 C224.303085,38.9203721 224.406307,35.3518603 226.311479,32.6887477 C226.311479,32.6887477 224.058303,33.0750907 222.745917,34.5378857 C222.745917,34.5378857 223.108666,32.0635209 226.874773,31.8482305 C226.874773,31.8482305 228.80059,29.1939655 229.316697,29.0347096 C229.316697,29.0347096 225.556488,28.719147 223.27677,29.7307169 C223.27677,29.7307169 225.282214,27.3979129 230.003857,28.4566697 L232.658122,26.3037659 C232.658122,26.3037659 227.709392,25.6254537 225.609574,26.3745463 C225.609574,26.3745463 228.024955,24.310118 233.368875,25.8142015 L236.244328,24.0948276 C236.244328,24.0948276 232.024047,23.1864791 229.508394,23.5049909 C229.508394,23.5049909 232.162659,22.074637 237.084846,23.6259074 L239.149274,22.7028131 C239.149274,22.7028131 236.055581,22.0952813 235.150181,22.0009074 C234.244782,21.9065336 234.197595,21.6529038 234.197595,21.6529038 C236.162261,21.3334685 238.177065,21.5673205 240.016334,22.3282668 C240.016334,22.3282668 244.375227,20.6914701 244.301497,20.417196 Z" id="Path" fill="#54C41C"></path>
            <path d="M218.83235,12.6814882 C218.83235,12.6814882 207.625454,12.003176 208.934891,19.8656987 C208.934891,19.8656987 208.672414,21.2547641 209.931715,21.8858893 C209.931715,21.8858893 209.94941,21.2960526 211.081897,21.5024955 C211.484304,21.5687225 211.892986,21.5885134 212.299909,21.5614791 C212.850756,21.5221665 213.374169,21.3059742 213.792196,20.9450998 L213.792196,20.9450998 C213.792196,20.9450998 216.944873,19.6415608 218.171733,14.4863884 C218.171733,14.4863884 219.080082,13.3627495 219.056488,13.0737296 L217.163113,13.8818058 C217.163113,13.8818058 217.811933,15.2472777 217.301724,16.3827132 C217.301724,16.3827132 217.239791,13.9319419 216.877042,13.9909256 C216.803312,13.9909256 215.892015,14.4627949 215.892015,14.4627949 C215.892015,14.4627949 217.006806,16.8427858 216.166289,18.5710073 C216.166289,18.5710073 216.4848,15.6395191 215.54696,14.6338475 L214.213929,15.4124319 C214.213929,15.4124319 215.514519,17.8720508 214.632713,19.8774955 C214.632713,19.8774955 214.856851,16.8014973 213.933757,15.6041289 L212.724592,16.5449183 C212.724592,16.5449183 213.945554,18.9661978 213.202359,20.6295372 C213.202359,20.6295372 213.105036,17.0492287 212.462114,16.7779038 C212.462114,16.7779038 211.406307,17.7098457 211.244102,18.0932396 C211.244102,18.0932396 212.08167,19.8627495 211.562613,20.7799456 C211.562613,20.7799456 211.244102,18.3940563 210.972777,18.3852087 C210.972777,18.3852087 209.919918,19.9630218 209.810799,21.0394737 C209.861553,20.0377092 210.173702,19.06669 210.716198,18.2230036 C210.109396,18.3378085 209.54956,18.6279796 209.105944,19.0576225 C209.105944,19.0576225 209.268149,17.939882 210.975726,17.842559 C210.975726,17.842559 211.845735,16.6451906 212.078721,16.571461 C212.078721,16.571461 210.379991,16.4299002 209.350726,16.8870236 C209.350726,16.8870236 210.256125,15.831216 212.391334,16.2971869 L213.571007,15.3269056 C213.571007,15.3269056 211.335526,15.0319873 210.385889,15.3563975 C210.385889,15.3563975 211.477087,14.4244555 213.892468,15.1057169 L215.190109,14.3271325 C215.190109,14.3271325 213.284936,13.917196 212.146552,14.0646552 C212.146552,14.0646552 213.346869,13.418784 215.570554,14.1206897 L216.499546,13.7019056 C216.499546,13.7019056 215.101633,13.4276316 214.694646,13.386343 C214.287659,13.3450544 214.261116,13.2300363 214.261116,13.2300363 C215.146453,13.0827575 216.055311,13.1848764 216.885889,13.5249546 C216.885889,13.5249546 218.864791,12.8053539 218.83235,12.6814882 Z" id="Path" fill="#54C41C"></path>
            <ellipse id="Oval" fill="#54C41C" opacity="0.1" cx="316.768829" cy="213.951452" rx="7.94215064" ry="1.3418784"></ellipse>
            <ellipse id="Oval" fill="#54C41C" opacity="0.1" cx="14.0882486" cy="236.27382" rx="7.94215064" ry="1.3418784"></ellipse>
            <ellipse id="Oval" fill="#54C41C" opacity="0.1" cx="60.1928312" cy="237.957804" rx="7.94215064" ry="1.3418784"></ellipse>
            <ellipse id="Oval" fill="#54C41C" cx="299.386343" cy="228.33167" rx="11.8586661" ry="2.00544465"></ellipse>
            <path d="M304.287886,225.055127 C304.829153,224.613354 305.223971,224.018043 305.420372,223.34755 C305.564882,222.672187 305.275862,221.858212 304.629991,221.610481 C303.904492,221.333258 303.128857,221.837568 302.541969,222.344828 C301.955082,222.852087 301.279719,223.430127 300.509982,223.323956 C301.315243,222.594802 301.678106,221.496133 301.465517,220.430808 C301.431959,220.213825 301.340233,220.009991 301.200091,219.840971 C300.796053,219.41039 300.067604,219.59324 299.583938,219.932396 C298.050363,221.011797 297.622731,223.09392 297.613884,224.969601 C297.460526,224.294238 297.59029,223.589383 297.587341,222.905172 C297.584392,222.220962 297.392695,221.430581 296.808757,221.067831 C296.446375,220.874293 296.039737,220.778733 295.629083,220.790608 C294.938975,220.764065 294.172187,220.831897 293.700318,221.336207 C293.110481,221.964383 293.266788,223.014292 293.776996,223.695554 C294.287205,224.376815 295.059891,224.819192 295.770644,225.294011 C296.342648,225.634074 296.830562,226.098802 297.198049,226.653584 C297.24102,226.731677 297.276566,226.81363 297.30422,226.898367 L301.624773,226.898367 C302.591544,226.40687 303.487373,225.786833 304.287886,225.055127 L304.287886,225.055127 Z" id="Path" fill="#54C41C"></path>
            <path d="M17.7953721,200.326225 C17.7953721,200.326225 19.4144737,202.443739 17.0462795,205.634755 C14.6780853,208.825771 12.725726,211.533122 13.5072595,213.52677 C13.5072595,213.52677 17.0787205,207.587114 19.9954628,207.501588 C22.9122051,207.416062 20.9922868,203.897686 17.7953721,200.326225 Z" id="Path" fill="#54C41C"></path>
            <path d="M17.7953721,200.326225 C17.9359696,200.530876 18.0471564,200.754242 18.1256806,200.989791 C20.9627949,204.322368 22.4727768,207.433757 19.7477314,207.510436 C17.2055354,207.584165 14.1442831,212.125907 13.4276316,213.27314 C13.4526839,213.362066 13.4822133,213.449671 13.5161071,213.535617 C13.5161071,213.535617 17.0875681,207.595962 20.0043103,207.510436 C22.9210526,207.424909 20.9922868,203.897686 17.7953721,200.326225 Z" id="Path" fill="#000000" opacity="0.1"></path>
            <path d="M20.8064882,203.024728 C20.8064882,203.770871 20.7209619,204.375454 20.6177405,204.375454 C20.5145191,204.375454 20.4319419,203.785617 20.4319419,203.024728 C20.4319419,202.263838 20.5351633,202.629537 20.6413339,202.629537 C20.7475045,202.629537 20.8064882,202.278584 20.8064882,203.024728 Z" id="Path" fill="#FFD037"></path>
            <path d="M21.8269056,203.915381 C21.1721869,204.272232 20.6029946,204.487523 20.5528584,204.396098 C20.5027223,204.304673 20.9952359,203.944873 21.6499546,203.588022 C22.3046733,203.231171 22.0451452,203.490699 22.0952813,203.588022 C22.1454174,203.685345 22.4934211,203.55853 21.8269056,203.915381 Z" id="Path" fill="#FFD037"></path>
            <path d="M9.23684211,200.326225 C9.23684211,200.326225 7.61774047,202.443739 9.98298548,205.634755 C12.3482305,208.825771 14.303539,211.533122 13.5220054,213.52677 C13.5220054,213.52677 9.94759528,207.587114 7.03380218,207.501588 C4.12000907,207.416062 6.03697822,203.897686 9.23684211,200.326225 Z" id="Path" fill="#54C41C"></path>
            <path d="M9.23684211,200.326225 C9.09494784,200.53011 8.98366513,200.753669 8.90653358,200.989791 C6.06941924,204.322368 4.5564882,207.433757 7.28448276,207.510436 C9.82372958,207.584165 12.887931,212.125907 13.6016334,213.27314 C13.5775775,213.362021 13.5490321,213.449626 13.5161071,213.535617 C13.5161071,213.535617 9.94169691,207.595962 7.02790381,207.510436 C4.11411071,207.424909 6.03697822,203.897686 9.23684211,200.326225 Z" id="Path" fill="#000000" opacity="0.1"></path>
            <path d="M6.22572595,203.024728 C6.22572595,203.770871 6.30830309,204.375454 6.4115245,204.375454 C6.51474592,204.375454 6.59732305,203.785617 6.59732305,203.024728 C6.59732305,202.263838 6.49410163,202.629537 6.39088022,202.629537 C6.2876588,202.629537 6.22572595,202.278584 6.22572595,203.024728 Z" id="Path" fill="#FFD037"></path>
            <path d="M5.19056261,203.915381 C5.84528131,204.272232 6.41742287,204.487523 6.46755898,204.396098 C6.5176951,204.304673 6.02518149,203.944873 5.37046279,203.588022 C4.7157441,203.231171 4.97232305,203.490699 4.92513612,203.588022 C4.87794918,203.685345 4.53584392,203.55853 5.19056261,203.915381 Z" id="Path" fill="#FFD037"></path>
            <path d="M6.74183303,213.258394 C6.74183303,213.258394 11.2717786,213.119782 12.6401996,212.146552 C14.0086207,211.173321 19.6091198,210.014292 19.9482759,211.556715 C20.2874319,213.099138 26.7549909,219.313067 21.6411071,219.354356 C16.5272232,219.395644 9.75884755,218.555127 8.39632486,217.726407 C7.03380218,216.897686 6.74183303,213.258394 6.74183303,213.258394 Z" id="Path" fill="#A8A8A8"></path>
            <path d="M21.7266334,218.826452 C16.6127495,218.86774 9.84437387,218.027223 8.48185118,217.198503 C7.44373866,216.567377 7.03085299,214.299456 6.89224138,213.252495 L6.74183303,213.252495 C6.74183303,213.252495 7.03675136,216.906534 8.3904265,217.735254 C9.74410163,218.563975 16.5213249,219.404492 21.6352087,219.363203 C23.1098004,219.363203 23.6200091,218.823503 23.5934664,218.047868 C23.3870236,218.522686 22.8266788,218.817604 21.7266334,218.826452 Z" id="Path" fill="#000000" opacity="0.2"></path>
            <path d="M121.00794,122.196461 C122.739111,122.099138 130.887704,121.485708 136.063521,118.533575 C136.894775,118.044536 137.833786,117.767998 138.797414,117.728448 C140.443058,117.681261 142.336434,118.368421 141.124319,122.214156 C139.160163,128.504764 127.755672,135.582804 120.677632,135.190563 C113.870917,134.813067 105.796053,132.070327 100.463929,122.426497 C99.953045,121.498679 99.7014204,120.450413 99.7354809,119.391788 C99.7974138,117.445327 100.505218,115.006352 104.159256,117.725499 C109.096189,121.397232 118.462795,122.09324 120.341425,122.196461 C120.563437,122.208362 120.785928,122.208362 121.00794,122.196461 L121.00794,122.196461 Z" id="Path" fill="#444053"></path>
            <path d="M186.479809,122.196461 C188.21098,122.099138 196.359574,121.485708 201.53539,118.533575 C202.366644,118.044536 203.305655,117.767998 204.269283,117.728448 C205.914927,117.681261 207.808303,118.368421 206.596189,122.214156 C204.632033,128.504764 193.227541,135.582804 186.149501,135.190563 C179.342786,134.813067 171.267922,132.070327 165.935799,122.426497 C165.424914,121.498679 165.17329,120.450413 165.20735,119.391788 C165.269283,117.445327 165.977087,115.006352 169.631125,117.725499 C174.568058,121.397232 183.934664,122.09324 185.813294,122.196461 C186.035306,122.208362 186.257797,122.208362 186.479809,122.196461 L186.479809,122.196461 Z" id="Path" fill="#444053"></path>
        </g>
    </g>
</svg>