<?xml version="1.0" encoding="UTF-8"?>
<svg width="453px" height="300px" viewBox="0 0 453 300" version="1.1" xmlns="http://www.w3.org/2000/svg" xmlns:xlink="http://www.w3.org/1999/xlink">
    <!-- Generator: Sketch 61.2 (89653) - https://sketch.com -->
    <title>img-problem-5</title>
    <desc>Created with Sketch.</desc>
    <g id="img-problem-5" stroke="none" stroke-width="1" fill="none" fill-rule="evenodd">
        <g id="undraw_best_place_r685" transform="translate(7.000000, 50.000000)" fill-rule="nonzero">
            <path d="M55.6583086,196.998079 L54.905531,196.828532 C63.2991221,159.501194 84.3929241,125.604707 114.301168,101.382802 C160.269308,64.2124784 222.151381,53.3634987 278.022561,72.6796581 C333.893741,91.9958174 375.861406,138.748426 389.056408,196.373027 L388.304383,196.544079 C370.536453,118.530179 302.163242,64.0441758 222.03267,64.0441758 C142.952144,64.0441758 72.9816293,119.959251 55.6583086,196.998079 Z" id="Path" fill="#3F3D56"></path>
            <circle id="Oval" fill="#FF6584" cx="347.086003" cy="84.8403073" r="20.9552389"></circle>
            <rect id="Rectangle" fill="#3F3D56" x="338.353869" y="168.620074" width="1" height="30.4788547"></rect>
            <path d="M346.24663,172.504268 C346.295751,183.161964 338.797498,191.836477 338.797498,191.836477 C338.797498,191.836477 331.219606,183.231448 331.170485,172.573752 C331.121364,161.916057 338.619617,153.241543 338.619617,153.241543 C338.619617,153.241543 346.197509,161.846557 346.24663,172.504268 Z" id="Path" fill="#54C41C"></path>
            <path d="M346.24663,172.504268 C346.295751,183.161964 338.797498,191.836477 338.797498,191.836477 C338.797498,191.836477 331.219606,183.231448 331.170485,172.573752 C331.121364,161.916057 338.619617,153.241543 338.619617,153.241543 C338.619617,153.241543 346.197509,161.846557 346.24663,172.504268 Z" id="Path" fill="#000000" opacity="0.1"></path>
            <circle id="Oval" fill="#54C41C" opacity="0.4" cx="193.298309" cy="95.9667252" r="12.0556988"></circle>
            <circle id="Oval" fill="#54C41C" opacity="0.4" cx="170.986267" cy="101.724671" r="8.45698326"></circle>
            <circle id="Oval" fill="#54C41C" opacity="0.4" cx="80.3213194" cy="126.030593" r="8.45698326"></circle>
            <circle id="Oval" fill="#54C41C" opacity="0.4" cx="330.372352" cy="94.9749432" r="12.0556988"></circle>
            <path d="M21.8485471,195.709912 C22.5021064,198.125781 24.7406046,199.622008 24.7406046,199.622008 C24.7406046,199.622008 25.9195267,197.201315 25.2659868,194.785445 C24.6124468,192.369576 22.3739331,190.873349 22.3739331,190.873349 C22.3739331,190.873349 21.195011,193.294038 21.8485471,195.709912 Z" id="Path" fill="#3F3D56"></path>
            <path d="M22.808878,195.190714 C24.6021959,196.936439 24.821254,199.620025 24.821254,199.620025 C24.821254,199.620025 22.1327489,199.473228 20.3394271,197.727504 C18.5461053,195.981779 18.3270511,193.298197 18.3270511,193.298197 C18.3270511,193.298197 21.0155562,193.444989 22.808878,195.190714 Z" id="Path" fill="#54C41C"></path>
            <path d="M257.963219,195.709912 C258.616759,198.125781 260.855277,199.622008 260.855277,199.622008 C260.855277,199.622008 262.034199,197.201315 261.380659,194.785445 C260.727119,192.369576 258.488605,190.873349 258.488605,190.873349 C258.488605,190.873349 257.309683,193.294038 257.963219,195.709912 Z" id="Path" fill="#3F3D56"></path>
            <path d="M258.92355,195.190714 C260.716868,196.936439 260.935926,199.620025 260.935926,199.620025 C260.935926,199.620025 258.247421,199.473228 256.454099,197.727504 C254.660778,195.981779 254.441723,193.298197 254.441723,193.298197 C254.441723,193.298197 257.130228,193.444989 258.92355,195.190714 Z" id="Path" fill="#54C41C"></path>
            <polygon id="Path" fill="#3F3D56" points="26.2878193 177.550132 24.6917304 174.889983 39.5893317 162.120501 77.8977798 162.120501 77.8977798 165.844708 64.0642378 180.742695 48.1021915 183.934873"></polygon>
            <polygon id="Path" fill="#CCCCCC" points="84.4920151 169.614055 84.4920151 161.28947 79.4765073 161.28947 79.4765073 163.914509 77.8977798 162.120501 65.1282971 174.889983 62.9997928 177.018102 60.3396446 187.659466 65.1282971 199.364504 89.6028174 199.364504 89.6028174 175.422013"></polygon>
            <rect id="Rectangle" fill="#F2F2F2" x="24.6917304" y="174.889872" width="40.4364818" height="24.4747133"></rect>
            <rect id="Rectangle" fill="#3F3D56" x="51.0286516" y="182.604726" width="8.51294475" height="7.44882762"></rect>
            <rect id="Rectangle" fill="#CCCCCC" x="40.1214423" y="182.338695" width="7.44882762" height="17.0258856"></rect>
            <polygon id="Path" fill="#3F3D56" points="31.6085014 184.998932 31.6085014 182.338784 28.4163236 182.338784 28.4163236 184.998932 31.3422937 184.998932"></polygon>
            <polygon id="Path" fill="#3F3D56" points="31.3422937 187.127051 28.4163236 187.127051 28.4163236 189.787585 31.6085014 189.787585 31.6085014 187.127051"></polygon>
            <rect id="Rectangle" fill="#3F3D56" x="33.7367318" y="182.338695" width="3.19235525" height="2.66029475"></rect>
            <rect id="Rectangle" fill="#3F3D56" x="33.7367318" y="187.127228" width="3.19235525" height="2.66029475"></rect>
            <polygon id="Path" fill="#3F3D56" points="76.5675128 185.26514 76.5675128 182.604606 73.3749492 182.604606 73.3749492 185.26514 76.3013051 185.26514"></polygon>
            <polygon id="Path" fill="#3F3D56" points="76.3013051 187.393258 73.3749492 187.393258 73.3749492 190.053407 76.5675128 190.053407 76.5675128 187.393258"></polygon>
            <rect id="Rectangle" fill="#3F3D56" x="78.6957162" y="182.604726" width="3.19235525" height="2.66029475"></rect>
            <rect id="Rectangle" fill="#3F3D56" x="78.6957162" y="187.393258" width="3.19235525" height="2.66029475"></rect>
            <polygon id="Path" fill="#3F3D56" points="180.225326 177.550132 178.629237 174.889983 193.526839 162.120501 231.835287 162.120501 231.835287 165.844708 218.001745 180.742695 202.039698 183.934873"></polygon>
            <polygon id="Path" fill="#CCCCCC" points="238.429522 169.614055 238.429522 161.28947 233.414014 161.28947 233.414014 163.914509 231.835287 162.120501 219.065804 174.889983 216.9373 177.018102 214.277152 187.659466 219.065804 199.364504 243.540324 199.364504 243.540324 175.422013"></polygon>
            <rect id="Rectangle" fill="#F2F2F2" x="178.629237" y="174.889872" width="40.4364818" height="24.4747133"></rect>
            <rect id="Rectangle" fill="#3F3D56" x="204.966158" y="182.604726" width="8.51294475" height="7.44882762"></rect>
            <rect id="Rectangle" fill="#CCCCCC" x="194.058949" y="182.338695" width="7.44882762" height="17.0258856"></rect>
            <polygon id="Path" fill="#3F3D56" points="185.546008 184.998932 185.546008 182.338784 182.353831 182.338784 182.353831 184.998932 185.279801 184.998932"></polygon>
            <polygon id="Path" fill="#3F3D56" points="185.279801 187.127051 182.353831 187.127051 182.353831 189.787585 185.546008 189.787585 185.546008 187.127051"></polygon>
            <rect id="Rectangle" fill="#3F3D56" x="187.674239" y="182.338695" width="3.19235525" height="2.66029475"></rect>
            <rect id="Rectangle" fill="#3F3D56" x="187.674239" y="187.127228" width="3.19235525" height="2.66029475"></rect>
            <polygon id="Path" fill="#3F3D56" points="230.50502 185.26514 230.50502 182.604606 227.312456 182.604606 227.312456 185.26514 230.238812 185.26514"></polygon>
            <polygon id="Path" fill="#3F3D56" points="230.238812 187.393258 227.312456 187.393258 227.312456 190.053407 230.50502 190.053407 230.50502 187.393258"></polygon>
            <rect id="Rectangle" fill="#3F3D56" x="232.633223" y="182.604726" width="3.19235525" height="2.66029475"></rect>
            <rect id="Rectangle" fill="#3F3D56" x="232.633223" y="187.393258" width="3.19235525" height="2.66029475"></rect>
            <polygon id="Path" fill="#3F3D56" points="108.225012 132.857328 105.564864 130.728824 120.462465 117.427311 158.238498 117.427311 158.238498 129.132735 133.763977 145.626811"></polygon>
            <polygon id="Path" fill="#CCCCCC" points="165.125947 124.888843 165.125947 117.693133 160.110439 117.693133 160.110439 119.455505 158.238498 117.427311 146.001045 130.728824 141.212778 133.921387 133.787897 188.16719 144.985211 199.364504 171.00798 199.364504 171.00798 131.260853"></polygon>
            <rect id="Rectangle" fill="#F2F2F2" x="105.564698" y="130.728974" width="40.4364818" height="68.6356108"></rect>
            <rect id="Rectangle" fill="#CCCCCC" x="121.260436" y="182.604726" width="7.44882762" height="16.7598593"></rect>
            <polygon id="Path" fill="#3F3D56" points="113.279486 187.393258 113.279486 184.73311 110.087308 184.73311 110.087308 187.393258 113.013664 187.393258"></polygon>
            <polygon id="Path" fill="#3F3D56" points="113.013664 189.521377 110.087308 189.521377 110.087308 192.181911 113.279486 192.181911 113.279486 189.521377"></polygon>
            <rect id="Rectangle" fill="#3F3D56" x="115.407786" y="184.732964" width="3.19235525" height="2.66029475"></rect>
            <rect id="Rectangle" fill="#3F3D56" x="115.407786" y="189.521493" width="3.19235525" height="2.66029475"></rect>
            <polygon id="Path" fill="#3F3D56" points="135.093858 187.393258 135.093858 184.73311 131.901681 184.73311 131.901681 187.393258 134.828037 187.393258"></polygon>
            <polygon id="Path" fill="#3F3D56" points="134.828037 189.521377 131.901681 189.521377 131.901681 192.181911 135.093858 192.181911 135.093858 189.521377"></polygon>
            <rect id="Rectangle" fill="#3F3D56" x="137.222205" y="184.732964" width="3.19235525" height="2.66029475"></rect>
            <rect id="Rectangle" fill="#3F3D56" x="137.222205" y="189.521493" width="3.19235525" height="2.66029475"></rect>
            <polygon id="Path" fill="#3F3D56" points="157.44026 134.187209 157.44026 131.527061 154.248083 131.527061 154.248083 134.187209 157.174438 134.187209"></polygon>
            <polygon id="Path" fill="#3F3D56" points="157.174438 136.315713 154.248083 136.315713 154.248083 138.975861 157.44026 138.975861 157.44026 136.315713"></polygon>
            <rect id="Rectangle" fill="#3F3D56" x="159.568684" y="131.527065" width="3.19235525" height="2.66029475"></rect>
            <rect id="Rectangle" fill="#3F3D56" x="159.568684" y="136.315594" width="3.19235525" height="2.66029475"></rect>
            <polygon id="Path" fill="#3F3D56" points="157.44026 149.085196 157.44026 146.424662 154.248083 146.424662 154.248083 149.085196 157.174438 149.085196"></polygon>
            <polygon id="Path" fill="#3F3D56" points="157.174438 151.213315 154.248083 151.213315 154.248083 153.873463 157.44026 153.873463 157.44026 151.213315"></polygon>
            <rect id="Rectangle" fill="#3F3D56" x="159.568684" y="146.424716" width="3.19235525" height="2.66029475"></rect>
            <rect id="Rectangle" fill="#3F3D56" x="159.568684" y="151.213245" width="3.19235525" height="2.66029475"></rect>
            <polygon id="Path" fill="#3F3D56" points="157.44026 163.982797 157.44026 161.322263 154.248083 161.322263 154.248083 163.982797 157.174438 163.982797"></polygon>
            <polygon id="Path" fill="#3F3D56" points="157.174438 166.110916 154.248083 166.110916 154.248083 168.771064 157.44026 168.771064 157.44026 166.110916"></polygon>
            <rect id="Rectangle" fill="#3F3D56" x="159.568684" y="161.322367" width="3.19235525" height="2.66029475"></rect>
            <rect id="Rectangle" fill="#3F3D56" x="159.568684" y="166.110897" width="3.19235525" height="2.66029475"></rect>
            <polygon id="Path" fill="#3F3D56" points="157.44026 178.880399 157.44026 176.219865 154.248083 176.219865 154.248083 178.880399 157.174438 178.880399"></polygon>
            <polygon id="Path" fill="#3F3D56" points="157.174438 181.008517 154.248083 181.008517 154.248083 183.668665 157.44026 183.668665 157.44026 181.008517"></polygon>
            <rect id="Rectangle" fill="#3F3D56" x="159.568684" y="176.220019" width="3.19235525" height="2.66029475"></rect>
            <rect id="Rectangle" fill="#3F3D56" x="159.568684" y="181.008548" width="3.19235525" height="2.66029475"></rect>
            <rect id="Rectangle" fill="#3F3D56" x="110.087197" y="134.187359" width="30.8594199" height="6.38470663"></rect>
            <rect id="Rectangle" fill="#3F3D56" x="110.087197" y="146.956773" width="30.8594199" height="6.38470663"></rect>
            <rect id="Rectangle" fill="#3F3D56" x="110.087197" y="159.72619" width="30.8594199" height="6.38470663"></rect>
            <rect id="Rectangle" fill="#3F3D56" x="110.087197" y="172.495607" width="30.8594199" height="6.38470663"></rect>
            <polygon id="Path" fill="#3F3D56" points="263.705752 132.857328 261.045604 130.728824 275.943205 117.427311 313.719238 117.427311 313.719238 129.132735 289.244717 145.626811"></polygon>
            <polygon id="Path" fill="#CCCCCC" points="320.606687 124.888843 320.606687 117.693133 315.59118 117.693133 315.59118 119.455505 313.719238 117.427311 301.481785 130.728824 296.693518 133.921387 289.268637 188.16719 300.465951 199.364504 326.48872 199.364504 326.48872 131.260853"></polygon>
            <rect id="Rectangle" fill="#F2F2F2" x="261.045438" y="130.728974" width="40.4364818" height="68.6356108"></rect>
            <rect id="Rectangle" fill="#CCCCCC" x="276.741176" y="182.604726" width="7.44882762" height="16.7598593"></rect>
            <polygon id="Path" fill="#3F3D56" points="268.760226 187.393258 268.760226 184.73311 265.568049 184.73311 265.568049 187.393258 268.494404 187.393258"></polygon>
            <polygon id="Path" fill="#3F3D56" points="268.494404 189.521377 265.568049 189.521377 265.568049 192.181911 268.760226 192.181911 268.760226 189.521377"></polygon>
            <rect id="Rectangle" fill="#3F3D56" x="270.888526" y="184.732964" width="3.19235525" height="2.66029475"></rect>
            <rect id="Rectangle" fill="#3F3D56" x="270.888526" y="189.521493" width="3.19235525" height="2.66029475"></rect>
            <polygon id="Path" fill="#3F3D56" points="290.574599 187.393258 290.574599 184.73311 287.382421 184.73311 287.382421 187.393258 290.308777 187.393258"></polygon>
            <polygon id="Path" fill="#3F3D56" points="290.308777 189.521377 287.382421 189.521377 287.382421 192.181911 290.574599 192.181911 290.574599 189.521377"></polygon>
            <rect id="Rectangle" fill="#3F3D56" x="292.702945" y="184.732964" width="3.19235525" height="2.66029475"></rect>
            <rect id="Rectangle" fill="#3F3D56" x="292.702945" y="189.521493" width="3.19235525" height="2.66029475"></rect>
            <polygon id="Path" fill="#3F3D56" points="312.921 134.187209 312.921 131.527061 309.728823 131.527061 309.728823 134.187209 312.655178 134.187209"></polygon>
            <polygon id="Path" fill="#3F3D56" points="312.655178 136.315713 309.728823 136.315713 309.728823 138.975861 312.921 138.975861 312.921 136.315713"></polygon>
            <rect id="Rectangle" fill="#3F3D56" x="315.049424" y="131.527065" width="3.19235525" height="2.66029475"></rect>
            <rect id="Rectangle" fill="#3F3D56" x="315.049424" y="136.315594" width="3.19235525" height="2.66029475"></rect>
            <polygon id="Path" fill="#3F3D56" points="312.921 149.085196 312.921 146.424662 309.728823 146.424662 309.728823 149.085196 312.655178 149.085196"></polygon>
            <polygon id="Path" fill="#3F3D56" points="312.655178 151.213315 309.728823 151.213315 309.728823 153.873463 312.921 153.873463 312.921 151.213315"></polygon>
            <rect id="Rectangle" fill="#3F3D56" x="315.049424" y="146.424716" width="3.19235525" height="2.66029475"></rect>
            <rect id="Rectangle" fill="#3F3D56" x="315.049424" y="151.213245" width="3.19235525" height="2.66029475"></rect>
            <polygon id="Path" fill="#3F3D56" points="312.921 163.982797 312.921 161.322263 309.728823 161.322263 309.728823 163.982797 312.655178 163.982797"></polygon>
            <polygon id="Path" fill="#3F3D56" points="312.655178 166.110916 309.728823 166.110916 309.728823 168.771064 312.921 168.771064 312.921 166.110916"></polygon>
            <rect id="Rectangle" fill="#3F3D56" x="315.049424" y="161.322367" width="3.19235525" height="2.66029475"></rect>
            <rect id="Rectangle" fill="#3F3D56" x="315.049424" y="166.110897" width="3.19235525" height="2.66029475"></rect>
            <polygon id="Path" fill="#3F3D56" points="312.921 178.880399 312.921 176.219865 309.728823 176.219865 309.728823 178.880399 312.655178 178.880399"></polygon>
            <polygon id="Path" fill="#3F3D56" points="312.655178 181.008517 309.728823 181.008517 309.728823 183.668665 312.921 183.668665 312.921 181.008517"></polygon>
            <rect id="Rectangle" fill="#3F3D56" x="315.049424" y="176.220019" width="3.19235525" height="2.66029475"></rect>
            <rect id="Rectangle" fill="#3F3D56" x="315.049424" y="181.008548" width="3.19235525" height="2.66029475"></rect>
            <rect id="Rectangle" fill="#3F3D56" x="265.567937" y="134.187359" width="30.8594199" height="6.38470663"></rect>
            <rect id="Rectangle" fill="#3F3D56" x="265.567937" y="146.956773" width="30.8594199" height="6.38470663"></rect>
            <rect id="Rectangle" fill="#3F3D56" x="265.567937" y="159.72619" width="30.8594199" height="6.38470663"></rect>
            <rect id="Rectangle" fill="#3F3D56" x="265.567937" y="172.495607" width="30.8594199" height="6.38470663"></rect>
            <polygon id="Path" fill="#3F3D56" points="348.969384 132.857328 346.309235 130.728824 361.206837 117.427311 398.982869 117.427311 398.982869 129.132735 374.508349 145.626811"></polygon>
            <polygon id="Path" fill="#CCCCCC" points="405.870319 124.888843 405.870319 117.693133 400.854811 117.693133 400.854811 119.455505 398.982869 117.427311 386.745416 130.728824 381.95715 133.921387 374.532269 188.16719 385.729583 199.364504 411.752352 199.364504 411.752352 131.260853"></polygon>
            <rect id="Rectangle" fill="#F2F2F2" x="346.30907" y="130.728974" width="40.4364818" height="68.6356108"></rect>
            <rect id="Rectangle" fill="#CCCCCC" x="362.004808" y="182.604726" width="7.44882762" height="16.7598593"></rect>
            <polygon id="Path" fill="#3F3D56" points="354.023858 187.393258 354.023858 184.73311 350.83168 184.73311 350.83168 187.393258 353.758036 187.393258"></polygon>
            <polygon id="Path" fill="#3F3D56" points="353.758036 189.521377 350.83168 189.521377 350.83168 192.181911 354.023858 192.181911 354.023858 189.521377"></polygon>
            <rect id="Rectangle" fill="#3F3D56" x="356.152158" y="184.732964" width="3.19235525" height="2.66029475"></rect>
            <rect id="Rectangle" fill="#3F3D56" x="356.152158" y="189.521493" width="3.19235525" height="2.66029475"></rect>
            <polygon id="Path" fill="#3F3D56" points="375.83823 187.393258 375.83823 184.73311 372.646052 184.73311 372.646052 187.393258 375.572408 187.393258"></polygon>
            <polygon id="Path" fill="#3F3D56" points="375.572408 189.521377 372.646052 189.521377 372.646052 192.181911 375.83823 192.181911 375.83823 189.521377"></polygon>
            <rect id="Rectangle" fill="#3F3D56" x="377.966576" y="184.732964" width="3.19235525" height="2.66029475"></rect>
            <rect id="Rectangle" fill="#3F3D56" x="377.966576" y="189.521493" width="3.19235525" height="2.66029475"></rect>
            <polygon id="Path" fill="#3F3D56" points="398.184632 134.187209 398.184632 131.527061 394.992454 131.527061 394.992454 134.187209 397.91881 134.187209"></polygon>
            <polygon id="Path" fill="#3F3D56" points="397.91881 136.315713 394.992454 136.315713 394.992454 138.975861 398.184632 138.975861 398.184632 136.315713"></polygon>
            <rect id="Rectangle" fill="#3F3D56" x="400.313055" y="131.527065" width="3.19235525" height="2.66029475"></rect>
            <rect id="Rectangle" fill="#3F3D56" x="400.313055" y="136.315594" width="3.19235525" height="2.66029475"></rect>
            <polygon id="Path" fill="#3F3D56" points="398.184632 149.085196 398.184632 146.424662 394.992454 146.424662 394.992454 149.085196 397.91881 149.085196"></polygon>
            <polygon id="Path" fill="#3F3D56" points="397.91881 151.213315 394.992454 151.213315 394.992454 153.873463 398.184632 153.873463 398.184632 151.213315"></polygon>
            <rect id="Rectangle" fill="#3F3D56" x="400.313055" y="146.424716" width="3.19235525" height="2.66029475"></rect>
            <rect id="Rectangle" fill="#3F3D56" x="400.313055" y="151.213245" width="3.19235525" height="2.66029475"></rect>
            <polygon id="Path" fill="#3F3D56" points="398.184632 163.982797 398.184632 161.322263 394.992454 161.322263 394.992454 163.982797 397.91881 163.982797"></polygon>
            <polygon id="Path" fill="#3F3D56" points="397.91881 166.110916 394.992454 166.110916 394.992454 168.771064 398.184632 168.771064 398.184632 166.110916"></polygon>
            <rect id="Rectangle" fill="#3F3D56" x="400.313055" y="161.322367" width="3.19235525" height="2.66029475"></rect>
            <rect id="Rectangle" fill="#3F3D56" x="400.313055" y="166.110897" width="3.19235525" height="2.66029475"></rect>
            <polygon id="Path" fill="#3F3D56" points="398.184632 178.880399 398.184632 176.219865 394.992454 176.219865 394.992454 178.880399 397.91881 178.880399"></polygon>
            <polygon id="Path" fill="#3F3D56" points="397.91881 181.008517 394.992454 181.008517 394.992454 183.668665 398.184632 183.668665 398.184632 181.008517"></polygon>
            <rect id="Rectangle" fill="#3F3D56" x="400.313055" y="176.220019" width="3.19235525" height="2.66029475"></rect>
            <rect id="Rectangle" fill="#3F3D56" x="400.313055" y="181.008548" width="3.19235525" height="2.66029475"></rect>
            <rect id="Rectangle" fill="#3F3D56" x="350.831568" y="134.187359" width="30.8594199" height="6.38470663"></rect>
            <rect id="Rectangle" fill="#3F3D56" x="350.831568" y="146.956773" width="30.8594199" height="6.38470663"></rect>
            <rect id="Rectangle" fill="#3F3D56" x="350.831568" y="159.72619" width="30.8594199" height="6.38470663"></rect>
            <rect id="Rectangle" fill="#3F3D56" x="350.831568" y="172.495607" width="30.8594199" height="6.38470663"></rect>
            <rect id="Rectangle" fill="#3F3D56" x="0" y="199.098929" width="438.664023" height="1"></rect>
            <rect id="Rectangle" fill="#3F3D56" x="97.2236886" y="168.620074" width="1" height="30.4788547"></rect>
            <path d="M105.11645,172.504268 C105.165571,183.161964 97.6673179,191.836477 97.6673179,191.836477 C97.6673179,191.836477 90.0894259,183.231448 90.0403048,172.573752 C89.9911836,161.916057 97.4894372,153.241543 97.4894372,153.241543 C97.4894372,153.241543 105.067329,161.846557 105.11645,172.504268 Z" id="Path" fill="#54C41C"></path>
            <rect id="Rectangle" fill="#3F3D56" x="174.385346" y="168.620074" width="1" height="30.4788547"></rect>
            <path d="M182.278108,172.504268 C182.327229,183.161964 174.828976,191.836477 174.828976,191.836477 C174.828976,191.836477 167.251083,183.231448 167.201962,172.573752 C167.152841,161.916057 174.651095,153.241543 174.651095,153.241543 C174.651095,153.241543 182.228987,161.846557 182.278108,172.504268 Z" id="Path" fill="#54C41C"></path>
            <rect id="Rectangle" fill="#3F3D56" x="328.322853" y="168.620074" width="1" height="30.4788547"></rect>
            <path d="M336.215615,172.504268 C336.264736,183.161964 328.766482,191.836477 328.766482,191.836477 C328.766482,191.836477 321.18859,183.231448 321.139469,172.573752 C321.090348,161.916057 328.588602,153.241543 328.588602,153.241543 C328.588602,153.241543 336.166494,161.846557 336.215615,172.504268 Z" id="Path" fill="#54C41C"></path>
            <ellipse id="Oval" fill="#54C41C" cx="226.662369" cy="63.0796551" rx="14.6607149" ry="3.29866086"></ellipse>
            <path d="M243.252126,16.9755647 C243.252126,26.3509105 226.276561,52.8557354 226.276561,52.8557354 C226.276561,52.8557354 209.300996,26.3509105 209.300996,16.9755647 C209.300996,7.60021918 216.901215,0 226.276561,0 C235.651906,0 243.252126,7.60021918 243.252126,16.9755647 Z" id="Path" fill="#54C41C"></path>
            <circle id="Oval" fill="#F2F2F2" cx="226.276561" cy="16.9755647" r="9.6452072"></circle>
        </g>
    </g>
</svg>