<?xml version="1.0" encoding="UTF-8"?>
<svg width="453px" height="300px" viewBox="0 0 453 300" version="1.1" xmlns="http://www.w3.org/2000/svg" xmlns:xlink="http://www.w3.org/1999/xlink">
    <!-- Generator: Sketch 61.2 (89653) - https://sketch.com -->
    <title>img-problem-6</title>
    <desc>Created with Sketch.</desc>
    <g id="img-problem-6" stroke="none" stroke-width="1" fill="none" fill-rule="evenodd">
        <g id="Group-23">
            <g id="undraw_Savings_dwkw">
                <ellipse id="Oval" fill="#54C41C" fill-rule="nonzero" opacity="0.1" cx="167.7" cy="220.462122" rx="167.7" ry="20.383713"></ellipse>
                <path d="M286.945839,230.453487 C286.945839,230.453487 295.692189,219.323886 294.984972,208.281636 C294.658652,203.651948 295.842965,199.041329 298.360098,195.142029 C299.56951,193.300216 300.945143,191.573095 302.469747,189.982329" id="Path" stroke="#535461" stroke-width="0.6"></path>
                <path d="M302.065593,183.020943 C301.448901,184.566543 302.459148,190.165257 302.459148,190.165257 C302.459148,190.165257 307.046052,186.799785 307.662741,185.254173 C308.278042,183.708897 307.524844,181.957329 305.98,181.340945 C304.435155,180.724561 302.68306,181.476531 302.065593,183.020943 L302.065593,183.020943 Z" id="Path" fill="#54C41C" fill-rule="nonzero"></path>
                <path d="M294.023667,189.736665 C294.346041,191.369238 298.236921,195.519798 298.236921,195.519798 C298.236921,195.519798 300.258108,190.201818 299.935734,188.569245 C299.727195,187.513156 298.971079,186.648544 297.95221,186.3011 C296.93334,185.953656 295.806506,186.176165 294.996176,186.88481 C294.185846,187.593455 293.815128,188.680576 294.023667,189.736665 L294.023667,189.736665 Z" id="Path" fill="#54C41C" fill-rule="nonzero"></path>
                <path d="M288.388305,204.447612 C289.490727,205.69416 294.944703,207.312888 294.944703,207.312888 C294.944703,207.312888 294.004875,201.701931 292.90245,200.455383 C292.189391,199.648692 291.10008,199.283775 290.044971,199.498135 C288.989863,199.712495 288.129309,200.473553 287.787568,201.494542 C287.445828,202.51553 287.674837,203.641282 288.388305,204.447612 L288.388305,204.447612 Z" id="Path" fill="#54C41C" fill-rule="nonzero"></path>
                <path d="M286.630965,216.538365 C287.506875,217.953285 292.608902,220.470414 292.608902,220.470414 C292.608902,220.470414 292.630752,214.781334 291.754842,213.366414 C291.188526,212.450469 290.176433,211.906391 289.100055,211.939261 C288.023678,211.972131 287.046669,212.576951 286.537297,213.525744 C286.027925,214.474537 286.063634,215.623048 286.630965,216.538365 L286.630965,216.538365 Z" id="Path" fill="#54C41C" fill-rule="nonzero"></path>
                <path d="M303.993642,198.163764 C302.455305,198.798384 296.845242,197.853303 296.845242,197.853303 C296.845242,197.853303 300.157155,193.227579 301.695492,192.592959 C303.233827,191.95834 304.995355,192.690947 305.629974,194.229282 C306.264593,195.767617 305.531986,197.529145 303.993651,198.163764 L303.993642,198.163764 Z" id="Path" fill="#54C41C" fill-rule="nonzero"></path>
                <path d="M301.759029,212.277921 C300.101283,212.423175 295.03101,209.842785 295.03101,209.842785 C295.03101,209.842785 299.575269,206.41995 301.233015,206.274693 C302.305998,206.179615 303.348119,206.664567 303.966374,207.546663 C304.584628,208.428759 304.684959,209.573805 304.22953,210.549979 C303.774101,211.526153 302.832196,212.184949 301.759029,212.277921 L301.759029,212.277921 Z" id="Path" fill="#54C41C" fill-rule="nonzero"></path>
                <path d="M297.7047,225.698103 C296.095344,226.121403 290.661927,224.434977 290.661927,224.434977 C290.661927,224.434977 294.562395,220.293423 296.171751,219.870111 C297.781107,219.446799 299.428909,220.408277 299.852221,222.017632 C300.275534,223.626988 299.314056,225.274791 297.7047,225.698103 Z" id="Path" fill="#54C41C" fill-rule="nonzero"></path>
                <path d="M302.065593,183.020943 C301.448901,184.566543 302.459148,190.165257 302.459148,190.165257 C302.459148,190.165257 307.046052,186.799785 307.662741,185.254173 C308.278042,183.708897 307.524844,181.957329 305.98,181.340945 C304.435155,180.724561 302.68306,181.476531 302.065593,183.020943 L302.065593,183.020943 Z" id="Path" fill="#000000" fill-rule="nonzero" opacity="0.25"></path>
                <path d="M294.023667,189.736665 C294.346041,191.369238 298.236921,195.519798 298.236921,195.519798 C298.236921,195.519798 300.258108,190.201818 299.935734,188.569245 C299.727195,187.513156 298.971079,186.648544 297.95221,186.3011 C296.93334,185.953656 295.806506,186.176165 294.996176,186.88481 C294.185846,187.593455 293.815128,188.680576 294.023667,189.736665 L294.023667,189.736665 Z" id="Path" fill="#000000" fill-rule="nonzero" opacity="0.25"></path>
                <path d="M288.388305,204.447612 C289.490727,205.69416 294.944703,207.312888 294.944703,207.312888 C294.944703,207.312888 294.004875,201.701931 292.90245,200.455383 C292.189391,199.648692 291.10008,199.283775 290.044971,199.498135 C288.989863,199.712495 288.129309,200.473553 287.787568,201.494542 C287.445828,202.51553 287.674837,203.641282 288.388305,204.447612 L288.388305,204.447612 Z" id="Path" fill="#000000" fill-rule="nonzero" opacity="0.25"></path>
                <path d="M286.630965,216.538365 C287.506875,217.953285 292.608902,220.470414 292.608902,220.470414 C292.608902,220.470414 292.630752,214.781334 291.754842,213.366414 C291.188526,212.450469 290.176433,211.906391 289.100055,211.939261 C288.023678,211.972131 287.046669,212.576951 286.537297,213.525744 C286.027925,214.474537 286.063634,215.623048 286.630965,216.538365 L286.630965,216.538365 Z" id="Path" fill="#000000" fill-rule="nonzero" opacity="0.25"></path>
                <path d="M303.993642,198.163764 C302.455305,198.798384 296.845242,197.853303 296.845242,197.853303 C296.845242,197.853303 300.157155,193.227579 301.695492,192.592959 C303.233827,191.95834 304.995355,192.690947 305.629974,194.229282 C306.264593,195.767617 305.531986,197.529145 303.993651,198.163764 L303.993642,198.163764 Z" id="Path" fill="#000000" fill-rule="nonzero" opacity="0.25"></path>
                <path d="M301.759029,212.277921 C300.101283,212.423175 295.03101,209.842785 295.03101,209.842785 C295.03101,209.842785 299.575269,206.41995 301.233015,206.274693 C302.305998,206.179615 303.348119,206.664567 303.966374,207.546663 C304.584628,208.428759 304.684959,209.573805 304.22953,210.549979 C303.774101,211.526153 302.832196,212.184949 301.759029,212.277921 L301.759029,212.277921 Z" id="Path" fill="#000000" fill-rule="nonzero" opacity="0.25"></path>
                <path d="M297.7047,225.698103 C296.095344,226.121403 290.661927,224.434977 290.661927,224.434977 C290.661927,224.434977 294.562395,220.293423 296.171751,219.870111 C297.781107,219.446799 299.428909,220.408277 299.852221,222.017632 C300.275534,223.626988 299.314056,225.274791 297.7047,225.698103 Z" id="Path" fill="#000000" fill-rule="nonzero" opacity="0.25"></path>
                <path d="M287.019939,229.990116 C287.019939,229.990116 299.525979,223.359459 303.354003,212.977854 C304.931733,208.613079 307.882782,204.877881 311.764074,202.333071 C313.616086,201.139335 315.573584,200.117809 317.612019,199.281306" id="Path" stroke="#535461" stroke-width="0.6"></path>
                <path d="M320.063448,192.753312 C318.873348,193.916439 317.528202,199.444251 317.528202,199.444251 C317.528202,199.444251 323.085402,198.226194 324.275502,197.063067 C325.465608,195.89994 325.487478,193.992267 324.324351,192.802161 C323.161224,191.612055 321.253551,191.590185 320.063445,192.753312 L320.063448,192.753312 Z" id="Path" fill="#54C41C" fill-rule="nonzero"></path>
                <path d="M309.99,195.63417 C309.623166,197.257332 311.498376,202.628523 311.498376,202.628523 C311.498376,202.628523 315.501147,198.585762 315.867984,196.962603 C316.105286,195.912602 315.764393,194.815763 314.973716,194.085253 C314.18304,193.354743 313.062703,193.101545 312.034724,193.421037 C311.006746,193.740528 310.227302,194.584169 309.99,195.63417 L309.99,195.63417 Z" id="Path" fill="#54C41C" fill-rule="nonzero"></path>
                <path d="M298.876845,206.799606 C299.379573,208.385949 303.709746,212.075892 303.709746,212.075892 C303.709746,212.075892 305.124228,206.565417 304.621503,204.979074 C304.296296,203.95289 303.44833,203.178152 302.397025,202.946697 C301.34572,202.715242 300.250794,203.062234 299.524696,203.856963 C298.798598,204.651693 298.551638,205.773422 298.876845,206.799606 Z" id="Path" fill="#54C41C" fill-rule="nonzero"></path>
                <path d="M292.370802,217.141071 C292.598217,218.789556 296.242539,223.158198 296.242539,223.158198 C296.242539,223.158198 298.567905,217.966014 298.340493,216.317532 C298.193382,215.251148 297.488537,214.344251 296.491465,213.938461 C295.494394,213.53267 294.356575,213.689636 293.506615,214.35023 C292.656655,215.010824 292.223682,216.074687 292.370793,217.141071 L292.370802,217.141071 Z" id="Path" fill="#54C41C" fill-rule="nonzero"></path>
                <path d="M315.689886,207.378441 C314.026347,207.335241 309.280488,204.19791 309.280488,204.19791 C309.280488,204.19791 314.182749,201.311055 315.846288,201.354243 C317.509824,201.397431 318.823376,202.781005 318.780187,204.444541 C318.736999,206.108078 317.353425,207.421629 315.689889,207.378441 L315.689886,207.378441 Z" id="Path" fill="#54C41C" fill-rule="nonzero"></path>
                <path d="M307.927581,219.376338 C306.353181,218.837376 302.763477,214.423743 302.763477,214.423743 C302.763477,214.423743 308.304933,213.135966 309.879333,213.674943 C311.453734,214.213905 312.293123,215.927123 311.754162,217.501524 C311.2152,219.075925 309.501982,219.915314 307.927581,219.376353 L307.927581,219.376338 Z" id="Path" fill="#54C41C" fill-rule="nonzero"></path>
                <path d="M298.782873,230.002416 C297.140037,229.737267 292.856091,225.99375 292.856091,225.99375 C292.856091,225.99375 298.100223,223.788027 299.743059,224.053176 C301.385896,224.318324 302.502734,225.865052 302.237586,227.507889 C301.972438,229.150726 300.42571,230.267564 298.782873,230.002416 Z" id="Path" fill="#54C41C" fill-rule="nonzero"></path>
                <path d="M191.1417,28.523274 C174.570618,27.947928 158.787681,22.598274 143.716725,16.745373 C128.645769,10.892472 113.717589,4.407942 97.543341,1.306584 C87.140364,-0.688152 75.243621,-0.97038 66.861408,4.607244 C58.795212,9.974583 56.188848,19.239744 54.787557,27.836631 C53.733276,34.304631 53.113443,41.111982 56.002176,47.16717 C58.007721,51.37107 61.56879,54.9048 64.031304,58.931403 C72.600048,72.94266 66.543582,90.220098 57.257622,103.900851 C52.901757,110.318229 47.849352,116.440407 44.488107,123.271851 C41.126862,130.103295 39.571935,137.931114 42.512718,144.89979 C45.427572,151.80702 52.373967,156.995259 59.89854,160.644339 C75.181221,168.055755 93.19026,170.176983 110.751453,171.37836 C149.625186,174.037743 188.706534,172.886364 227.683476,171.733206 C242.107929,171.30645 256.595946,170.873982 270.786048,168.643521 C278.666061,167.404908 286.801653,165.438969 292.52244,160.693095 C299.784933,154.66824 301.585065,144.466359 296.718651,136.911906 C288.555786,124.240152 265.98639,121.092696 260.281008,107.493744 C257.140509,100.008264 260.365632,91.670298 264.929529,84.728067 C274.720122,69.83541 291.130491,56.770086 291.994878,39.747549 C292.588551,28.056195 284.699778,16.347639 272.501928,10.815999 C259.71615,5.017737 241.986711,5.7471 232.55433,15.345177 C222.841641,25.228482 205.772925,29.031267 191.1417,28.523274 Z" id="Path" fill="#EDF9E8" fill-rule="nonzero" opacity="0.458658854"></path>
                <ellipse id="Oval" fill="#FBD56F" fill-rule="nonzero" cx="162.768909" cy="199.360029" rx="11.267073" ry="11.959611"></ellipse>
                <ellipse id="Oval" fill="#000000" fill-rule="nonzero" opacity="0.1" cx="162.768909" cy="199.360029" rx="11.267073" ry="11.959611"></ellipse>
                <ellipse id="Oval" fill="#FBD56F" fill-rule="nonzero" cx="164.713398" cy="199.62639" rx="11.267073" ry="11.69325"></ellipse>
                <path d="M169.276968,210.223137 L168.104979,209.570553 C168.104979,209.570553 167.556798,211.858161 167.735994,213.488331 C167.772168,213.827023 168.015857,214.107151 168.346278,214.189872 C171.042378,214.859415 183.892422,217.71201 192.72885,213.69417 C192.989535,213.575212 193.168075,213.327496 193.198488,213.04257 C193.306872,212.040693 192.923172,209.973336 192.770013,209.570562 C192.4404,208.703709 169.276968,210.223137 169.276968,210.223137 Z" id="Path" fill="#FBD56F" fill-rule="nonzero"></path>
                <path d="M169.276968,210.223137 L168.104979,209.570553 C168.104979,209.570553 167.556798,211.858161 167.735994,213.488331 C167.772168,213.827023 168.015857,214.107151 168.346278,214.189872 C171.042378,214.859415 183.892422,217.71201 192.72885,213.69417 C192.989535,213.575212 193.168075,213.327496 193.198488,213.04257 C193.306872,212.040693 192.923172,209.973336 192.770013,209.570562 C192.4404,208.703709 169.276968,210.223137 169.276968,210.223137 Z" id="Path" fill="#000000" fill-rule="nonzero" opacity="0.1"></path>
                <ellipse id="Oval" fill="#FBD56F" fill-rule="nonzero" cx="180.437496" cy="209.570553" rx="12.332517" ry="2.779914"></ellipse>
                <path d="M173.988672,206.12163 L172.816683,205.469046 C172.816683,205.469046 172.268499,207.756654 172.447683,209.386824 C172.483857,209.725518 172.727547,210.005648 173.05797,210.088368 C175.75407,210.757908 188.604114,213.610503 197.440539,209.592663 C197.701224,209.473705 197.879766,209.225989 197.91018,208.941063 C198.018561,207.939186 197.634864,205.871829 197.481705,205.469055 C197.152095,204.602202 173.988672,206.12163 173.988672,206.12163 Z" id="Path" fill="#FBD56F" fill-rule="nonzero"></path>
                <path d="M173.988672,206.12163 L172.816683,205.469046 C172.816683,205.469046 172.268499,207.756654 172.447683,209.386824 C172.483857,209.725518 172.727547,210.005648 173.05797,210.088368 C175.75407,210.757908 188.604114,213.610503 197.440539,209.592663 C197.701224,209.473705 197.879766,209.225989 197.91018,208.941063 C198.018561,207.939186 197.634864,205.871829 197.481705,205.469055 C197.152095,204.602202 173.988672,206.12163 173.988672,206.12163 Z" id="Path" fill="#000000" fill-rule="nonzero" opacity="0.1"></path>
                <ellipse id="Oval" fill="#FBD56F" fill-rule="nonzero" cx="185.1492" cy="205.469046" rx="12.332517" ry="2.779914"></ellipse>
                <path d="M178.154061,200.730993 L176.982072,200.078409 C176.982072,200.078409 176.433888,202.366017 176.613072,203.996187 C176.649247,204.33488 176.892937,204.615008 177.223359,204.697728 C179.919459,205.367271 192.7695,208.219866 201.605928,204.202026 C201.866613,204.083068 202.045155,203.835352 202.075569,203.550426 C202.18395,202.548552 201.80025,200.481195 201.647094,200.078421 C201.317484,199.211565 178.154061,200.730993 178.154061,200.730993 Z" id="Path" fill="#FBD56F" fill-rule="nonzero"></path>
                <path d="M178.154061,200.730993 L176.982072,200.078409 C176.982072,200.078409 176.433888,202.366017 176.613072,203.996187 C176.649247,204.33488 176.892937,204.615008 177.223359,204.697728 C179.919459,205.367271 192.7695,208.219866 201.605928,204.202026 C201.866613,204.083068 202.045155,203.835352 202.075569,203.550426 C202.18395,202.548552 201.80025,200.481195 201.647094,200.078421 C201.317484,199.211565 178.154061,200.730993 178.154061,200.730993 Z" id="Path" fill="#000000" fill-rule="nonzero" opacity="0.1"></path>
                <ellipse id="Oval" fill="#FBD56F" fill-rule="nonzero" cx="189.314589" cy="200.078409" rx="12.332517" ry="2.779914"></ellipse>
                <path d="M173.541186,195.119388 L172.3692,194.466816 C172.3692,194.466816 171.821019,196.754424 172.0002,198.384594 C172.036374,198.723288 172.280064,199.003418 172.610487,199.086138 C175.306587,199.755681 188.156628,202.608273 196.993056,198.590436 C197.253741,198.471477 197.432282,198.223762 197.462697,197.938836 C197.571078,196.936959 197.187378,194.869605 197.034222,194.466828 C196.7046,193.59996 173.541186,195.119388 173.541186,195.119388 Z" id="Path" fill="#FBD56F" fill-rule="nonzero"></path>
                <path d="M173.541186,195.119388 L172.3692,194.466816 C172.3692,194.466816 171.821019,196.754424 172.0002,198.384594 C172.036374,198.723288 172.280064,199.003418 172.610487,199.086138 C175.306587,199.755681 188.156628,202.608273 196.993056,198.590436 C197.253741,198.471477 197.432282,198.223762 197.462697,197.938836 C197.571078,196.936959 197.187378,194.869605 197.034222,194.466828 C196.7046,193.59996 173.541186,195.119388 173.541186,195.119388 Z" id="Path" fill="#000000" fill-rule="nonzero" opacity="0.1"></path>
                <ellipse id="Oval" fill="#FBD56F" fill-rule="nonzero" cx="184.701717" cy="194.466804" rx="12.332517" ry="2.779914"></ellipse>
                <path d="M183.918513,190.616016 L182.746524,189.963432 C182.746524,189.963432 182.198343,192.25104 182.377524,193.88121 C182.413699,194.219903 182.657389,194.500031 182.987811,194.582751 C185.683911,195.252294 198.533952,198.104889 207.37038,194.087049 C207.631065,193.968092 207.809606,193.720375 207.840018,193.435449 C207.948402,192.433575 207.564702,190.366218 207.411543,189.963444 C207.081936,189.096579 183.918513,190.616016 183.918513,190.616016 Z" id="Path" fill="#FBD56F" fill-rule="nonzero"></path>
                <path d="M183.918513,190.616016 L182.746524,189.963432 C182.746524,189.963432 182.198343,192.25104 182.377524,193.88121 C182.413699,194.219903 182.657389,194.500031 182.987811,194.582751 C185.683911,195.252294 198.533952,198.104889 207.37038,194.087049 C207.631065,193.968092 207.809606,193.720375 207.840018,193.435449 C207.948402,192.433575 207.564702,190.366218 207.411543,189.963444 C207.081936,189.096579 183.918513,190.616016 183.918513,190.616016 Z" id="Path" fill="#000000" fill-rule="nonzero" opacity="0.1"></path>
                <ellipse id="Oval" fill="#FBD56F" fill-rule="nonzero" cx="195.079041" cy="189.963426" rx="12.332517" ry="2.779914"></ellipse>
                <path d="M176.907123,187.589148 L175.735134,186.936564 C175.735134,186.936564 175.18695,189.224172 175.366134,190.854342 C175.402309,191.193035 175.645999,191.473163 175.976421,191.555883 C178.672521,192.225426 191.522562,195.078021 200.35899,191.060181 C200.619675,190.941223 200.798217,190.693507 200.828631,190.408581 C200.937012,189.406707 200.553312,187.33935 200.400156,186.936576 C200.070546,186.06972 176.907123,187.589148 176.907123,187.589148 Z" id="Path" fill="#FBD56F" fill-rule="nonzero"></path>
                <path d="M176.907123,187.589148 L175.735134,186.936564 C175.735134,186.936564 175.18695,189.224172 175.366134,190.854342 C175.402309,191.193035 175.645999,191.473163 175.976421,191.555883 C178.672521,192.225426 191.522562,195.078021 200.35899,191.060181 C200.619675,190.941223 200.798217,190.693507 200.828631,190.408581 C200.937012,189.406707 200.553312,187.33935 200.400156,186.936576 C200.070546,186.06972 176.907123,187.589148 176.907123,187.589148 Z" id="Path" fill="#000000" fill-rule="nonzero" opacity="0.1"></path>
                <ellipse id="Oval" fill="#FBD56F" fill-rule="nonzero" cx="188.067651" cy="186.936564" rx="12.332517" ry="2.779914"></ellipse>
                <path d="M181.588233,181.745727 L180.416244,181.093143 C180.416244,181.093143 179.868063,183.380751 180.047244,185.010921 C180.083418,185.349613 180.327107,185.629741 180.657528,185.712462 C183.353628,186.382005 196.203672,189.2346 205.0401,185.21676 C205.300785,185.097802 205.479325,184.850086 205.509738,184.56516 C205.618122,183.563286 205.234422,181.495929 205.081263,181.093155 C204.751656,180.226299 181.588233,181.745727 181.588233,181.745727 Z" id="Path" fill="#FBD56F" fill-rule="nonzero"></path>
                <path d="M181.588233,181.745727 L180.416244,181.093143 C180.416244,181.093143 179.868063,183.380751 180.047244,185.010921 C180.083418,185.349613 180.327107,185.629741 180.657528,185.712462 C183.353628,186.382005 196.203672,189.2346 205.0401,185.21676 C205.300785,185.097802 205.479325,184.850086 205.509738,184.56516 C205.618122,183.563286 205.234422,181.495929 205.081263,181.093155 C204.751656,180.226299 181.588233,181.745727 181.588233,181.745727 Z" id="Path" fill="#000000" fill-rule="nonzero" opacity="0.1"></path>
                <ellipse id="Oval" fill="#FBD56F" fill-rule="nonzero" cx="192.748761" cy="181.093143" rx="12.332517" ry="2.779914"></ellipse>
                <path d="M183.897261,174.80973 L182.725272,174.157146 C182.725272,174.157146 182.177091,176.444754 182.356272,178.074924 C182.392446,178.413616 182.636135,178.693744 182.966556,178.776465 C185.662656,179.446008 198.5127,182.298603 207.349128,178.280763 C207.609813,178.161805 207.788353,177.914089 207.818766,177.629163 C207.92715,176.627289 207.54345,174.559932 207.390291,174.157158 C207.060684,173.290302 183.897261,174.80973 183.897261,174.80973 Z" id="Path" fill="#FBD56F" fill-rule="nonzero"></path>
                <path d="M183.897261,174.80973 L182.725272,174.157146 C182.725272,174.157146 182.177091,176.444754 182.356272,178.074924 C182.392446,178.413616 182.636135,178.693744 182.966556,178.776465 C185.662656,179.446008 198.5127,182.298603 207.349128,178.280763 C207.609813,178.161805 207.788353,177.914089 207.818766,177.629163 C207.92715,176.627289 207.54345,174.559932 207.390291,174.157158 C207.060684,173.290302 183.897261,174.80973 183.897261,174.80973 Z" id="Path" fill="#000000" fill-rule="nonzero" opacity="0.1"></path>
                <ellipse id="Oval" fill="#FBD56F" fill-rule="nonzero" cx="195.057789" cy="174.157146" rx="12.332517" ry="2.779914"></ellipse>
                <path d="M204.715662,211.831788 L203.543673,211.179204 C203.543673,211.179204 202.995492,213.466812 203.174673,215.096982 C203.210848,215.435675 203.454538,215.715803 203.78496,215.798523 C206.48106,216.468066 219.331101,219.320661 228.167529,215.302821 C228.428214,215.183863 228.606756,214.936147 228.63717,214.651221 C228.745551,213.649347 228.361851,211.58199 228.208695,211.179216 C227.8791,210.31236 204.715662,211.831788 204.715662,211.831788 Z" id="Path" fill="#FBD56F" fill-rule="nonzero"></path>
                <path d="M204.715662,211.831788 L203.543673,211.179204 C203.543673,211.179204 202.995492,213.466812 203.174673,215.096982 C203.210848,215.435675 203.454538,215.715803 203.78496,215.798523 C206.48106,216.468066 219.331101,219.320661 228.167529,215.302821 C228.428214,215.183863 228.606756,214.936147 228.63717,214.651221 C228.745551,213.649347 228.361851,211.58199 228.208695,211.179216 C227.8791,210.31236 204.715662,211.831788 204.715662,211.831788 Z" id="Path" fill="#000000" fill-rule="nonzero" opacity="0.1"></path>
                <ellipse id="Oval" fill="#FBD56F" fill-rule="nonzero" cx="215.876193" cy="211.179204" rx="12.332517" ry="2.779914"></ellipse>
                <path d="M208.881051,206.441151 L207.709062,205.788564 C207.709062,205.788564 207.160881,208.076172 207.340077,209.706342 C207.376251,210.045036 207.619941,210.325166 207.950364,210.407886 C210.646464,211.077429 223.496505,213.930021 232.332933,209.912184 C232.593618,209.793226 232.772158,209.54551 232.802571,209.260584 C232.910955,208.258707 232.527255,206.191353 232.374096,205.788576 C232.044474,204.92172 208.881051,206.441151 208.881051,206.441151 Z" id="Path" fill="#FBD56F" fill-rule="nonzero"></path>
                <path d="M208.881051,206.441151 L207.709062,205.788564 C207.709062,205.788564 207.160881,208.076172 207.340077,209.706342 C207.376251,210.045036 207.619941,210.325166 207.950364,210.407886 C210.646464,211.077429 223.496505,213.930021 232.332933,209.912184 C232.593618,209.793226 232.772158,209.54551 232.802571,209.260584 C232.910955,208.258707 232.527255,206.191353 232.374096,205.788576 C232.044474,204.92172 208.881051,206.441151 208.881051,206.441151 Z" id="Path" fill="#000000" fill-rule="nonzero" opacity="0.1"></path>
                <ellipse id="Oval" fill="#FBD56F" fill-rule="nonzero" cx="220.041579" cy="205.788567" rx="12.332517" ry="2.779914"></ellipse>
                <path d="M204.268179,200.829546 L203.09619,200.176962 C203.09619,200.176962 202.548009,202.46457 202.72719,204.09474 C202.763364,204.433432 203.007053,204.71356 203.337474,204.796281 C206.033574,205.465824 218.883618,208.318419 227.720046,204.300579 C227.980731,204.181621 228.159271,203.933905 228.189684,203.648979 C228.298068,202.647105 227.914368,200.579748 227.761209,200.176974 C227.431602,199.310118 204.268179,200.829546 204.268179,200.829546 Z" id="Path" fill="#FBD56F" fill-rule="nonzero"></path>
                <path d="M204.268179,200.829546 L203.09619,200.176962 C203.09619,200.176962 202.548009,202.46457 202.72719,204.09474 C202.763364,204.433432 203.007053,204.71356 203.337474,204.796281 C206.033574,205.465824 218.883618,208.318419 227.720046,204.300579 C227.980731,204.181621 228.159271,203.933905 228.189684,203.648979 C228.298068,202.647105 227.914368,200.579748 227.761209,200.176974 C227.431602,199.310118 204.268179,200.829546 204.268179,200.829546 Z" id="Path" fill="#000000" fill-rule="nonzero" opacity="0.1"></path>
                <ellipse id="Oval" fill="#FBD56F" fill-rule="nonzero" cx="215.428707" cy="200.176962" rx="12.332517" ry="2.779914"></ellipse>
                <path d="M214.6455,196.326165 L213.473511,195.673581 C213.473511,195.673581 212.925327,197.961189 213.104511,199.591359 C213.140685,199.930053 213.384375,200.210183 213.714798,200.292903 C216.410898,200.962446 229.260942,203.815038 238.097367,199.797201 C238.358052,199.678242 238.536593,199.430527 238.567008,199.145601 C238.675389,198.143724 238.291692,196.07637 238.138533,195.673593 C237.808929,194.806737 214.6455,196.326165 214.6455,196.326165 Z" id="Path" fill="#FBD56F" fill-rule="nonzero"></path>
                <path d="M214.6455,196.326165 L213.473511,195.673581 C213.473511,195.673581 212.925327,197.961189 213.104511,199.591359 C213.140685,199.930053 213.384375,200.210183 213.714798,200.292903 C216.410898,200.962446 229.260942,203.815038 238.097367,199.797201 C238.358052,199.678242 238.536593,199.430527 238.567008,199.145601 C238.675389,198.143724 238.291692,196.07637 238.138533,195.673593 C237.808929,194.806737 214.6455,196.326165 214.6455,196.326165 Z" id="Path" fill="#000000" fill-rule="nonzero" opacity="0.1"></path>
                <ellipse id="Oval" fill="#FBD56F" fill-rule="nonzero" cx="225.806034" cy="195.673581" rx="12.332517" ry="2.779914"></ellipse>
                <path d="M207.634113,193.299303 L206.462124,192.646719 C206.462124,192.646719 205.913943,194.934327 206.093124,196.564497 C206.129298,196.903191 206.372988,197.183321 206.703411,197.266041 C209.399511,197.935584 222.249552,200.788176 231.08598,196.770339 C231.346665,196.65138 231.525206,196.403665 231.555621,196.118739 C231.664002,195.116862 231.280302,193.049508 231.127146,192.646731 C230.797536,191.779875 207.634113,193.299303 207.634113,193.299303 Z" id="Path" fill="#FBD56F" fill-rule="nonzero"></path>
                <path d="M207.634113,193.299303 L206.462124,192.646719 C206.462124,192.646719 205.913943,194.934327 206.093124,196.564497 C206.129298,196.903191 206.372988,197.183321 206.703411,197.266041 C209.399511,197.935584 222.249552,200.788176 231.08598,196.770339 C231.346665,196.65138 231.525206,196.403665 231.555621,196.118739 C231.664002,195.116862 231.280302,193.049508 231.127146,192.646731 C230.797536,191.779875 207.634113,193.299303 207.634113,193.299303 Z" id="Path" fill="#000000" fill-rule="nonzero" opacity="0.1"></path>
                <ellipse id="Oval" fill="#FBD56F" fill-rule="nonzero" cx="218.794644" cy="192.646719" rx="12.332517" ry="2.779914"></ellipse>
                <path d="M212.315226,187.455885 L211.143237,186.803298 C211.143237,186.803298 210.595053,189.090909 210.774237,190.721079 C210.810412,191.059772 211.054102,191.3399 211.384524,191.42262 C214.080624,192.092163 226.930665,194.944755 235.767093,190.926918 C236.027778,190.807959 236.206319,190.560244 236.236734,190.275318 C236.345115,189.273444 235.961415,187.206087 235.808259,186.80331 C235.478649,185.936454 212.315226,187.455885 212.315226,187.455885 Z" id="Path" fill="#FBD56F" fill-rule="nonzero"></path>
                <path d="M212.315226,187.455885 L211.143237,186.803298 C211.143237,186.803298 210.595053,189.090909 210.774237,190.721079 C210.810412,191.059772 211.054102,191.3399 211.384524,191.42262 C214.080624,192.092163 226.930665,194.944755 235.767093,190.926918 C236.027778,190.807959 236.206319,190.560244 236.236734,190.275318 C236.345115,189.273444 235.961415,187.206087 235.808259,186.80331 C235.478649,185.936454 212.315226,187.455885 212.315226,187.455885 Z" id="Path" fill="#000000" fill-rule="nonzero" opacity="0.1"></path>
                <ellipse id="Oval" fill="#FBD56F" fill-rule="nonzero" cx="223.475754" cy="186.803301" rx="12.332517" ry="2.779914"></ellipse>
                <path d="M214.624254,180.519888 L213.452265,179.867304 C213.452265,179.867304 212.904081,182.154912 213.083265,183.785082 C213.11944,184.123775 213.36313,184.403903 213.693552,184.486623 C216.389652,185.156166 229.239696,188.008761 238.076121,183.990921 C238.336806,183.871963 238.515348,183.624247 238.545762,183.339321 C238.654143,182.337447 238.270446,180.27009 238.117287,179.867316 C237.787677,179.00046 214.624254,180.519888 214.624254,180.519888 Z" id="Path" fill="#FBD56F" fill-rule="nonzero"></path>
                <path d="M214.624254,180.519888 L213.452265,179.867304 C213.452265,179.867304 212.904081,182.154912 213.083265,183.785082 C213.11944,184.123775 213.36313,184.403903 213.693552,184.486623 C216.389652,185.156166 229.239696,188.008761 238.076121,183.990921 C238.336806,183.871963 238.515348,183.624247 238.545762,183.339321 C238.654143,182.337447 238.270446,180.27009 238.117287,179.867316 C237.787677,179.00046 214.624254,180.519888 214.624254,180.519888 Z" id="Path" fill="#000000" fill-rule="nonzero" opacity="0.1"></path>
                <ellipse id="Oval" fill="#FBD56F" fill-rule="nonzero" cx="225.784782" cy="179.867304" rx="12.332517" ry="2.779914"></ellipse>
                <ellipse id="Oval" fill="#FBD56F" fill-rule="nonzero" cx="188.363595" cy="216.42318" rx="11.267073" ry="11.959611"></ellipse>
                <ellipse id="Oval" fill="#000000" fill-rule="nonzero" opacity="0.1" cx="188.363595" cy="216.42318" rx="11.267073" ry="11.959611"></ellipse>
                <ellipse id="Oval" fill="#FBD56F" fill-rule="nonzero" cx="190.308084" cy="216.689541" rx="11.267073" ry="11.69325"></ellipse>
                <ellipse id="Oval" fill="#54C41C" fill-rule="nonzero" cx="27.042834" cy="220.64304" rx="13.915707" ry="2.352441"></ellipse>
                <path d="M32.7969,216.794457 C33.39285,216.240696 33.9519,215.587428 34.123614,214.79223 C34.295328,213.997032 33.956415,213.043476 33.196545,212.752914 C32.345103,212.427312 31.43526,213.017514 30.745446,213.613449 C30.055632,214.209384 29.265045,214.889649 28.362246,214.763454 C29.3068905,213.907307 29.7328615,212.618177 29.484297,211.367754 C29.4446561,211.113877 29.3367981,210.875535 29.172243,210.678186 C28.699599,210.172887 27.842778,210.389886 27.276843,210.787959 C25.477092,212.053893 24.974904,214.498587 24.965112,216.698955 C24.783612,215.905269 24.936483,215.078202 24.932004,214.264032 C24.927525,213.449862 24.704409,212.547336 24.017604,212.110059 C23.5897744,211.879699 23.108623,211.766607 22.62297,211.782258 C21.813954,211.752501 20.91291,211.833606 20.360412,212.425317 C19.673934,213.160524 19.851975,214.394073 20.449191,215.203461 C21.046407,216.012849 21.954825,216.51999 22.790991,217.079061 C23.4617388,217.478563 24.0337694,218.02417 24.464523,218.675289 C24.5151553,218.766036 24.5567115,218.861556 24.588588,218.960463 L29.6604,218.960463 C30.7989128,218.383407 31.8540063,217.65478 32.7969,216.794457 Z" id="Path" fill="#54C41C" fill-rule="nonzero"></path>
                <path d="M152.886393,205.303197 C153.506341,206.15203 154.013336,207.077839 154.39464,208.057359 C154.495422,208.31061 154.594062,208.576701 154.687389,208.855863 C156.186585,213.336417 153.811065,218.709363 153.131928,218.129808 C152.452791,217.550253 150.336456,216.474918 149.927244,217.986015 C149.518032,219.497112 148.006392,221.041605 148.006392,221.041605 C145.252341,223.811643 142.759461,220.818765 141.123138,217.726461 C140.588504,216.706183 140.113166,215.655916 139.699494,214.580892 C139.336194,213.631218 139.127526,212.974875 139.127526,212.974875 L150.598572,203.201256 C150.598572,203.201256 151.707522,203.71038 152.886393,205.303197 Z" id="Path" fill="#54C41C" fill-rule="nonzero"></path>
                <path d="M134.80719,211.552806 C135.427137,212.40164 135.934134,213.327448 136.31544,214.306968 C136.416219,214.560222 136.514859,214.82631 136.608189,215.105472 C138.107382,219.586026 135.731862,224.958972 135.052734,224.379417 C134.373606,223.799862 132.257262,222.724527 131.84805,224.235624 C131.438838,225.746721 129.927201,227.291214 129.927201,227.291214 C127.173147,230.061252 124.680267,227.068374 123.043944,223.976073 C122.509312,222.955798 122.033975,221.905535 121.6203,220.830516 C121.257,219.880839 121.048335,219.224496 121.048335,219.224496 L132.519378,209.450877 C132.519378,209.450877 133.628319,209.959971 134.80719,211.552806 Z" id="Path" fill="#54C41C" fill-rule="nonzero"></path>
                <path d="M98.506182,220.186686 C98.441751,221.235827 98.2412345,222.272144 97.909671,223.269597 C97.825635,223.52889 97.731756,223.796697 97.625454,224.071197 C95.920203,228.477447 90.662403,231.097926 90.5094,230.218323 C90.356397,229.33872 89.413359,227.160225 88.133955,228.062421 C86.854551,228.964617 84.705084,229.188978 84.705084,229.188978 C80.816985,229.563978 80.807784,225.668865 81.52152,222.243879 C81.7610473,221.117195 82.0653647,220.005265 82.432956,218.91363 C82.759332,217.95066 83.017557,217.31217 83.017557,217.31217 L98.086305,217.108392 C98.086305,217.108392 98.615121,218.208066 98.506182,220.186686 Z" id="Path" fill="#54C41C" fill-rule="nonzero"></path>
                <path d="M79.036554,215.276292 C78.9721218,216.325432 78.7716053,217.361747 78.440043,218.3592 C78.356013,218.618496 78.262143,218.8863 78.155823,219.1608 C76.450575,223.56705 71.192757,226.187529 71.039757,225.307926 C70.886757,224.428323 69.943716,222.249825 68.664309,223.152024 C67.384902,224.054223 65.235438,224.278581 65.235438,224.278581 C61.347339,224.653581 61.338138,220.758468 62.051871,217.333482 C62.2913997,216.206798 62.5957171,215.094869 62.963307,214.003233 C63.289686,213.040263 63.547905,212.401773 63.547905,212.401773 L78.61665,212.197995 C78.61665,212.197995 79.145493,213.297654 79.036554,215.276292 Z" id="Path" fill="#54C41C" fill-rule="nonzero"></path>
                <path d="M152.886393,205.303197 C153.506341,206.15203 154.013336,207.077839 154.39464,208.057359 C154.495422,208.31061 154.594062,208.576701 154.687389,208.855863 C156.186585,213.336417 153.811065,218.709363 153.131928,218.129808 C152.452791,217.550253 150.336456,216.474918 149.927244,217.986015 C149.518032,219.497112 148.006392,221.041605 148.006392,221.041605 C145.252341,223.811643 142.759461,220.818765 141.123138,217.726461 C140.588504,216.706183 140.113166,215.655916 139.699494,214.580892 C139.336194,213.631218 139.127526,212.974875 139.127526,212.974875 L150.598572,203.201256 C150.598572,203.201256 151.707522,203.71038 152.886393,205.303197 Z" id="Path" fill="#000000" fill-rule="nonzero" opacity="0.2"></path>
                <path d="M134.80719,211.552806 C135.427137,212.40164 135.934134,213.327448 136.31544,214.306968 C136.416219,214.560222 136.514859,214.82631 136.608189,215.105472 C138.107382,219.586026 135.731862,224.958972 135.052734,224.379417 C134.373606,223.799862 132.257262,222.724527 131.84805,224.235624 C131.438838,225.746721 129.927201,227.291214 129.927201,227.291214 C127.173147,230.061252 124.680267,227.068374 123.043944,223.976073 C122.509312,222.955798 122.033975,221.905535 121.6203,220.830516 C121.257,219.880839 121.048335,219.224496 121.048335,219.224496 L132.519378,209.450877 C132.519378,209.450877 133.628319,209.959971 134.80719,211.552806 Z" id="Path" fill="#000000" fill-rule="nonzero" opacity="0.2"></path>
                <path d="M98.506182,220.186686 C98.441751,221.235827 98.2412345,222.272144 97.909671,223.269597 C97.825635,223.52889 97.731756,223.796697 97.625454,224.071197 C95.920203,228.477447 90.662403,231.097926 90.5094,230.218323 C90.356397,229.33872 89.413359,227.160225 88.133955,228.062421 C86.854551,228.964617 84.705084,229.188978 84.705084,229.188978 C80.816985,229.563978 80.807784,225.668865 81.52152,222.243879 C81.7610473,221.117195 82.0653647,220.005265 82.432956,218.91363 C82.759332,217.95066 83.017557,217.31217 83.017557,217.31217 L98.086305,217.108392 C98.086305,217.108392 98.615121,218.208066 98.506182,220.186686 Z" id="Path" fill="#000000" fill-rule="nonzero" opacity="0.2"></path>
                <path d="M79.036554,215.276292 C78.9721218,216.325432 78.7716053,217.361747 78.440043,218.3592 C78.356013,218.618496 78.262143,218.8863 78.155823,219.1608 C76.450575,223.56705 71.192757,226.187529 71.039757,225.307926 C70.886757,224.428323 69.943716,222.249825 68.664309,223.152024 C67.384902,224.054223 65.235438,224.278581 65.235438,224.278581 C61.347339,224.653581 61.338138,220.758468 62.051871,217.333482 C62.2913997,216.206798 62.5957171,215.094869 62.963307,214.003233 C63.289686,213.040263 63.547905,212.401773 63.547905,212.401773 L78.61665,212.197995 C78.61665,212.197995 79.145493,213.297654 79.036554,215.276292 Z" id="Path" fill="#000000" fill-rule="nonzero" opacity="0.2"></path>
                <path d="M183.4848,149.236155 C183.4848,189.483798 169.8696,222.110979 107.038779,222.110979 C64.818804,222.110979 32.155152,211.620579 30.592755,149.236155 C29.585055,109.001109 64.818786,76.361322 107.038755,76.361322 C149.258724,76.361322 183.4848,108.988491 183.4848,149.236155 Z" id="Path" fill="#54C41C" fill-rule="nonzero"></path>
                <path d="M92.698161,77.633556 L92.707095,77.633556 C92.7050369,77.6347489 92.7027558,77.6355065 92.700393,77.635782 L92.698161,77.633556 Z" id="Path" fill="#000000" fill-rule="nonzero" opacity="0.2"></path>
                <path d="M92.84772,77.609016 C93.041904,77.577777 93.425802,77.5242 93.983799,77.481783 L92.740566,77.629101 C92.758418,77.624635 92.780736,77.620171 92.80752,77.615709 C92.820924,77.613471 92.832093,77.611236 92.84772,77.609016 Z" id="Path" fill="#000000" fill-rule="nonzero" opacity="0.2"></path>
                <path d="M149.335182,107.386116 L143.755182,109.394916 C140.910675,105.580295 137.850055,101.931695 134.588355,98.467035 C131.028378,94.6699609 127.14413,91.1904937 122.979732,88.068156 C108.692691,77.479542 97.642056,77.20947 93.992727,77.481756 L102.380589,76.495221 C110.308147,77.8592557 117.931859,80.6150972 124.899246,84.635331 C129.773644,87.4452533 134.313544,90.7990724 138.431865,94.632459 C145.734969,101.411067 149.335182,107.386116 149.335182,107.386116 Z" id="Path" fill="#000000" fill-rule="nonzero" opacity="0.2"></path>
                <path d="M98.891967,111.180531 C98.891967,111.180531 91.526367,86.628531 97.775967,79.932531 C97.775967,79.932531 107.596767,76.584531 114.962367,95.556531 L98.891967,111.180531 Z" id="Path" fill="#000000" fill-rule="nonzero" opacity="0.2"></path>
                <path d="M136.188573,88.249005 C136.188573,88.249005 155.721441,71.650212 164.362518,74.687592 C164.362518,74.687592 171.370038,82.339524 156.948192,96.699177 L136.188573,88.249005 Z" id="Path" fill="#54C41C" fill-rule="nonzero"></path>
                <path d="M136.188573,88.249005 C136.188573,88.249005 155.721441,71.650212 164.362518,74.687592 C164.362518,74.687592 171.370038,82.339524 156.948192,96.699177 L136.188573,88.249005 Z" id="Path" fill="#000000" fill-rule="nonzero" opacity="0.2"></path>
                <path d="M197.1,167.761758 C197.1,189.395658 181.575477,206.486958 166.968,206.486958 C152.360523,206.486958 144.2016,189.395637 144.2016,167.761758 C144.2016,146.127879 156.0678,129.43554 170.6508,128.590143 C193.752,127.250937 197.1,146.127867 197.1,167.761758 Z" id="Path" fill="#54C41C" fill-rule="nonzero"></path>
                <path d="M197.1,167.761758 C197.1,189.395658 181.575477,206.486958 166.968,206.486958 C152.360523,206.486958 144.2016,189.395637 144.2016,167.761758 C144.2016,146.127879 156.0678,129.43554 170.6508,128.590143 C193.752,127.250937 197.1,146.127867 197.1,167.761758 Z" id="Path" fill="#000000" fill-rule="nonzero" opacity="0.2"></path>
                <ellipse id="Oval" fill="#54C41C" fill-rule="nonzero" cx="166.075185" cy="170.998149" rx="4.910403" ry="6.249609"></ellipse>
                <ellipse id="Oval" fill="#54C41C" fill-rule="nonzero" cx="183.484791" cy="165.641361" rx="4.910394" ry="6.249609"></ellipse>
                <path d="M139.384964,90.601479 C139.388288,92.001354 139.061775,93.3823258 138.431862,94.632474 C137.600399,96.293629 136.251437,97.6394552 134.588352,98.46705 C131.028375,94.6699759 127.144127,91.1905087 122.979729,88.068171 C123.35072,86.7930386 124.007145,85.6191023 124.899243,84.635355 C126.454644,82.9013112 128.672118,81.9077457 131.001525,81.901155 C135.630708,81.901155 139.384964,85.795977 139.384964,90.601479 Z" id="Path" fill="#FAD46F" fill-rule="nonzero"></path>
            </g>
            <g id="Group-2" transform="translate(158.000000, 44.000000)" fill-rule="nonzero">
                <g id="undraw_reading_book_4wjf" transform="translate(0.315789, 0.631579)">
                    <ellipse id="Oval" fill="#3F3D56" cx="26.0613681" cy="214.575933" rx="20.5107387" ry="3.17382789"></ellipse>
                    <circle id="Oval" fill="#EDF9E8" cx="171.518013" cy="123.434268" r="104.679238"></circle>
                    <path d="M178.932782,229.421996 C177.722683,229.421996 176.500231,229.402827 175.300356,229.365344 L175.327618,228.493878 C177.050561,228.547546 178.808833,228.562455 180.539863,228.538604 L180.551788,229.410929 C180.012976,229.418163 179.473307,229.421852 178.932782,229.421996 Z M185.800225,229.219672 L185.749114,228.349049 C187.474599,228.24725 189.222236,228.104132 190.943464,227.923961 L191.034615,228.791176 C189.300197,228.973053 187.539372,229.117448 185.800237,229.219672 L185.800225,229.219672 Z M170.056598,229.083798 C168.31663,228.950479 166.558345,228.775843 164.830298,228.56373 L164.936783,227.69822 C166.651604,227.908206 168.396274,228.08199 170.123039,228.214034 L170.056598,229.083798 Z M196.243445,228.124579 L196.112682,227.262483 C197.827094,227.002233 199.554709,226.700247 201.246122,226.364173 L201.416071,227.219463 C199.711479,227.558076 197.971073,227.862624 196.243458,228.124579 L196.243445,228.124579 Z M159.634043,227.805547 C157.915162,227.514206 156.180087,227.179416 154.477176,226.809699 L154.662249,225.956973 C156.352169,226.324136 158.073822,226.65637 159.779716,226.945157 L159.634043,227.805547 Z M206.542702,226.077507 L206.333141,225.230736 C208.016033,224.814593 209.708296,224.354584 211.363077,223.863892 L211.610973,224.70044 C209.94342,225.194959 208.238379,225.658382 206.542708,226.077507 L206.542702,226.077507 Z M149.372063,225.577451 C147.685978,225.128936 145.989239,224.635705 144.328921,224.110511 L144.591729,223.279075 C146.239481,223.8 147.923223,224.289408 149.596108,224.73409 L149.372063,225.577451 Z M216.610233,223.090811 L216.324001,222.267034 C217.957058,221.699253 219.599485,221.085472 221.206563,220.442302 L221.530276,221.252441 C219.911292,221.900303 218.256083,222.518769 216.610248,223.090811 L216.610233,223.090811 Z M139.345825,222.407593 C137.708296,221.805738 136.060543,221.15618 134.448783,220.477229 L134.787406,219.673053 C136.386816,220.346891 138.02179,220.991342 139.646969,221.588936 L139.345825,222.407593 Z M226.349367,219.193875 L225.988171,218.399916 C227.556499,217.687315 229.132894,216.926584 230.673522,216.139022 L231.070529,216.915955 C229.51796,217.709471 227.929627,218.475739 226.349386,219.193875 L226.349367,219.193875 Z M129.647384,218.324104 C128.073319,217.574022 126.493291,216.776236 124.95181,215.952466 L125.362846,215.183217 C126.892825,216.000597 128.4605,216.792422 130.022639,217.536967 L129.647384,218.324104 Z M235.682605,214.422911 L235.250701,213.665588 C236.754684,212.807318 238.256139,211.905163 239.712432,210.983864 L240.17841,211.720743 C238.711045,212.649293 237.198529,213.558679 235.682605,214.422911 Z M120.371457,213.36828 C118.874275,212.477639 117.374962,211.538438 115.915474,210.577089 L116.395511,209.84873 C117.843711,210.802836 119.331523,211.734796 120.817417,212.618623 L120.371457,213.36828 Z M244.546859,208.814974 L244.047659,208.100244 C245.463911,207.110782 246.877183,206.074468 248.248287,205.020693 L248.779863,205.712419 C247.398535,206.77429 245.97419,207.818273 244.546859,208.814974 Z M111.593028,207.586559 C110.185079,206.563876 108.778623,205.492635 107.412416,204.401802 L107.95677,203.720297 C109.312538,204.802602 110.708349,205.865763 112.105435,206.880353 L111.593028,207.586559 Z M252.867615,202.419897 L252.305379,201.752872 C253.625385,200.639038 254.938969,199.478348 256.210404,198.302752 L256.802461,198.943367 C255.521655,200.127909 254.197829,201.297542 252.867615,202.419897 L252.867615,202.419897 Z M103.382165,201.030476 C102.070904,199.88214 100.768165,198.687803 99.5103608,197.480266 L100.114346,196.850726 C101.362777,198.049324 102.655508,199.234718 103.956758,200.374534 L103.382165,201.030476 Z M260.575868,195.290073 L259.954846,194.67757 C261.17176,193.44447 262.375468,192.168352 263.531898,190.884991 L264.180181,191.46853 C263.014806,192.762112 261.802152,194.047612 260.575868,195.290073 L260.575868,195.290073 Z M95.8051007,193.758388 C94.6020303,192.493356 93.4138685,191.185707 92.2736311,189.872104 L92.9325629,189.300497 C94.0640731,190.604301 95.2430798,191.901718 96.4372044,193.156967 L95.8051007,193.758388 Z M267.606875,187.486409 L266.933038,186.932685 C268.032391,185.594806 269.114706,184.214331 270.15102,182.828746 L270.849564,183.350948 C269.805582,184.747184 268.714759,186.138732 267.606875,187.486409 L267.606875,187.486409 Z M88.9233859,185.830351 C87.8429892,184.46521 86.7792004,183.055771 85.761415,181.641221 L86.46933,181.131798 C87.4794471,182.535271 88.5351429,183.934062 89.6074496,185.289405 L88.9233859,185.830351 Z M273.900141,179.071095 L273.178604,178.581262 C274.151451,177.148808 275.104282,175.67464 276.010258,174.198757 L276.75395,174.655365 C275.840312,176.142324 274.880244,177.628006 273.900141,179.071095 Z M82.7947212,177.313662 C81.8442293,175.856533 80.9139778,174.357208 80.0295112,172.856189 L80.7808715,172.413213 C81.658735,173.902727 82.5819647,175.390964 83.5252101,176.836608 L82.7947212,177.313662 Z M279.402458,170.112269 L278.639172,169.690592 C279.47657,168.175093 280.290117,166.618707 281.058088,165.064448 L281.840116,165.451201 C281.066609,167.016967 280.246247,168.585282 279.402458,170.112269 Z M77.4715383,168.278166 C76.6579916,166.740522 75.8691645,165.162836 75.1269467,163.589427 L75.9157895,163.217154 C76.6524567,164.778654 77.435121,166.34441 78.2424926,167.870133 L77.4715383,168.278166 Z M284.060971,160.681946 L283.261908,160.331813 C283.957042,158.744332 284.624492,157.118516 285.245941,155.499941 L286.06034,155.812582 C285.434206,157.443945 284.761218,159.082127 284.060971,160.681946 L284.060971,160.681946 Z M73.0004373,158.799694 C72.3317101,157.194746 71.6913072,155.552744 71.0971201,153.918835 L71.9170483,153.620678 C72.5065501,155.242233 73.1420553,156.871457 73.8054568,158.464051 L73.0004373,158.799694 Z M287.833106,150.85464 L287.005076,150.580312 C287.54943,148.940012 288.063114,147.263508 288.531648,145.596801 L289.371604,145.832772 C288.899235,147.512282 288.38129,149.201987 287.833106,150.85464 L287.833106,150.85464 Z M69.4167828,148.942995 C68.897776,147.280547 68.4100672,145.582321 67.967306,143.894737 L68.8110948,143.673247 C69.2504545,145.348046 69.7345369,147.033494 70.2494987,148.683164 L69.4167828,148.942995 Z M290.676261,140.745357 L289.826509,140.5477 C290.217095,138.866509 290.574034,137.149542 290.887953,135.445354 L291.745797,135.602952 C291.429752,137.320793 291.06983,139.050539 290.676261,140.745357 L290.676261,140.745357 Z M66.7525254,138.785154 C66.3887709,137.081393 66.059519,135.345682 65.7741371,133.625307 L66.6345369,133.48219 C66.9180009,135.189789 67.2446978,136.912294 67.6056848,138.602852 L66.7525254,138.785154 Z M292.577236,130.417995 L291.712575,130.29956 C291.947268,128.59111 292.145332,126.849015 292.301652,125.121396 L293.17057,125.199769 C293.012972,126.941037 292.813206,128.696339 292.577236,130.417995 L292.577236,130.417995 Z M65.033425,128.426272 C64.8276964,126.699506 64.6588099,124.940797 64.5312416,123.199125 L65.40144,123.135233 C65.5277308,124.864129 65.6955521,126.609208 65.8997907,128.323195 L65.033425,128.426272 Z M293.525807,119.960718 L292.65434,119.921512 C292.73186,118.193041 292.771473,116.439869 292.771473,114.710976 L293.643801,114.710976 C293.643801,116.453094 293.604179,118.219472 293.525807,119.960718 L293.525807,119.960718 Z M64.2669467,117.953662 C64.2371295,116.884126 64.2220084,115.792866 64.221796,114.710976 C64.221796,114.039691 64.2275465,113.369685 64.2390473,112.700959 L65.1113728,112.716292 C65.0998719,113.37991 65.0941215,114.044807 65.0941215,114.710982 C65.094337,115.784779 65.1094581,116.867946 65.1388474,117.929817 L64.2669467,117.953662 Z M292.765076,113.494062 C292.747184,111.764529 292.689258,110.01157 292.593422,108.283526 L293.464045,108.234971 C293.560734,109.976217 293.619088,111.74239 293.637401,113.484698 L292.765076,113.494062 Z M65.318382,107.508549 L64.4477589,107.454028 C64.556586,105.711095 64.7069436,103.95067 64.8941434,102.221559 L65.7613587,102.315477 C65.5754365,104.031595 65.4265688,105.778591 65.318382,107.508549 Z M292.185369,103.088121 C292.01116,101.368387 291.794356,99.6284179 291.541346,97.9161331 L292.404304,97.7887771 C292.659016,99.5140528 292.87752,101.267225 293.053437,102.999953 L292.185369,103.088121 Z M66.4405123,97.1483898 L65.5784164,97.0150679 C65.8456942,95.2893706 66.156208,93.550039 66.5014212,91.8447853 L67.3562861,92.0177167 C67.0138373,93.7099797 66.7056692,95.436105 66.4405123,97.1483898 Z M290.660918,92.7799375 C290.328262,91.0783039 289.953003,89.3653819 289.544954,87.6888865 L290.392575,87.4827331 C290.803608,89.1720162 291.181843,90.8981415 291.517048,92.6125535 L290.660918,92.7799375 Z M68.5067625,86.9347525 L67.660631,86.7226331 C68.0842293,85.0331376 68.5534031,83.3295861 69.0551616,81.6590473 L69.8904295,81.9099266 C69.392719,83.5676901 68.9271591,85.2582477 68.5067625,86.9347525 Z M288.19558,82.6544713 C287.709155,80.9935155 287.177582,79.3227612 286.615768,77.6879994 L287.440381,77.404323 C288.006884,79.0516508 288.542717,80.7356083 289.032975,82.4091301 L288.19558,82.6544713 Z M71.5096517,76.9406872 L70.6867343,76.6514727 C71.2664376,75.0024426 71.8923598,73.3455224 72.5470311,71.7267437 L73.3558926,72.0538685 C72.7061128,73.6600906 72.084879,75.3044354 71.5096455,76.9406872 L71.5096517,76.9406872 Z M284.808081,72.7994752 C284.171723,71.1941059 283.490217,69.582983 282.782305,68.0106231 L283.577963,67.6524067 C284.291413,69.2369077 284.978029,70.8603811 285.619072,72.4778916 L284.808081,72.7994752 Z M75.4248946,67.2590504 L74.6322161,66.8948712 C75.3607903,65.3082399 76.1361987,63.7171388 76.9369827,62.1658629 L77.7121974,62.5658067 C76.9173918,64.1053975 76.1479275,65.6843448 75.4248946,67.2590504 Z M280.538866,63.3180322 C279.758117,61.7780415 278.930942,60.2348587 278.080331,58.7319257 L278.83935,58.3021521 C279.696761,59.8167984 280.529911,61.3716945 281.316627,62.9236108 L280.538866,63.3180322 Z M80.2126816,57.9839731 L79.456636,57.5486584 C80.3268343,56.0376324 81.2445229,54.5251164 82.1843636,53.0534906 L82.9195377,53.5228799 C81.9869405,54.9834234 81.0760643,56.4844479 80.2126816,57.9839731 L80.2126816,57.9839731 Z M275.413947,54.2612463 C274.49221,52.793881 273.527019,51.3320506 272.545235,49.9162236 L273.261668,49.4191504 C274.251129,50.845841 275.223976,52.3187443 276.152529,53.7974106 L275.413947,54.2612463 Z M85.827434,49.1914884 L85.114412,48.6888771 C86.1200562,47.2626144 87.1714915,45.841037 88.240178,44.4635452 L88.9293456,44.998104 C87.8689708,46.3653694 86.8252007,47.7760862 85.827434,49.1914884 Z M269.480162,45.7055849 C268.428943,44.3287303 267.334275,42.9599688 266.225551,41.6374231 L266.894278,41.0770982 C268.011095,42.4098672 269.114281,43.7888521 270.173597,45.1761393 L269.480162,45.7055849 Z M92.2186787,40.9518757 L91.5546369,40.3862252 C92.6831704,39.0606965 93.8594034,37.7413462 95.0505482,36.4648009 L95.6881805,37.0598345 C94.506194,38.3267999 93.3389036,39.636358 92.2186787,40.9518757 Z M262.789058,37.7206872 C261.617295,36.4452069 260.401659,35.1810151 259.176652,33.9636764 L259.791713,33.3447821 C261.026088,34.571707 262.25067,35.8452694 263.431376,37.1303327 L262.789058,37.7206872 Z M99.330189,33.3311541 L98.7202405,32.7075746 C99.9676089,31.487256 101.258426,30.2807778 102.556477,29.1217929 L103.137454,29.7726285 C101.849202,30.9226706 100.568187,32.1199906 99.330189,33.3311541 Z M255.397279,30.374059 C254.113069,29.2093238 252.787112,28.0605591 251.456474,26.959722 L252.012753,26.2875871 C253.353188,27.3967546 254.689364,28.5542308 255.983373,29.7279119 L255.397279,30.374059 Z M107.101905,26.3910854 L106.551164,25.71469 C107.900331,24.6159769 109.294649,23.5323817 110.695571,22.4939372 L111.215218,23.1946119 C109.824732,24.2253881 108.440853,25.3006778 107.101905,26.3910854 Z M247.364032,23.7274621 C245.978432,22.6841199 244.552825,21.6603717 243.126775,20.684754 L243.619163,19.9649133 C245.056302,20.9477745 246.49256,21.9791879 247.888793,23.0306231 L247.364032,23.7274621 Z M115.468449,20.1900234 L114.981599,19.4663501 C116.425538,18.4947806 117.912072,17.543439 119.400097,16.638104 L119.853288,17.3834984 C118.376773,18.2818085 116.901527,19.2261221 115.468449,20.1900234 Z M238.754065,17.8386256 C237.279884,16.9262627 235.766091,16.0368983 234.254849,15.1948118 L234.679088,14.4328034 C236.202252,15.2812775 237.727546,16.1776698 239.213213,17.0966391 L238.754065,17.8386256 Z M124.360812,14.7809995 L123.942112,14.0155833 C125.469749,13.179672 127.036149,12.3686803 128.597648,11.6047571 L128.980993,12.3884866 C127.431426,13.1464532 125.876955,13.9512666 124.360818,14.7809995 L124.360812,14.7809995 Z M229.637645,12.7599094 C228.085516,11.9866125 226.49548,11.2395127 224.911832,10.5394784 L225.26451,9.74168983 C226.860509,10.4470498 228.462899,11.1999 230.026965,11.9791598 L229.637645,12.7599094 Z M133.704257,10.2108668 L133.357545,9.41052632 C134.953984,8.71858504 136.587031,8.05496798 138.211142,7.43799157 L138.520803,8.25366859 C136.909043,8.86574731 135.288552,9.52425113 133.704257,10.2108668 Z M220.087203,8.53841012 C218.472022,7.91206622 216.81896,7.31446822 215.17355,6.76244885 L215.451263,5.93527409 C217.109024,6.49176324 218.774881,7.09383102 220.402399,7.72528815 L220.087203,8.53841012 Z M143.434453,6.51604248 L143.162705,5.68716227 C144.820469,5.14366703 146.511879,4.63189442 148.189661,4.16655318 L148.422861,5.00693425 C146.757864,5.46886772 145.079438,5.9765891 143.434453,6.51604248 Z M210.195152,5.21905357 C208.531426,4.74476964 206.834478,4.30306731 205.151579,3.9063033 L205.351773,3.05740434 C207.047868,3.45714821 208.757595,3.90225832 210.434524,4.37995002 L210.195152,5.21905357 Z M153.475796,3.72932375 L153.281568,2.87893487 C154.981084,2.49067937 156.71231,2.13694518 158.426934,1.82771201 L158.581977,2.68598157 C156.880128,2.99308762 155.162308,3.3440606 153.475796,3.72932375 Z M200.052647,2.82782133 C198.35399,2.50900515 196.623823,2.22534125 194.909836,1.98466969 L195.030804,1.1208621 C196.757995,1.36343589 198.501796,1.64924254 200.213653,1.97040137 L200.052647,2.82782133 Z M163.730964,1.87861315 L163.615533,1.01395283 C165.342296,0.783517101 167.098451,0.589714196 168.835012,0.43850695 L168.910829,1.30742464 C167.187475,1.45778229 165.444948,1.64988287 163.730964,1.87861315 Z M189.733378,1.37813213 C188.015121,1.21627362 186.266219,1.09147275 184.534768,1.00777448 L184.577364,0.136307981 C186.32159,0.220855849 188.083708,0.346521943 189.815159,0.509642355 L189.733378,1.37813213 Z M174.112419,0.972847103 L174.075789,0.101380603 C175.679032,0.0345057005 177.312941,0.000431047946 178.932794,6.24707169e-06 L179.32764,0.00063095424 L179.325085,0.87295955 L178.932794,0.872319225 C177.325291,0.872753397 175.703311,0.906615649 174.112419,0.972847103 L174.112419,0.972847103 Z" id="Shape" fill="#3F3D56"></path>
                    <path d="M37.9261596,197.638629 C35.3079556,207.317086 26.3400281,213.311198 26.3400281,213.311198 C26.3400281,213.311198 21.6170358,203.613431 24.2352397,193.934968 C26.8534437,184.256505 35.8213868,178.262399 35.8213868,178.262399 C35.8213868,178.262399 40.5443636,187.960172 37.9261596,197.638629 Z" id="Path" fill="#54C41C"></path>
                    <path d="M14.1078026,197.638629 C16.7260066,207.317086 25.6939341,213.311198 25.6939341,213.311198 C25.6939341,213.311198 30.4169264,203.613431 27.7987225,193.934968 C25.1805185,184.256505 16.212591,178.262399 16.212591,178.262399 C16.212591,178.262399 11.4895986,187.960172 14.1078026,197.638629 Z" id="Path" fill="#54C41C"></path>
                    <path d="M17.9550679,195.558626 C25.1394596,202.552338 26.0169795,213.303308 26.0169795,213.303308 C26.0169795,213.303308 15.2463033,212.715221 8.0619116,205.721509 C0.877519913,198.727796 0,187.976826 0,187.976826 C0,187.976826 10.77067,188.56491 17.9550679,195.558626 Z" id="Path" fill="#3F3D56"></path>
                    <path d="M34.0788911,195.558626 C26.8945026,202.552338 26.0169795,213.303308 26.0169795,213.303308 C26.0169795,213.303308 36.7876589,212.715221 43.9720475,205.721509 C51.156436,198.727796 52.0339591,187.976826 52.0339591,187.976826 C52.0339591,187.976826 41.2632828,188.56491 34.0788911,195.558626 Z" id="Path" fill="#3F3D56"></path>
                    <ellipse id="Oval" fill="#3F3D56" cx="259.090205" cy="250.375571" rx="26.547206" ry="4.10790879"></ellipse>
                    <path d="M274.446894,228.453491 C271.058132,240.98039 259.450857,248.738613 259.450857,248.738613 C259.450857,248.738613 253.337854,236.186722 256.726616,223.659822 C260.115377,211.132922 271.722652,203.374696 271.722652,203.374696 C271.722652,203.374696 277.835658,215.926591 274.446894,228.453491 Z" id="Path" fill="#54C41C"></path>
                    <path d="M243.618613,228.453491 C247.007375,240.98039 258.614649,248.738613 258.614649,248.738613 C258.614649,248.738613 264.727656,236.186722 261.338894,223.659822 C257.950133,211.132922 246.342858,203.374696 246.342858,203.374696 C246.342858,203.374696 240.229852,215.926591 243.618613,228.453491 Z" id="Path" fill="#54C41C"></path>
                    <path d="M248.59816,225.761324 C257.896973,234.813331 259.032753,248.728402 259.032753,248.728402 C259.032753,248.728402 245.092185,247.96724 235.793372,238.915221 C226.494559,229.863202 225.358779,215.948143 225.358779,215.948143 C225.358779,215.948143 239.299347,216.709305 248.59816,225.761324 Z" id="Path" fill="#3F3D56"></path>
                    <path d="M269.46735,225.761324 C260.168537,234.813331 259.032753,248.728402 259.032753,248.728402 C259.032753,248.728402 272.973325,247.96724 282.272135,238.915221 C291.570945,229.863202 292.706731,215.948143 292.706731,215.948143 C292.706731,215.948143 278.76616,216.709305 269.46735,225.761324 Z" id="Path" fill="#3F3D56"></path>
                    <ellipse id="Oval" fill="#3F3D56" cx="128.20099" cy="227.694784" rx="76.0580978" ry="11.7692144"></ellipse>
                    <circle id="Oval" fill="#2F2E41" cx="164.505457" cy="72.2463002" r="5.19841324"></circle>
                    <path d="M158.93573,70.018407 C158.936091,67.3632782 160.937317,65.1351548 163.577167,64.8507262 C161.596358,64.6343725 159.666171,65.5693069 158.607965,67.2576836 C157.54976,68.9460603 157.54976,71.0907569 158.607965,72.7791335 C159.666171,74.4675102 161.596358,75.4024446 163.577167,75.1860909 C160.937316,74.9016608 158.936091,72.6735365 158.93573,70.018407 Z" id="Path" fill="#2F2E41"></path>
                    <path d="M159.307047,72.2463002 C159.307047,72.2463002 158.499688,75.9594503 163.544807,77.4447134" id="Path" fill="#54C41C"></path>
                    <circle id="Oval" fill="#2F2E41" cx="166.655412" cy="90.1045198" r="17.4518132"></circle>
                    <path d="M149.804966,144.540765 L149.180259,157.659616 L179.166203,167.654931 C179.166203,167.654931 177.604435,151.100191 178.541496,149.538423 L149.804966,144.540765 Z" id="Path" fill="#FAD6C6"></path>
                    <polygon id="Path" fill="#FAD6C6" points="101.077932 202.950804 98.26675 213.88318 111.3856 213.88318 111.3856 202.950804"></polygon>
                    <polygon id="Path" fill="#FAD6C6" points="169.171014 205.857254 175.105732 207.948462 178.229268 200.105888 172.919257 195.922849"></polygon>
                    <path d="M179.687325,192.244082 C179.687325,192.244082 188.536811,191.081449 188.536811,198.577935 C188.536811,206.074421 189.786225,224.503283 177.292082,222.316808 C177.292082,222.316808 171.669717,222.941515 173.856192,216.38209 C173.856192,216.38209 176.081943,213.713719 175.281421,212.080543 C174.4809,210.447368 169.795596,209.197957 170.420303,208.260896 C171.04501,207.323836 177.916789,199.82735 177.916789,199.82735 L179.687325,192.244082 Z" id="Path" fill="#2F2E41"></path>
                    <path d="M179.790911,166.093163 L149.180259,155.473141 L147.306138,162.969627 C147.306138,162.969627 101.390161,136.419572 98.5789786,154.53608 C98.5789786,154.53608 96.0801499,169.216698 99.8283929,188.582621 L100.140747,204.2003 C100.140747,204.2003 107.949586,206.074421 111.697829,204.512653 L112.010183,187.64556 C112.010183,187.64556 115.133719,176.713184 113.571951,168.279638 C113.571951,168.279638 136.998469,186.708499 147.618491,188.894974 C147.618491,188.894974 110.448415,217.631504 114.821365,226.689758 C119.194315,235.748012 124.504326,237.30978 131.376105,235.748012 C136.111638,234.671754 157.312454,217.575221 170.036289,207.049564 C178.835508,199.770501 183.832369,188.778701 183.205854,177.376139 C182.978191,173.232682 182.022005,169.216698 179.790911,166.093163 Z" id="Path" fill="#2F2E41"></path>
                    <path d="M100.4531,209.822664 C100.4531,209.822664 100.140747,206.074421 98.266625,207.636189 C96.3925035,209.197957 89.8330782,215.132675 89.8330782,215.132675 C89.8330782,215.132675 66.0942058,221.379747 80.4624707,227.314465 C80.4624707,227.314465 89.8330782,229.188587 99.8283929,224.815636 C99.8283929,224.815636 115.793206,225.273016 115.463464,221.296083 C115.133722,217.31915 111.385476,210.677333 111.385476,210.677333 C111.385476,210.677333 107.012525,213.883261 102.014868,209.510311 L100.4531,209.822664 Z" id="Path" fill="#2F2E41"></path>
                    <circle id="Oval" fill="#FAD6C6" cx="162.29911" cy="97.0630205" r="11.5570826"></circle>
                    <path d="M171.669717,97.6877276 C171.669717,97.6877276 173.543839,107.058335 176.979728,109.24481 L157.92616,131.734268 L150.742027,124.862489 L156.052038,115.491882 C156.052038,115.491882 161.986756,112.055993 160.112635,107.370689 L171.669717,97.6877276 Z" id="Path" fill="#FAD6C6"></path>
                    <path d="M178.541496,110.181871 C178.541496,110.181871 192.285054,112.993053 193.846822,122.051307 C195.40859,131.109561 192.285054,147.664301 192.285054,147.664301 L185.725629,196.39146 C185.725629,196.39146 185.413275,217.006797 177.292082,213.570907 C169.170889,210.135018 179.478557,194.517339 179.478557,194.517339 L182.289739,163.906687 C182.289739,163.906687 183.539154,137.98134 181.040325,134.857804 L171.04501,131.734268 C171.04501,131.734268 173.231485,111.118932 178.541496,110.181871 Z" id="Path" fill="#FAD6C6"></path>
                    <path d="M156.052038,115.491882 C156.052038,115.491882 146.681431,115.179528 140.746712,122.676014 C134.811994,130.1725 120.44373,135.794865 120.44373,135.794865 L84.5230673,149.850776 C84.5230673,149.850776 77.963642,138.293694 73.9030454,142.35429 C69.8424489,146.414887 81.3995315,156.722555 86.7095424,155.473141 C92.0195533,154.223726 124.191973,144.540765 124.191973,144.540765 L149.804966,132.983683 L156.052038,115.491882 Z" id="Path" fill="#FAD6C6"></path>
                    <path d="M176.495486,108.500525 C176.495486,108.500525 164.485585,124.550136 159.175574,124.237782 C153.865563,123.925429 157.441918,114.435243 157.441918,114.435243 L153.693675,115.372304 C153.693675,115.372304 148.555552,125.174843 147.930845,125.79955 C147.930845,125.79955 140.434359,137.98134 148.867906,140.792522 L149.180259,147.351948 C149.180259,147.351948 170.107949,146.414887 179.166203,151.100191 L181.040325,134.857804 C181.040325,134.857804 169.170889,128.923086 175.730314,117.366003 C175.730314,117.366003 178.057254,111.311707 180.556083,110.687 L176.495486,108.500525 Z" id="Path" fill="#EA565C"></path>
                    <path d="M179.634734,194.361162 L131.844635,229.344763 C131.844635,229.344763 179.947087,200.920587 179.634734,194.361162 Z" id="Path" fill="#000000" opacity="0.1"></path>
                    <path d="M162.926978,83.4973544 C156.774827,83.4973544 151.787512,86.4066156 151.787512,89.9953709 C151.787512,91.6011307 152.790002,93.0686928 154.444782,94.2024613 L156.589252,92.6486428 L156.006088,95.082883 C156.248065,95.195018 156.49514,95.3035577 156.752844,95.4038638 L159.956458,91.6663033 L159.956458,96.257901 C160.938791,96.4152894 161.932117,96.4940369 162.926978,96.4933976 C169.079132,96.4933976 174.066444,93.5841324 174.066444,89.9953803 C174.066444,86.4066281 169.079132,83.4973544 162.926978,83.4973544 Z" id="Path" fill="#2F2E41"></path>
                    <circle id="Oval" fill="#2F2E41" cx="185.745501" cy="80.3674934" r="5.19841324"></circle>
                    <path d="M180.175774,78.1396002 C180.176135,75.4844713 182.17736,73.256348 184.817211,72.9719194 C182.836401,72.7555657 180.906214,73.6905001 179.848009,75.3788768 C178.789803,77.0672534 178.789803,79.2119501 179.848009,80.9003267 C180.906214,82.5887034 182.836401,83.5236378 184.817211,83.3072841 C182.17736,83.022854 180.176135,80.7947297 180.175774,78.1396002 Z" id="Path" fill="#2F2E41"></path>
                    <path d="M180.54709,80.3674934 C180.54709,80.3674934 179.739731,84.0806434 184.784851,85.5659066" id="Path" fill="#54C41C"></path>
                    <ellipse id="Oval" fill="#FAD6C6" cx="174.324723" cy="96.1259597" rx="1" ry="2.0302983"></ellipse>
                    <path d="M74.7334999,103.980412 L61.0371545,107.298782 L60.9925316,107.309402 L59.5036889,108.657292 L59.075171,109.044732 L58.156511,108.878279 L56.5302577,108.584339 L57.6635327,104.759531 L57.8760237,97.46407 L57.0968952,93.0017867 L61.4175105,90.0269311 C61.4175105,90.0269311 69.8462408,89.5311448 74.7334999,103.980412 Z" id="Path" fill="#FEFEFE"></path>
                    <path d="M61.0371451,107.298782 C60.8515727,107.694724 61.2404279,107.433362 61.0279369,107.840634 L59.044704,108.478101 L58.1565016,108.878285 L56.5302483,108.584345 L57.6635233,104.759538 L57.8760144,97.4640762 L57.0968858,93.0017929 L61.4175012,90.0269374 C61.4175012,90.0269374 66.0547212,96.5942839 61.0371451,107.298782 Z" id="Path" fill="#000000" opacity="0.1"></path>
                    <path d="M90.8826706,93.4976105 C90.8826706,93.4976105 72.8919194,101.855521 65.5964548,103.130454 C58.3009902,104.405388 58.9384601,111.700853 58.9384601,111.700853 L99.8072185,105.326178 C99.8072185,105.326178 98.3906231,98.739013 90.8826706,93.4976105 Z" id="Path" fill="#FEFEFE"></path>
                    <path d="M56.1761018,92.0810151 C56.1761018,92.0810151 59.2926097,99.659797 55.8219522,109.080153 L59.8592472,110.921727 L61.4175012,109.080153 L61.4529158,108.90308 L57.1677151,108.513516 C57.1677151,108.513516 60.7092019,99.0223395 57.8051851,92.4351648 C57.8051851,92.4351648 57.1677151,91.0185694 56.1761018,92.0810151 Z" id="Path" fill="#54C41C"></path>
                    <path d="M115.602249,148.248996 C99.6655568,144.707509 84.8267281,152.038388 84.8267281,152.038388 L84.7863533,152.002265 L78.8770295,146.726156 L55.7865376,109.044738 L61.4175012,109.080153 C77.070873,99.7306294 99.0989193,101.005563 99.0989193,101.005563 C108.590105,111.771682 115.602249,148.248996 115.602249,148.248996 Z" id="Path" fill="#54C41C"></path>
                    <path d="M84.7863533,152.002265 L78.8770295,146.726156 L55.7865376,109.044738 L61.4175012,109.080153 C61.4175012,109.080153 83.8606091,138.721687 84.7863533,152.002265 Z" id="Path" fill="#000000" opacity="0.1"></path>
                    <ellipse id="Oval" fill="#FFFFFF" transform="translate(85.676690, 117.048494) rotate(-17.051850) translate(-85.676690, -117.048494) " cx="85.6766904" cy="117.048494" rx="9.13703576" ry="5.80803686"></ellipse>
                </g>
            </g>
        </g>
    </g>
</svg>