<?xml version="1.0" encoding="UTF-8"?>
<svg width="453px" height="300px" viewBox="0 0 453 300" version="1.1" xmlns="http://www.w3.org/2000/svg" xmlns:xlink="http://www.w3.org/1999/xlink">
    <!-- Generator: Sketch 61.2 (89653) - https://sketch.com -->
    <title>img-problem-2</title>
    <desc>Created with Sketch.</desc>
    <g id="img-problem-2" stroke="none" stroke-width="1" fill="none" fill-rule="evenodd">
        <g id="undraw_healthy_options_sdo3" transform="translate(77.000000, 5.000000)" fill-rule="nonzero">
            <path d="M102.53584,196.506958 C101.499356,196.506958 100.452287,196.490543 99.4245596,196.458437 L99.4479088,195.71199 C100.92365,195.75796 102.429674,195.770729 103.912349,195.750298 L103.922563,196.497473 C103.46105,196.503679 102.99881,196.506841 102.53584,196.506958 Z M108.418018,196.33367 L108.374237,195.587948 C109.852168,195.500753 111.349073,195.378171 112.823357,195.223846 L112.901436,195.966646 C111.415844,196.122428 109.907623,196.246104 108.418018,196.33367 L108.418018,196.33367 Z M94.9331167,196.217282 C93.4427832,196.103091 91.9367591,195.953511 90.4566358,195.771824 L90.5478435,195.030488 C92.0166545,195.210348 93.511004,195.359201 94.9900327,195.472297 L94.9331167,196.217282 Z M117.362955,195.395681 L117.25095,194.657263 C118.719399,194.434351 120.199152,194.175687 121.647898,193.887834 L121.793466,194.620417 C120.333412,194.910459 118.842709,195.171312 117.362955,195.395681 L117.362955,195.395681 Z M86.0058765,195.122425 C84.5335986,194.872868 83.0474568,194.586121 81.5888634,194.26945 L81.7473802,193.539057 C83.1948482,193.853543 84.6694985,194.138108 86.1306472,194.385464 L86.0058765,195.122425 Z M126.184578,193.642305 L126.005081,192.917019 C127.44653,192.560579 128.896004,192.16656 130.313376,191.746274 L130.525708,192.462815 C129.09739,192.886373 127.63697,193.283329 126.184578,193.642305 L126.184578,193.642305 Z M77.2161614,193.213991 C75.7719735,192.829823 74.31867,192.407348 72.8965574,191.957512 L73.1216587,191.245361 C74.5330083,191.691551 75.9751863,192.110743 77.408062,192.491626 L77.2161614,193.213991 Z M134.807718,191.084106 L134.562552,190.378522 C135.961315,189.892201 137.368107,189.366474 138.744616,188.815582 L139.021885,189.509495 C137.635177,190.064403 136.217443,190.594138 134.807733,191.084106 L134.807718,191.084106 Z M68.6283926,190.498915 C67.2257999,189.983409 65.8144504,189.42704 64.4339255,188.845499 L64.7239675,188.156697 C66.0939124,188.73386 67.4943159,189.28585 68.8863286,189.79771 L68.6283926,190.498915 Z M143.149588,187.746263 L142.840213,187.066218 C144.183521,186.455855 145.533778,185.804266 146.853356,185.129691 L147.19338,185.795143 C145.863588,186.474826 144.503129,187.131155 143.149603,187.746263 L143.149588,187.746263 Z M151.143775,183.659785 L150.773834,183.011114 C152.062057,182.27598 153.348086,181.503267 154.595446,180.714138 L154.994572,181.345296 C153.737742,182.140629 152.442223,182.919544 151.14379,183.659785 L151.143775,183.659785 Z M158.736288,178.856415 L158.308706,178.244229 C159.521771,177.396724 160.73228,176.509091 161.906674,175.606497 L162.361984,176.198984 C161.178844,177.108508 159.958846,178.002709 158.736288,178.856415 Z M44.8572635,177.80424 C43.6513234,176.928282 42.4466386,176.010729 41.2764285,175.076399 L41.7426655,174.492668 C42.9039245,175.419703 44.0994788,176.330322 45.296124,177.19935 L44.8572635,177.80424 Z M165.863271,173.378836 L165.381694,172.807509 C166.512304,171.853475 167.637445,170.859311 168.726467,169.852377 L169.233582,170.401083 C168.136542,171.415679 167.002656,172.417506 165.863278,173.378836 L165.863271,173.378836 Z M37.8244177,172.188755 C36.7012833,171.20517 35.5854488,170.182184 34.5081012,169.147888 L35.0254301,168.608667 C36.094753,169.635285 37.2020174,170.650629 38.3165742,171.626917 L37.8244177,172.188755 Z M172.465624,167.271934 L171.933699,166.747306 C172.976008,165.691122 174.007038,164.598083 174.997553,163.498847 L175.552827,163.998666 C174.554658,165.106648 173.51598,166.207711 172.465624,167.271934 Z M31.3344018,165.96 C30.3039357,164.876451 29.2862389,163.756421 28.3095844,162.63128 L28.8739778,162.141676 C29.8431531,163.258425 30.8530083,164.369702 31.8758121,165.44486 L31.3344018,165.96 Z M178.487879,160.587858 L177.910716,160.113578 C178.852343,158.967644 179.779382,157.785225 180.667018,156.598427 L181.26534,157.045708 C180.371163,158.241618 179.436832,159.433522 178.487905,160.587858 L178.487879,160.587858 Z M25.4400037,159.169392 C24.5146278,158.000108 23.6034482,156.792883 22.7316783,155.581276 L23.3380106,155.144926 C24.2032091,156.347048 25.1074437,157.545154 26.0259083,158.706047 L25.4400037,159.169392 Z M183.878263,153.379882 L183.260237,152.960344 C184.093513,151.733416 184.909625,150.470735 185.685637,149.206594 L186.322634,149.597691 C185.540095,150.871292 184.717766,152.143824 183.878289,153.379882 L183.878263,153.379882 Z M20.1906641,151.874579 C19.3765424,150.626491 18.5797553,149.342284 17.8221799,148.056617 L18.4657402,147.677194 C19.2176595,148.952995 20.0084319,150.227728 20.8163519,151.465968 L20.1906641,151.874579 Z M188.591191,145.706375 L187.937413,145.345191 C188.654675,144.047121 189.351501,142.714015 190.009291,141.382755 L190.679133,141.714023 C190.016576,143.055145 189.313911,144.398453 188.59118,145.706375 L188.591191,145.706375 Z M192.581354,137.629005 L191.896942,137.329116 C192.492347,135.969388 193.064029,134.576826 193.596324,133.190466 L194.293883,133.458253 C193.757557,134.855556 193.181126,136.258698 192.581343,137.629005 L192.581354,137.629005 Z M11.8015354,136.016815 C11.2287513,134.642129 10.6802279,133.235707 10.1712861,131.836212 L10.8735892,131.580831 C11.378515,132.969743 11.922843,134.365223 12.4910694,135.729328 L11.8015354,136.016815 Z M195.812287,129.2116 L195.103058,128.976651 C195.569295,127.571682 196.009299,126.135706 196.410614,124.70812 L197.130061,124.910231 C196.725462,126.3488 196.281819,127.796077 195.812287,129.2116 Z M8.73202578,127.574237 C8.28747922,126.150302 7.86974876,124.695717 7.49050528,123.250255 L8.2132362,123.060544 C8.58956197,124.495059 9.00419165,125.938698 9.44527132,127.351691 L8.73202578,127.574237 Z M198.247539,120.552708 L197.519701,120.383409 C197.854252,118.94342 198.159978,117.47279 198.42886,116.013094 L199.163631,116.148083 C198.892926,117.61946 198.584642,119.101044 198.247539,120.552708 L198.247539,120.552708 Z M6.45002335,118.873739 C6.13845148,117.414413 5.85644158,115.927722 5.61200336,114.45417 L6.34896423,114.331585 C6.59175866,115.79418 6.87158308,117.269573 7.18077893,118.71759 L6.45002335,118.873739 Z M199.875797,111.707003 L199.13519,111.605566 C199.33621,110.142225 199.505856,108.650068 199.63975,107.170311 L200.384007,107.237441 C200.249003,108.728884 200.077897,110.232356 199.875782,111.707003 L199.875797,111.707003 Z M4.97756234,110.001039 C4.80134865,108.522006 4.65669188,107.015623 4.54742505,105.523826 L5.29277669,105.469102 C5.40094891,106.94995 5.54469413,108.444666 5.71963015,109.912749 L4.97756234,110.001039 Z M200.68826,102.750033 L199.941832,102.716466 C200.00823,101.23598 200.042159,99.7343345 200.042159,98.2534828 L200.789334,98.2534828 C200.789319,99.745643 200.75539,101.258597 200.68826,102.750033 Z M4.32104604,101.030941 C4.29550761,100.114852 4.28256655,99.1801513 4.28237228,98.253479 C4.28237228,97.6785057 4.28729741,97.1046269 4.29714766,96.5318427 L5.04432241,96.5449743 C5.03447215,97.1133825 5.02954703,97.6828841 5.02954703,98.253479 C5.02973008,99.1732213 5.04268236,100.100988 5.06785467,101.010513 L4.32104604,101.030941 Z M5.22163071,92.0843635 L4.47591669,92.0376651 C4.56913048,90.5447763 4.69791725,89.0369254 4.85825721,87.5558943 L5.60105725,87.6363388 C5.44180816,89.1062482 5.31428785,90.6026002 5.2216195,92.0843635 L5.22163071,92.0843635 Z M199.559712,87.5260035 C199.410494,86.0529971 199.205234,85.3348015 198.988523,83.868176 L199.72767,83.7590884 C199.945845,85.2368395 200.133012,86.3648977 200.283672,87.8490333 L199.559712,87.5260035 Z M6.18276641,83.2105688 L5.44434856,83.0963781 C5.67327916,81.618261 5.93924349,80.128473 6.23493789,78.6678734 L6.96716914,78.815997 C6.67383207,80.2654675 6.40987391,81.7439619 6.18276641,83.2105688 Z M198.234404,79.4688596 C197.949472,78.0113571 197.628071,76.544186 197.278547,75.1082096 L198.004562,74.9316335 C198.356623,76.3785374 198.680594,77.8570318 198.967715,79.3254805 L198.234404,79.4688596 Z M7.95256561,74.462277 L7.22782852,74.2805903 C7.59065284,72.8334884 7.99251331,71.374342 8.42228449,69.9434762 L9.13770431,70.15836 C8.71141496,71.5782759 8.31265527,73.0263006 7.95256561,74.462277 Z M196.122761,70.7960848 C195.706125,69.3734267 195.250808,67.9423741 194.769601,66.54215 L195.475913,66.2991725 C195.961139,67.7101597 196.420099,69.1525208 196.840019,70.5859419 L196.122761,70.7960848 Z M10.524625,65.9020529 L9.81977398,65.6543345 C10.316309,64.2418904 10.8524293,62.8226954 11.4131727,61.4361595 L12.1059867,61.7163501 C11.5494387,63.0921229 11.0173307,64.5005548 10.524625,65.9020529 L10.524625,65.9020529 Z M193.221257,62.3549827 C192.676193,60.9799309 192.092467,59.5999552 191.486119,58.2531802 L192.167625,57.9463566 C192.778717,59.3035323 193.36684,60.6940917 193.915894,62.079533 L193.221257,62.3549827 Z M13.8781582,57.6094368 L13.1992043,57.2974914 C13.8232483,55.9384926 14.4874269,54.5756645 15.1733072,53.2469487 L15.8373027,53.5895283 C15.1565256,54.9082245 14.4974577,56.2606556 13.8781582,57.6094368 Z M189.56455,54.2338321 C188.895829,52.9147847 188.187313,51.5930027 187.458743,50.3056953 L188.108875,49.9375773 C188.84328,51.2349192 189.556899,52.5667358 190.230735,53.8960007 L189.56455,54.2338321 Z M17.9790455,49.665049 L17.3314691,49.2922088 C18.0768208,47.9979677 18.8628486,46.7024526 19.6678509,45.4419576 L20.2975474,45.8440011 C19.4987504,47.0949958 18.718558,48.3806594 17.9790455,49.665049 L17.9790455,49.665049 Z M185.174899,46.4764248 C184.385404,45.2195797 183.558696,43.9674792 182.717758,42.7547772 L183.331406,42.3290184 C184.178911,43.5510227 185.012175,44.8126086 185.807517,46.0791221 L185.174899,46.4764248 Z M22.7882507,42.134017 L22.177525,41.7035173 C23.0388904,40.4818866 23.9394788,39.2642533 24.8548389,38.0843897 L25.4451368,38.5422509 C24.5368899,39.7133614 23.6428692,40.9216961 22.7882507,42.134017 Z M180.092444,39.1482357 C179.192039,37.9689175 178.254424,36.7965331 177.304769,35.6637303 L177.877553,35.1837975 C178.834142,36.3253535 179.779053,37.5064948 180.686388,38.694753 L180.092444,39.1482357 Z M28.2625497,35.0765481 L27.6937742,34.5920501 C28.6603979,33.4566956 29.6678771,32.3266162 30.6881293,31.2332306 L31.2342841,31.7429009 C30.2218586,32.8280788 29.2220529,33.9497525 28.2625497,35.0765481 Z M174.361296,32.3089343 C173.357646,31.2164491 172.316417,30.1336285 171.26716,29.0909386 L171.793978,28.5608406 C172.85126,29.6117419 173.900148,30.7025834 174.911464,31.8032801 L174.361296,32.3089343 Z M34.3537723,28.5491548 L33.8313365,28.0150406 C34.8997441,26.9697992 36.0053647,25.9364005 37.1171906,24.9437079 L37.614809,25.5011712 C36.5113851,26.4862165 35.4141552,27.5117549 34.3537723,28.5491548 Z M168.030021,26.0163071 C166.930057,25.0186756 165.794336,24.0347287 164.654604,23.0918203 L165.131073,22.5161222 C166.279197,23.4661549 167.423674,24.4575736 168.53203,25.4628673 L168.030021,26.0163071 Z M41.0104866,22.6047744 L40.5387616,22.0254226 C41.6943644,21.084356 42.8886261,20.1562081 44.0885888,19.2667489 L44.5336845,19.8668983 C43.342673,20.7497899 42.1573363,21.670806 41.0104866,22.6047744 Z M48.1766881,17.2933744 L47.7596862,16.6735257 C48.9964659,15.8413449 50.2697263,15.0264948 51.5442645,14.251047 L51.9324442,14.8895078 C50.6677575,15.6589297 49.4041655,16.4677613 48.1766881,17.2933744 Z M55.7932754,12.6603829 L55.4346315,12.0047782 C56.7430989,11.288798 58.084767,10.5941571 59.4222359,9.93983375 L59.7505856,10.6111217 C58.4233455,11.260353 57.0918913,11.949689 55.7932754,12.6603829 Z M145.966101,10.9292575 C144.636656,10.2668871 143.27474,9.62699169 141.918281,9.02739143 L142.220364,8.34406276 C143.587388,8.94822079 144.95988,9.59306248 146.299542,10.2605212 L145.966101,10.9292575 Z M63.7962156,8.74592323 L63.4992435,8.0603904 C64.866633,7.46772018 66.2653965,6.89931447 67.6564976,6.37085645 L67.9217447,7.06950593 C66.5412086,7.59378351 65.1532082,8.15781451 63.7962156,8.74592323 Z M137.785852,7.31340245 C136.40241,6.77693098 134.986502,6.26505651 133.577155,5.79223685 L133.815026,5.08373214 C135.234949,5.56038479 136.661806,6.0760736 138.055829,6.61693472 L137.785852,7.31340245 Z M72.1304268,5.58119361 L71.8976819,4.8712319 C73.3176053,4.40570468 74.766351,3.96735967 76.2034221,3.56878304 L76.403168,4.28859625 C74.9770206,4.68425516 73.5394041,5.11913328 72.1304268,5.58119361 Z M129.313006,4.47027926 C127.887976,4.06404035 126.434486,3.68571215 124.99304,3.34587093 L125.164517,2.61876156 C126.617275,2.96115438 128.081707,3.3424003 129.51805,3.7515644 L129.313006,4.47027926 Z M80.7311441,3.19428411 L80.5647819,2.46589708 C82.0204576,2.13335201 83.5033156,1.83036145 84.9719436,1.56549173 L85.1047427,2.30062949 C83.6470571,2.56367236 82.1756944,2.86429439 80.7311441,3.19428411 Z M120.625643,2.42211637 C119.170692,2.14904268 117.688749,1.90606146 116.220674,1.69993462 L116.324285,0.960056038 C117.803691,1.16782666 119.297293,1.41262725 120.763557,1.68771084 L120.625643,2.42211637 Z M89.5150051,1.60909685 L89.416139,0.868489773 C90.8951714,0.671116092 92.3993649,0.505116279 93.8867806,0.375604745 L93.9517213,1.11985804 C92.4756141,1.24863734 90.9830877,1.41317643 89.5150051,1.60909685 Z M111.786872,1.18042029 C110.31514,1.04178575 108.817144,0.934891193 107.334103,0.863199776 L107.370587,0.116772205 C108.864563,0.189192117 110.373879,0.296818904 111.85692,0.436562996 L111.786872,1.18042029 Z M98.4070421,0.833282899 L98.3756608,0.0868553283 C99.7488858,0.0295769123 101.148378,0.000388530868 102.535833,2.24152424e-05 L102.87403,0.00057158868 L102.871841,0.747746334 L102.535833,0.747197161 C101.158965,0.747540861 99.7696871,0.776546185 98.4070421,0.833282899 L98.4070421,0.833282899 Z" id="Shape" fill="#3F3D56"></path>
            <path d="M222.748176,35.1942019 L222.748176,277.353518 C222.742186,283.360123 217.872184,288.228682 211.865576,288.228682 L113.556059,288.228682 C110.669562,288.23372 107.899726,287.089813 105.857961,285.049449 C103.816196,283.009086 102.670387,280.240036 102.673452,277.353537 L102.673452,35.1942019 C102.673452,32.3078807 103.819686,29.5397042 105.860624,27.4987669 C107.901561,25.4578295 110.669737,24.3116012 113.556059,24.3116012 L128.267929,24.3116012 L128.267929,26.198218 C128.26731,31.1467909 132.277982,35.159135 137.226555,35.1605791 L187.227489,35.1605791 C189.140303,35.1646619 191.003391,34.5514937 192.539901,33.4121902 C192.850501,33.1862554 193.145093,32.9390973 193.421567,32.6724872 C195.190237,30.9836501 196.189411,28.6436942 196.186114,26.198218 L196.186114,24.3116012 L211.865576,24.3116012 C214.752092,24.3116012 217.520638,25.4569899 219.561713,27.498065 C221.602788,29.5391401 222.748176,32.3076859 222.748176,35.1942019 Z" id="Path" fill="#3F3D56"></path>
            <rect id="Rectangle" fill="#54C41C" x="117.046377" y="111.607774" width="91.3288839" height="69.4872513"></rect>
            <path d="M68.9535295,99.8998001 C77.0849575,100.074228 83.5534137,105.966904 83.5534137,105.966904 C83.5534137,105.966904 76.8382143,111.576774 68.7067862,111.402342 C60.5753582,111.227911 54.1069095,105.335257 54.1069095,105.335257 C54.1069095,105.335257 60.8221052,99.7253722 68.9535295,99.8998001 Z" id="Path" fill="#54C41C"></path>
            <path d="M28.0728645,72.1430092 C35.4192584,75.6331447 43.8432241,73.266435 43.8432241,73.266435 C43.8432241,73.266435 40.3563276,65.2410946 33.0099374,61.7509779 C25.6635472,58.2608611 17.2395778,60.6275521 17.2395778,60.6275521 C17.2395778,60.6275521 20.7264668,68.6528738 28.0728645,72.1430092 Z" id="Path" fill="#54C41C"></path>
            <path d="M28.8196432,68.6747063 C36.9191893,67.9344952 44.0087121,73.0631587 44.0087121,73.0631587 C44.0087121,73.0631587 37.9662763,79.391938 29.8667264,80.1321491 C21.7671766,80.8723601 14.6776576,75.7436966 14.6776576,75.7436966 C14.6776576,75.7436966 20.7200971,69.4149173 28.8196432,68.6747063 Z" id="Path" fill="#3F3D56"></path>
            <path d="M58.5100514,70.0770076 C57.7337144,78.1731727 62.8306939,85.2855067 62.8306939,85.2855067 C62.8306939,85.2855067 69.1863715,79.2713627 69.9627085,71.1751975 C70.7390455,63.0790324 65.642051,55.9667022 65.642051,55.9667022 C65.642051,55.9667022 59.2863921,61.9808424 58.5100514,70.0770076 Z" id="Path" fill="#3F3D56"></path>
            <path d="M96.6549099,119.730539 C92.4066573,126.666166 93.8682619,135.293345 93.8682619,135.293345 C93.8682619,135.293345 102.217645,132.675651 106.465897,125.740024 C110.71415,118.804397 109.252549,110.177219 109.252549,110.177219 C109.252549,110.177219 100.903166,112.794912 96.6549099,119.730539 Z" id="Path" fill="#3F3D56"></path>
            <path d="M84.330184,195.138623 L84.9493005,194.720164 C82.7670573,191.553333 81.5755175,187.809243 81.5260895,183.963654 C81.5434239,178.338339 84.3064761,173.135276 86.9786756,168.10354 C87.4746652,167.169571 87.9690109,166.238521 88.444569,165.308202 C90.4407386,161.514391 92.0315536,157.520783 93.1906603,153.393537 C97.3355113,137.99053 93.2546895,119.817921 82.2747212,104.781575 C73.564371,92.8534118 60.5798412,82.4228822 42.5796059,72.8938489 L42.2300962,73.5541945 C60.1278154,83.0288671 73.029166,93.387709 81.6712917,105.222292 C92.5191893,120.077497 96.5556851,138.012975 92.469024,153.199447 C91.3234486,157.27615 89.751594,161.220829 87.7794826,164.968178 C87.3054002,165.895048 86.8128589,166.822434 86.3186962,167.753119 C83.6039862,172.865139 80.7967909,178.151176 80.7789147,183.961487 C80.8282942,187.956895 82.0644162,191.84742 84.330184,195.138623 L84.330184,195.138623 Z" id="Path" fill="#3F3D56"></path>
            <circle id="Oval" fill="#3F3D56" cx="7.09830578" cy="66.7774391" r="7.09816008"></circle>
            <polygon id="Path" fill="#57993C" points="107.018586 181.997198 62.4611936 178.284113 62.4611936 112.933221 107.018586 110.70552"></polygon>
            <polygon id="Path" fill="#57993C" points="218.402914 181.997198 262.960306 178.284113 262.960306 112.933221 218.402914 110.70552"></polygon>
            <path d="M178.198917,137.689213 C175.488707,135.347957 171.639435,134.858631 168.429644,136.447326 C167.06618,137.106847 165.599276,137.526515 164.093303,137.687913 C164.055841,134.426054 164.654614,131.188174 165.85612,128.155435 L166.053132,127.646863 L163.43437,127.646863 L163.359215,127.921763 C163.067409,128.994182 162.837522,130.082495 162.670694,131.181313 C162.529084,130.705026 162.345745,130.242155 162.122809,129.79808 C160.28588,126.156148 156.041618,124.666543 155.861754,124.60507 L155.499841,124.481039 L155.384373,124.84569 C155.327094,125.02701 154.001846,129.325271 155.838588,132.967386 C157.15369,135.574992 159.702494,137.078831 161.11047,137.745467 C159.328473,137.630699 157.586742,137.164794 155.985434,136.374544 C153.948192,135.324731 151.490059,135.532215 149.657611,136.908658 C144.767957,140.624283 141.963497,146.070851 141.963497,151.85197 C141.963497,159.446302 146.88161,166.401083 154.493087,169.570008 C155.17972,169.854827 155.915912,170.001012 156.659273,170.00015 C157.691472,170.00015 158.704659,169.722443 159.592334,169.195693 C161.993879,167.798909 164.959,167.792924 167.366164,169.180002 C168.916462,170.094442 170.806274,170.227519 172.469424,169.539363 C180.036574,166.358031 184.926045,159.415291 184.926045,151.85197 C184.926045,146.438416 182.536763,141.408667 178.198917,137.689213 Z M164.006063,128.394038 L164.967576,128.394038 C163.886049,131.290654 163.33481,134.358313 163.34023,137.450248 L163.168578,137.450248 C162.937065,134.405899 163.22019,131.344302 164.006063,128.394038 L164.006063,128.394038 Z M156.505856,132.631004 C155.111288,129.866132 155.722929,126.57061 155.993268,125.458601 C157.047815,125.901141 160.058403,127.364483 161.455526,130.134465 C162.849728,132.898975 162.238453,136.193948 161.968114,137.306502 C160.912838,136.862501 157.899879,135.395334 156.505856,132.631004 L156.505856,132.631004 Z M172.179744,168.850558 C170.734172,169.448364 169.091651,169.331749 167.745038,168.535706 C165.102929,167.010672 161.846414,167.017494 159.210718,168.553586 C157.867337,169.352825 156.226337,169.4739 154.780204,168.880474 C147.448178,165.827929 142.710668,159.143854 142.710668,151.851966 C142.710668,146.306528 145.407502,141.076671 150.109633,137.503693 C151.011671,136.822302 152.111971,136.454938 153.24244,136.457723 C154.077441,136.457165 154.900469,136.656308 155.64285,137.038536 C159.78635,139.015787 164.595318,139.044338 168.762002,137.116425 C171.703101,135.661297 175.229848,136.110542 177.712229,138.256524 C181.882253,141.831688 184.178866,146.659867 184.178866,151.851966 C184.178866,159.113937 179.468893,165.785972 172.179744,168.850558 L172.179744,168.850558 Z" id="Shape" fill="#FFFFFF"></path>
            <path d="M84.6178313,130.628617 L84.6178313,129.751561 L84.9664294,129.751561 L84.9664294,127.019143 C84.9691135,126.606211 84.741375,126.226225 84.3759484,126.033914 C82.833989,125.229461 81.1769198,125.230373 79.4507257,126.037747 C79.0617802,126.222457 78.8141646,126.614833 78.8148239,127.04541 L78.8148239,129.751546 L79.1634221,129.751546 L79.1634221,130.545602 C76.5261716,131.284699 74.7069654,133.693686 74.7177181,136.432525 L74.7177181,142.344982 L75.3817615,142.566433 L74.7177181,143.008974 L74.7177181,144.785703 L75.3817615,145.007154 L74.7177181,145.449878 L74.7177181,147.226607 L75.3817615,147.447879 L74.7177181,147.890602 L74.7177181,161.422927 C74.720261,163.620697 76.5012192,165.401754 78.6989894,165.404371 L84.5682152,165.404371 C86.7610286,165.401915 88.5380425,163.624901 88.5404987,161.432087 L88.5404987,147.890629 L87.876507,147.447905 L88.5404987,147.226633 L88.5404987,145.449904 L87.876507,145.00718 L88.5404987,144.785729 L88.5404987,143.009 L87.876507,142.566459 L88.5404987,142.345008 L88.5404987,136.127184 C88.5314073,133.647894 86.9592001,131.444065 84.6178313,130.628617 L84.6178313,130.628617 Z M79.7670347,126.714542 C81.2929411,126.001846 82.6876922,125.995823 84.0300887,126.696483 C84.1477466,126.761016 84.2204203,126.884988 84.2192685,127.019176 L84.2192685,128.48142 L79.5619837,128.48142 L79.5619837,127.045443 C79.560725,126.904808 79.6405346,126.776005 79.7670347,126.714542 Z M87.793324,141.806523 L86.1909853,142.340637 L87.793324,143.408861 L87.793324,144.247244 L86.1909853,144.781358 L87.793324,145.849769 L87.793324,146.688152 L86.1909853,147.222083 L87.793324,148.29049 L87.793324,161.432084 C87.7912756,163.212413 86.3485444,164.655144 84.5682152,164.657192 L78.6989894,164.657192 C76.9136642,164.655113 75.4669191,163.208286 75.4648997,161.422961 L75.4648997,148.290483 L77.0672831,147.222075 L75.4648997,146.688144 L75.4648997,145.849762 L77.0672831,144.781351 L75.4648997,144.247236 L75.4648997,143.408854 L77.0672831,142.340629 L75.4648997,141.806515 L75.4648997,136.432551 C75.455204,133.930477 77.1819837,131.756257 79.6212833,131.199223 L79.9105968,131.13228 L79.9105968,129.751572 L83.8706566,129.751572 L83.8706566,131.182441 L84.1400878,131.2607 C86.2998177,131.896783 87.7854117,133.875746 87.793324,136.127184 L87.793324,141.806523 Z" id="Shape" fill="#FFFFFF"></path>
            <path d="M260.227612,140.860327 L258.346543,140.484367 L258.789446,139.598558 L257.92662,139.425807 L258.075838,138.52869 L257.133841,138.371447 L257.133841,137.520478 L256.369519,137.302124 L257.095171,136.395338 L255.83613,136.395338 L256.099173,135.738638 L255.168122,135.5836 L255.484068,134.476339 L254.476768,134.476339 L254.476768,133.443134 L254.103181,133.443134 C252.926235,133.443134 252.269902,134.841169 252.054286,135.401005 C245.556638,136.53417 226.690842,149.6017 224.537607,151.10444 C223.643041,150.814219 222.316148,151.494447 222.039242,151.645488 L221.600714,151.884632 L222.233331,152.517067 L222.044715,153.082559 L223.205608,153.517788 L222.951318,154.153324 L223.682428,154.762955 L223.025729,155.255844 L224.014058,155.849059 L223.8404,156.715898 L224.94438,156.873869 L224.94438,157.74144 L225.585389,157.869861 L225.265796,158.989876 L225.977581,158.989876 L225.977581,159.875685 L226.672222,159.875685 L226.98707,160.819139 L227.310309,160.754198 C228.061862,160.603889 228.705426,159.564121 228.957161,159.102972 C235.214749,157.986222 254.534394,144.393716 256.415085,143.062624 C258.610285,143.325667 259.41692,142.739019 259.503383,142.670063 L259.860555,142.38422 L259.00758,141.673709 L260.227612,140.860327 Z M256.36696,142.303416 L256.221392,142.283897 L256.101362,142.369074 C255.887935,142.520661 234.700349,157.531286 228.6602,158.394105 L228.466476,158.421832 L228.378915,158.596952 C228.14732,159.069004 227.834518,159.496653 227.454798,159.860361 L227.210726,159.128503 L226.724771,159.128503 L226.724771,158.242694 L226.255963,158.242694 L226.526669,157.296318 L225.69157,157.129228 L225.69157,156.225893 L224.728413,156.088353 L224.850266,155.479085 L224.362488,155.186487 L224.886385,154.793563 L223.846616,153.927091 L224.182624,153.086519 L222.981601,152.63595 L223.088495,152.315629 L222.856464,152.083232 C223.417592,151.850113 224.096161,151.676627 224.38766,151.851017 L224.59598,151.975971 L224.794448,151.836623 C225.006414,151.687935 246.050255,136.969194 252.38227,136.105819 L252.618679,136.073533 L252.689093,135.845514 C252.797807,135.492355 253.184533,134.600161 253.729594,134.294798 L253.729594,135.223476 L254.493916,135.223476 L254.219561,136.182983 L255.060133,136.323078 L254.732149,137.14249 L255.540248,137.14249 L255.084573,137.712173 L256.386655,138.084117 L256.386655,139.004446 L257.216281,139.142718 L257.070716,140.016853 L257.683997,140.139255 L257.241091,141.025064 L258.312237,141.239402 L257.760613,141.606971 L258.553739,142.268045 C257.833215,142.414422 257.091848,142.426413 256.366967,142.303416 L256.36696,142.303416 Z" id="Shape" fill="#FFFFFF"></path>
            <circle id="Oval" fill="#54C41C" cx="162.710821" cy="202.015919" r="10.8340338"></circle>
            <polygon id="Path" fill="#FFFFFF" points="169.532082 200.945923 163.780704 200.945923 163.780704 195.194546 161.640796 195.194546 161.640796 200.945923 155.889418 200.945923 155.889418 203.085832 161.640796 203.085832 161.640796 208.837209 163.780704 208.837209 163.780704 203.085832 169.532082 203.085832"></polygon>
            <polygon id="Path" fill="#FFFFFF" points="196.880919 202.389465 191.277108 199.774353 191.277108 201.268703 178.20155 201.268703 178.20155 203.510227 191.277108 203.510227 191.277108 205.004576"></polygon>
            <polygon id="Path" fill="#FFFFFF" points="128.540955 202.389465 134.144765 199.774353 134.144765 201.268703 147.220323 201.268703 147.220323 203.510227 134.144765 203.510227 134.144765 205.004576"></polygon>
            <rect id="Rectangle" fill="#3F3D56" x="25.7911385" y="288.314602" width="273.839361" height="1"></rect>
            <rect id="Rectangle" fill="#FFFFFF" x="126.846523" y="59.6791295" width="71.7285925" height="1"></rect>
            <rect id="Rectangle" fill="#FFFFFF" x="127.020002" y="263.657835" width="71.7287756" height="1"></rect>
        </g>
        <g id="fat" transform="translate(82.000000, 131.000000)" fill-rule="nonzero">
            <path d="M117.914925,145.96156 L116.804427,162.510507 L40.9661903,162.510507 L39.855692,145.96156 C39.2598168,143.384972 38.972046,140.778132 38.972046,138.194932 C38.972046,129.131579 42.5371302,120.311899 49.0917157,113.757355 C45.8550283,112.138929 44.0200402,108.634928 44.5312745,105.052899 L45.1135939,100.214813 L45.4419906,97.5063043 L45.7771652,94.730017 C45.8889177,93.6296854 46.0514216,92.7968323 46.2714548,92.0892874 C46.4509034,91.5171348 46.6642414,91.0296231 46.9113862,90.5488893 C47.4665941,89.4822819 48.197903,88.4632849 49.0917157,86.6722705 L108.678902,86.6722705 C109.975627,89.2657202 110.920191,90.237272 111.495774,92.0892874 C111.719196,92.793526 111.8817,93.6296854 111.993452,94.730017 L113.239343,105.052899 C113.296914,105.452298 113.323984,105.851863 113.323984,106.24465 C113.323984,109.393224 111.553303,112.31846 108.678902,113.757355 C117.102365,122.180777 120.592933,134.352203 117.914925,145.96156 Z" id="Path" fill="#FAD6C6"></path>
            <path d="M55.1937638,97.5063043 C56.3236866,97.5063043 57.2118115,98.4708095 57.1187964,99.5968991 C56.8994038,102.253148 56.3180608,105.703318 55.4228377,107.37887 C54.2581989,109.552422 52.5687701,111.441633 50.4561368,112.846639 L49.0917157,113.757355 C45.8550283,112.138929 44.0200402,108.634928 44.5312745,105.052899 L45.1135939,100.214813 L45.4419906,97.5063043 L55.1937638,97.5063043 Z" id="Path" fill="#EAAA94"></path>
            <path d="M57.2174064,21.6683983 C56.2149408,21.6683983 55.2638881,21.1093055 54.7947262,20.1709819 L53.0114816,16.6044925 C51.2318738,13.0449464 47.6541431,10.8340338 43.6746988,10.8340338 L43.6746988,5.4170169 C46.9662706,5.4170169 50.0768232,6.41286988 52.663991,8.19297358 C52.2526892,6.56727335 50.7966014,5.4170169 49.0917157,5.4170169 L49.0917157,0 C53.5599942,0 57.3362673,3.19883048 58.0709238,7.60643866 L59.8888844,18.5142026 C60.1092483,19.8363859 59.329461,21.1208775 58.0548883,21.535155 C57.7778216,21.6254165 57.4956302,21.6683983 57.2174064,21.6683983 L57.2174064,21.6683983 Z" id="Path" fill="#3F3D56"></path>
            <g id="Group" transform="translate(38.934809, 113.080228)">
                <path d="M76.3950977,10.0281269 C74.7369959,6.60992444 72.508064,3.44101583 69.7440926,0.677127113 C66.9801213,-2.0867616 61.6185673,8.80265247 39.9504997,8.80265247 C18.2824321,8.80265247 10.1569067,0.677127113 10.1569067,0.677127113 C7.3929353,3.44101583 5.16400345,6.60992444 3.50590167,10.0281269 C7.27841388,12.8631008 18.5323459,19.6366863 39.9504997,19.6366863 C61.3686535,19.6366863 72.6225855,12.8631008 76.3950977,10.0281269 Z" id="Path" fill="#EA565C"></path>
                <path d="M76.3950977,10.0281269 C72.6225855,12.8631008 61.3686535,19.6366863 39.9504997,19.6366863 C18.5323459,19.6366863 7.27841388,12.8631008 3.50590167,10.0281269 C0.109933957,17.0286889 -0.879223758,25.0808147 0.920882954,32.881167 L2.03138134,49.4302793 L77.869618,49.4302793 L78.9801164,32.881167 C80.7802231,25.0808147 79.7910654,17.0286889 76.3950977,10.0281269 Z" id="Path" fill="#D24D52"></path>
            </g>
            <polygon id="Path" fill="#D24D52" points="88.5132098 145.804512 85.5084583 141.297384 78.8853087 145.712597 72.2621591 141.297384 69.2574075 145.804512 76.1768002 150.41744 76.1768002 162.510507 81.5938171 162.510507 81.5938171 150.41744"></polygon>
            <g id="Group" transform="translate(0.000000, 2.708508)" fill="#FAD6C6">
                <path d="M0.338563557,73.1297282 C0.338563557,73.1534508 0.338563557,73.1771734 0.34195251,73.2042023 C0.338563557,73.3328994 0.338563557,73.4513471 0.338563557,73.5563216 L0.338563557,73.1297282 Z" id="Path"></path>
                <path d="M157.432054,50.2257507 L157.432054,53.8316055 C157.432054,57.8875903 156.027007,61.6760967 153.629992,64.6724172 C151.236324,67.6652661 147.850689,69.8694008 143.889512,70.7597833 L135.140999,99.9641963 C134.514706,101.667264 133.390652,103.085825 131.968702,104.074404 C130.550099,105.066455 128.830211,105.63183 127.018863,105.63183 C124.032751,105.63183 121.259894,104.094738 119.678828,101.565761 L108.678902,83.963762 L49.0917157,83.963762 C46.3832072,81.2552536 43.6746988,79.1527871 43.6746988,73.2177581 L43.6746988,67.7127113 L27.4236481,73.1297282 L30.1321565,94.7977958 L30.4165797,94.2256433 C31.161403,92.739303 32.2888047,91.5306906 33.6498369,90.6910596 C35.00748,89.847957 36.5987122,89.3807789 38.2576819,89.3807789 L38.2576819,97.5063043 L49.0917157,97.5063043 C50.3232758,97.7608056 51.0028981,99.1135926 50.4403441,100.238339 C47.2188397,106.67924 39.0711674,111.048847 32.840665,111.048847 L30.8126726,111.048847 C28.188805,111.048847 25.7104966,110.202438 23.6858932,108.736431 C21.6646787,107.267118 20.0971278,105.171429 19.284567,102.676176 L3.04707201,78.5467451 C2.03477029,77.5276655 0.392703966,74.683682 0.34195251,73.2042023 C0.355508256,70.9155093 0.629723272,64.8586437 5.75558046,62.2956944 L35.5491734,46.0446437 C38.2576819,43.3361352 46.3832072,37.9191183 54.5087326,43.3361352 L65.3427664,43.3361352 L65.3427664,35.2106099 L57.2172411,32.5021014 L54.2243095,33.9985259 C53.4253457,34.3980904 52.5891037,34.7027645 51.729139,34.9059358 C50.8657854,35.1090243 49.9821395,35.2106099 49.0917157,35.2106099 C46.0987841,35.2106099 43.3902756,33.9985259 41.4300208,32.0382297 C39.4697659,30.0779334 38.2576819,27.369425 38.2576819,24.3765761 C38.2576819,21.3836445 39.4697659,18.675136 41.4300208,16.7149225 C43.3902756,14.7546262 46.0987841,13.5425423 49.0917157,13.5425423 C50.8725633,13.5425423 52.6296883,13.9555799 54.2243095,14.7546262 L57.2172411,16.2510507 L57.2172411,13.5425423 C57.2172411,6.06364354 69.0364651,0 76.5153638,0 L83.963762,0 C87.7015169,0 91.8523094,1.51675813 95.0618853,3.96795496 C98.2748502,6.41915179 100.553376,9.80478736 100.553376,13.5425423 L100.553376,24.3765761 L103.261885,27.0850845 L97.8448678,37.9191183 L92.4278509,43.3361352 L103.261885,43.3361352 C114.095919,37.9191183 122.221444,46.0446437 122.221444,54.170169 L125.16693,64.6656393 L127.638461,73.4682918 L127.888995,72.8419161 L133.055478,59.9257495 L133.055478,52.8159148 C133.055478,51.6918607 133.509183,50.67617 134.243839,49.9415135 C134.978496,49.2067744 135.994186,48.7531521 137.11824,48.7531521 C138.242295,48.7531521 139.257985,49.2067744 139.992642,49.9415135 C140.727298,50.67617 141.181003,51.6918607 141.181003,52.8159148 C141.181003,53.939969 141.634708,54.9556597 142.369364,55.6903161 C143.102182,56.4231334 144.114628,56.8764044 145.235324,56.8786671 C147.475136,56.8831927 149.306528,54.9372994 149.306528,52.6974878 L149.306528,50.1074064 C149.306528,48.9833522 149.760233,47.9676615 150.49489,47.2330051 C151.227718,46.5000948 152.240185,46.0469013 153.360912,46.0446541 C155.600682,46.0401596 157.432054,47.9859701 157.432054,50.2257507 L157.432054,50.2257507 Z" id="Path"></path>
            </g>
            <polygon id="Path" fill="#EAAA94" points="76.1768002 105.63183 81.5938171 105.63183 81.5938171 111.048847 76.1768002 111.048847"></polygon>
            <g id="Group" transform="translate(0.000000, 2.708508)">
                <path d="M62.4712581,27.8792541 C59.7531615,26.0671621 59.3723601,22.221457 61.6822959,19.9115212 C63.7039237,17.8898934 66.9816091,17.8898934 69.0032369,19.9115212 L70.7597833,21.6680676 C72.1979758,14.4770636 90.4473037,10.1738514 97.4043054,12.4928795 L100.553376,13.5425423 C100.553376,6.06323025 91.4431154,0 83.963762,0 L78.8853087,0 L76.5153638,0 C69.0360104,0 57.2172411,6.06323025 57.2172411,13.5425423 L57.2172411,16.2510507 L54.2227803,14.7537997 C52.629647,13.957233 50.8728939,13.5425423 49.0917157,13.5425423 C43.1082496,13.5425423 38.2576819,18.3931099 38.2576819,24.3765761 C38.2576819,30.3600422 43.1082496,35.2106099 49.0917157,35.2106099 C50.8728939,35.2106099 52.629647,34.7959191 54.2227803,33.9993525 L57.2172411,32.5021014 L65.3427664,35.2106099 L65.3427664,29.793593 L62.4712581,27.8792541 Z" id="Path" fill="#3F3D56"></path>
                <path d="M0.338563557,73.5577268 C0.338563557,73.4385352 0.338604895,73.3013244 0.339844749,73.1491527 C0.33980341,73.1429534 0.338563557,73.1358448 0.338563557,73.1297282 L0.338563557,73.5577268 Z" id="Path" fill="#FAD6C6"></path>
            </g>
            <g id="Group" transform="translate(19.298123, 41.304754)" fill="#EAAA94">
                <polygon id="Path" points="8.80265247 39.9504997 0 39.9504997 0 34.5334828 8.12552536 34.5334828"></polygon>
                <polygon id="Path" points="108.590872 34.2456707 105.482882 42.5336999 100.363761 40.752935 105.868808 26.0693939 108.340338 34.8720463"></polygon>
                <path d="M73.1297282,10.1569067 L72.6650299,10.1569067 C67.0011988,10.1569067 61.6765926,7.95128416 57.6718552,3.94638146 L61.5025167,0.116381223 C64.483959,3.09798879 68.4481944,4.73988979 72.6650299,4.73988979 L73.1297282,4.73988979 L73.1297282,10.1569067 Z" id="Path"></path>
                <path d="M63.7927801,10.4429003 C62.1200067,11.2793904 60.7004947,12.4507244 59.587186,13.8490349 C58.4738772,12.4507244 57.0543652,11.2793904 55.3815918,10.4429003 L52.9587463,15.28793 C55.3766324,16.4970383 56.8786775,18.9271576 56.8786775,21.630376 L56.8786775,23.699449 L62.2956944,23.699449 L62.2956944,21.630376 C62.2956944,18.9271576 63.7977395,16.4970383 66.2156256,15.28793 L63.7927801,10.4429003 Z" id="Path"></path>
            </g>
            <path d="M78.8853087,86.6722705 L49.0917157,86.6722705 L49.0917054,86.6722705 C44.2189081,83.4237321 41.9143295,77.4626919 43.3347094,71.7811773 L43.6746988,70.4212198 L54.5087326,59.587186 L54.5087326,46.0446437 L65.3427664,46.0446437 L65.3427664,51.4616761 C65.3427664,58.9410088 71.4059605,65.0042029 78.8852932,65.0042029 L78.885319,65.0042029 C86.3646517,65.0042029 92.4278509,58.9410088 92.4278509,51.4616761 L92.4278509,46.0446437 L103.261885,46.0446437 L103.261885,59.587186 L114.095919,70.4212198 L114.435908,71.7811773 C115.856288,77.4626918 113.551704,83.4237321 108.678912,86.6722705 L108.678902,86.6722705 L78.8853087,86.6722705 Z" id="Path" fill="#D24D52"></path>
            <path d="M111.495774,92.0892874 L46.2714548,92.0892874 C46.4509034,91.5171348 46.6642415,91.0296231 46.9113862,90.5488893 C47.4665941,89.4822819 48.197903,88.4632849 49.0917157,86.6722705 L108.678902,86.6722705 C109.975627,89.2657202 110.920191,90.237272 111.495774,92.0892874 Z" id="Path" fill="#EA565C"></path>
        </g>
    </g>
</svg>