<?xml version="1.0" encoding="UTF-8"?>
<svg width="453px" height="300px" viewBox="0 0 453 300" version="1.1" xmlns="http://www.w3.org/2000/svg" xmlns:xlink="http://www.w3.org/1999/xlink">
    <!-- Generator: Sketch 61.2 (89653) - https://sketch.com -->
    <title>img-problem-4</title>
    <desc>Created with Sketch.</desc>
    <defs>
        <linearGradient x1="50.0295703%" y1="99.99835%" x2="50.0295703%" y2="-0.00449966702%" id="linearGradient-1">
            <stop stop-color="#808080" stop-opacity="0.25" offset="0%"></stop>
            <stop stop-color="#808080" stop-opacity="0.12" offset="54%"></stop>
            <stop stop-color="#808080" stop-opacity="0.1" offset="100%"></stop>
        </linearGradient>
    </defs>
    <g id="img-problem-4" stroke="none" stroke-width="1" fill="none" fill-rule="evenodd">
        <g id="undraw_booking_33fn" transform="translate(12.000000, 0.000000)" fill-rule="nonzero">
            <path d="M249.63198,47.7677665 C222.102792,46.8121827 195.883249,37.9225888 170.843909,28.1992386 C145.804569,18.4758883 121.005076,7.70177665 94.1307107,2.55076142 C76.8502538,-0.765228426 57.0837563,-1.23350254 43.1573604,8.03299492 C29.7563452,16.9492386 25.427665,32.3413706 23.0977157,46.6256345 C21.3464467,57.3730964 20.3185279,68.680203 25.1154822,78.7423858 C28.4467005,85.7246193 34.3629442,91.5951777 38.4403553,98.284264 C52.6751269,121.564721 42.6281726,150.266497 27.1865482,172.998731 C19.9530457,183.658629 11.5545685,193.831218 5.97335025,205.180203 C0.39213198,216.529188 -2.18147208,229.534264 2.72588832,241.130711 C7.56852792,252.60533 19.0964467,261.224619 31.6104061,267.28934 C56.9809645,279.582487 86.9010152,283.107868 116.074873,285.102792 C180.658629,289.519036 245.588832,287.607868 310.343909,285.692893 C334.305838,284.980964 358.378173,284.265228 381.951777,280.557107 C395.044416,278.501269 408.559645,275.227157 418.06599,267.350254 C430.130711,257.341371 433.123096,240.392132 425.036802,227.840102 C411.475888,206.786802 373.979695,201.571066 364.503807,178.964467 C359.284264,166.530457 364.64467,152.676396 372.228426,141.14467 C388.492386,116.398477 415.755076,94.6979695 417.190355,66.4149746 C418.180203,46.998731 405.072335,27.536802 384.807107,18.3464467 C363.563452,8.71446701 334.111675,9.9251269 318.437817,25.8730964 C302.299492,42.2931472 273.940355,48.6091371 249.63198,47.7677665 Z" id="Path" fill="#EDF9E8"></path>
            <path d="M343.64467,259.991117 C342.099477,259.491185 340.467327,259.317469 338.851523,259.480964 C336.883249,259.694162 337.161168,262.690355 339.137056,262.549492 C340.12525,262.473151 341.102693,262.29323 342.053299,262.01269 L343.64467,259.991117 Z" id="Path" fill="#3ACC6C"></path>
            <path d="M344.242386,260.017766 C344.953598,261.47918 345.352926,263.0726 345.414975,264.696701 C345.479695,266.676396 342.472081,266.817259 342.335025,264.841371 C342.275621,263.852241 342.319,262.859618 342.464467,261.879442 L344.242386,260.017766 Z" id="Path" fill="#3ACC6C"></path>
            <path d="M348.719543,253.606599 C348.719543,253.606599 347.756345,250.583756 341.866751,251.756345 C339.201777,252.285533 339.274112,256.107868 341.942893,256.511421 L342.057107,256.511421 C345.944162,257.05203 347.295685,255.510152 348.719543,253.606599 Z" id="Path" fill="#3ACC6C"></path>
            <path d="M349.332487,253.427665 C349.332487,253.427665 352.496193,253.675127 352.694162,259.67132 C352.785533,262.370558 349.050761,263.189086 348.049492,260.68401 C348.049492,260.645939 348.022843,260.611675 348.007614,260.573604 C346.610406,256.914975 347.80203,255.247462 349.332487,253.427665 Z" id="Path" fill="#3ACC6C"></path>
            <path d="M353.558376,245.699239 C353.105718,243.465259 351.480454,241.650673 349.309645,240.955584 C345.323604,239.699239 343.218274,245.661168 347.112944,247.176396 C348.724762,247.765043 350.440921,248.013912 352.153553,247.90736 L353.558376,245.699239 Z" id="Path" fill="#3ACC6C"></path>
            <path d="M358.420051,235.743655 C358.420051,235.743655 356.809645,231.936548 352.633249,231.175127 C348.205584,230.364213 346.865482,237.015228 351.239848,238.077411 C353.202597,238.50382 355.232218,238.520668 357.201777,238.126904 L358.420051,235.743655 Z" id="Path" fill="#3ACC6C"></path>
            <path d="M361.35533,225.940355 C359.977783,223.775176 357.778845,222.263406 355.263959,221.752538 C351.456853,221.036802 350.173858,226.736041 353.912437,227.71066 C356.260351,228.284737 358.71587,228.250669 361.046954,227.611675 L361.35533,225.940355 Z" id="Path" fill="#3ACC6C"></path>
            <path d="M364.123096,216.384518 C362.908246,214.381983 361.018031,212.879262 358.793147,212.147208 C354.986041,210.978426 353.10533,216.75 356.889594,218.006345 C359.132952,218.750706 361.558139,218.741347 363.795685,217.979695 L364.123096,216.384518 Z" id="Path" fill="#3ACC6C"></path>
            <path d="M365.288071,207.677665 C365.288071,207.677665 363.765228,204.106599 360.662437,202.218274 C357.205584,200.112944 353.912437,205.263959 357.236041,207.582487 C359.284264,209.017766 361.90736,210.007614 364.972081,209.345178 L365.288071,207.677665 Z" id="Path" fill="#3ACC6C"></path>
            <path d="M365.862944,197.348985 C365.862944,197.348985 364.18401,193.743655 360.963198,192.019036 C357.361675,190.115482 354.228426,195.376904 357.620558,197.645939 C359.840102,199.126904 362.611675,200.086294 365.554569,198.928934 L365.862944,197.348985 Z" id="Path" fill="#3ACC6C"></path>
            <path d="M365.505076,187.930203 C364.248687,185.980757 362.708953,184.229309 360.936548,182.733503 C358.416244,180.673858 355.225888,184.38198 357.612944,186.582487 C359.817259,188.604061 362.562183,190.30203 365.398477,190.164975 L365.505076,187.930203 Z" id="Path" fill="#3ACC6C"></path>
            <path d="M364.549492,178.892132 C363.110266,176.46444 361.37629,174.224082 359.387056,172.222081 C357.414975,170.318528 354.498731,173.219543 356.341371,175.225888 C358.469543,177.510152 361.340102,179.878173 364.78934,180.913706 L364.549492,178.892132 Z" id="Path" fill="#3ACC6C"></path>
            <path d="M362.703046,168.26269 C361.516201,166.417646 360.133843,164.705974 358.579949,163.15736 C356.59264,161.211929 353.596447,164.139594 355.503807,166.161168 C357.529188,168.312183 360.148477,170.326142 363.220812,171.011421 L362.703046,168.26269 Z" id="Path" fill="#3ACC6C"></path>
            <path d="M361.088832,158.345178 C359.86846,156.693328 358.544747,155.120386 357.125635,153.635787 C355.534264,151.994924 352.991117,154.30203 354.491117,156.030457 C356.253807,158.063452 358.515228,159.864213 361.115482,160.153553 L361.088832,158.345178 Z" id="Path" fill="#3ACC6C"></path>
            <path d="M359.413706,149.147208 C358.30083,146.968626 357.028322,144.875351 355.606599,142.884518 C354.414975,141.255076 351.932741,142.998731 353.055838,144.673858 C354.525381,146.870558 356.56599,149.044416 359.246193,150.091371 L359.413706,149.147208 Z" id="Path" fill="#3ACC6C"></path>
            <path d="M358.031726,136.922589 C358.031726,136.922589 357.091371,135.327411 355.747462,133.47335 C354.506345,131.763959 351.887056,133.530457 353.036802,135.300761 C354.331218,137.284264 355.953046,138.974619 357.841371,139.309645 L358.031726,136.922589 Z" id="Path" fill="#3ACC6C"></path>
            <path d="M357.373096,128.821066 L356.181472,122.862944 C355.865482,121.286802 353.516497,121.663706 353.706853,123.243655 C354.133249,126.426396 355.229695,129.628173 357.616751,131.729695 L357.373096,128.821066 Z" id="Path" fill="#3ACC6C"></path>
            <path d="M358.081218,111.887056 L358.081218,111.887056 C357.851469,111.34198 357.250709,111.054482 356.682098,111.217497 C356.113487,111.380512 355.756307,111.942641 355.850254,112.52665 C356.115186,114.181618 356.517594,115.811625 357.053299,117.399746 L358.081218,111.887056 Z" id="Path" fill="#3ACC6C"></path>
            <path d="M353.824873,245.581218 C355.990469,244.866387 358.373332,245.379081 360.053299,246.92132 C363.098985,249.765228 358.979695,254.535533 355.732234,251.912437 C354.423403,250.802664 353.35688,249.435493 352.598985,247.895939 L353.824873,245.581218 Z" id="Path" fill="#3ACC6C"></path>
            <path d="M358.690355,235.38198 C358.690355,235.38198 362.695431,234.414975 365.794416,237.31599 C369.079949,240.392132 364.538071,245.428934 361.077411,242.546954 C359.56526,241.223784 358.342981,239.602287 357.48731,237.784264 L358.690355,235.38198 Z" id="Path" fill="#3ACC6C"></path>
            <path d="M361.61802,226.610406 C363.710084,225.112814 366.32219,224.532652 368.851523,225.003807 C372.658629,225.765228 371.71066,231.525381 367.876904,231.034264 C365.485357,230.687236 363.221438,229.737385 361.298223,228.274112 L361.61802,226.610406 Z" id="Path" fill="#3ACC6C"></path>
            <path d="M364.313452,216.437817 C366.184696,215.033168 368.496192,214.343229 370.831218,214.492386 C374.813452,214.838832 374.387056,220.888325 370.401015,220.637056 C368.04131,220.490176 365.794727,219.574159 364.005076,218.029188 L364.313452,216.437817 Z" id="Path" fill="#3ACC6C"></path>
            <path d="M365.238579,207.925127 C365.238579,207.925127 367.351523,204.666244 370.724619,203.333756 C374.467005,201.852792 376.869289,207.46066 373.233503,209.185279 C370.949239,210.26269 368.196701,210.807107 365.272843,209.623096 L365.238579,207.925127 Z" id="Path" fill="#3ACC6C"></path>
            <path d="M365.371827,197.192893 C365.371827,197.192893 367.507614,193.84264 370.922589,192.563452 C374.729695,191.135787 377.162437,196.770305 373.503807,198.57868 C371.109137,199.758883 368.234772,200.345178 365.470812,198.814721 L365.371827,197.192893 Z" id="Path" fill="#3ACC6C"></path>
            <path d="M364.656091,187.831218 C365.465992,185.658253 366.59514,183.618087 368.006345,181.777919 C370.024112,179.22335 373.949239,182.158629 372.076142,184.823604 C370.35533,187.271574 368.055838,189.513959 365.22335,189.989848 L364.656091,187.831218 Z" id="Path" fill="#3ACC6C"></path>
            <path d="M364.362944,178.876904 C365.063119,176.136986 366.101556,173.494854 367.454315,171.011421 C368.821066,168.643401 372.426396,170.604061 371.200508,173.048223 C369.799492,175.846447 367.69797,178.911168 364.675127,180.871827 L364.362944,178.876904 Z" id="Path" fill="#3ACC6C"></path>
            <path d="M362.154822,167.767766 C362.977053,165.656026 364.031769,163.64236 365.299492,161.763959 C366.86802,159.479695 370.343909,161.718274 368.908629,164.07868 C367.347716,166.652284 365.147208,169.241117 362.196701,170.550761 L362.154822,167.767766 Z" id="Path" fill="#3ACC6C"></path>
            <path d="M360.395939,158.291878 C360.820525,156.283362 361.371105,154.30356 362.044416,152.364213 C362.805838,150.205584 366.083756,151.248731 365.436548,153.445431 C364.675127,156.02665 363.369289,158.604061 361.126904,159.94797 L360.395939,158.291878 Z" id="Path" fill="#3ACC6C"></path>
            <path d="M359.173858,148.968274 C359.761595,146.591306 360.525117,144.261289 361.458122,141.997462 C362.25,140.139594 365.067259,141.270305 364.351523,143.158629 C363.422589,145.633249 361.930203,148.214467 359.562183,149.843909 L359.173858,148.968274 Z" id="Path" fill="#3ACC6C"></path>
            <path d="M357.34264,137.760152 C357.34264,137.760152 357.700508,135.944162 358.351523,133.747462 C358.953046,131.722081 362.013959,132.517766 361.515228,134.569797 C360.959391,136.854061 359.992386,139.005076 358.317259,139.949239 L357.34264,137.760152 Z" id="Path" fill="#3ACC6C"></path>
            <path d="M357.769036,128.417513 L359.840102,122.706853 C360.388325,121.18401 362.672589,121.922589 362.227157,123.468274 C361.332487,126.55203 359.779188,129.559645 357.095178,131.272843 L357.769036,128.417513 Z" id="Path" fill="#3ACC6C"></path>
            <path d="M360.350254,112.484772 C360.350254,112.484772 360.673858,112.225888 361.168782,111.818528 C362.177665,110.980964 363.494924,112.442893 362.543147,113.341371 C360.886201,114.847501 358.981215,116.055667 356.912437,116.912437 L360.350254,112.484772 Z" id="Path" fill="#3ACC6C"></path>
            <path d="M360.213198,109.176396 C361.451016,106.649064 362.830101,104.193404 364.343909,101.821066 C364.523492,101.482644 364.423656,101.063493 364.110794,100.842365 C363.797932,100.621238 363.369493,100.667009 363.110406,100.949239 C361.892132,102.616751 360.696701,105.057107 359.790609,108.643401 L360.213198,109.176396 Z" id="Path" fill="#3ACC6C"></path>
            <path d="M357.852792,139.404822 L358.294416,139.359137 C356.390863,121.614213 357.194162,110.672589 360.521574,108.55203 L360.281726,108.17132 C356.756345,110.428934 355.918782,121.225888 357.852792,139.404822 Z" id="Path" fill="#444053"></path>
            <path d="M364.401015,181.359137 L365.059645,181.260152 C364.812183,179.619289 364.52665,177.951777 364.206853,176.310914 C361.435279,161.908629 359.280457,148.595178 358.203046,138.483503 L357.719543,138.102792 C358.800761,148.233503 360.765228,162.007614 363.555838,176.428934 C363.86802,178.058376 364.153553,179.722081 364.401015,181.359137 Z" id="Path" fill="#444053"></path>
            <path d="M333.563452,271.046954 C333.662437,270.967005 343.804569,263.208122 352.709391,248.326142 C357.928573,239.617215 361.732247,230.135016 363.978426,220.233503 C366.791878,207.856599 366.871827,193.442893 364.84264,179.942893 L364.248731,180.418782 C368.817259,210.715736 360.102792,234.239848 351.970812,247.838832 C343.153553,262.583756 333.129442,270.26269 333.02665,270.338832 L333.563452,271.046954 Z" id="Path" fill="#444053"></path>
            <ellipse id="Oval" fill="#F2F2F2" cx="73.8654822" cy="266.10533" rx="25.3362944" ry="4.87309645"></ellipse>
            <ellipse id="Oval" fill="#3F3D56" cx="73.4390863" cy="264.034264" rx="2.95050761" ry="3.86040609"></ellipse>
            <ellipse id="Oval" fill="#3F3D56" cx="73.4390863" cy="259.313452" rx="2.95050761" ry="3.86040609"></ellipse>
            <ellipse id="Oval" fill="#3F3D56" cx="73.4390863" cy="254.596447" rx="2.95050761" ry="3.86040609"></ellipse>
            <ellipse id="Oval" fill="#3F3D56" cx="73.4390863" cy="249.875635" rx="2.95050761" ry="3.86040609"></ellipse>
            <ellipse id="Oval" fill="#3F3D56" cx="73.4390863" cy="245.154822" rx="2.95050761" ry="3.86040609"></ellipse>
            <ellipse id="Oval" fill="#3F3D56" cx="73.4390863" cy="240.437817" rx="2.95050761" ry="3.86040609"></ellipse>
            <ellipse id="Oval" fill="#3F3D56" cx="73.4390863" cy="235.717005" rx="2.95050761" ry="3.86040609"></ellipse>
            <path d="M84.4796954,203.417513 C84.8839999,202.904688 85.2516619,202.364009 85.5799492,201.799492 L77.8286802,200.527919 L86.2043147,200.588832 C87.8306449,197.053987 87.9284225,193.005169 86.4746193,189.395939 L75.2284264,195.228426 L85.5989848,187.614213 C82.9559012,183.026445 77.9700826,180.300971 72.6814107,180.552883 C67.3927387,180.804795 62.6885469,183.991827 60.4934931,188.810048 C58.2984393,193.628268 58.9808096,199.269276 62.2614213,203.425127 C61.6344193,204.224501 61.0945576,205.088535 60.6510152,206.002538 L70.713198,211.229695 L59.9923858,207.628173 C58.4636562,212.152677 59.3228525,217.143175 62.2766497,220.895939 C57.7175717,226.68897 58.3773394,235.01331 63.7920485,240.015842 C69.2067577,245.018374 77.5572017,245.018374 82.9719109,240.015842 C88.38662,235.01331 89.0463877,226.68897 84.4873096,220.895939 C88.5223595,215.771285 88.5223595,208.549781 84.4873096,203.425127 L84.4796954,203.417513 Z" id="Path" fill="#54C41C"></path>
            <path d="M59.2461929,212.154822 C59.2429687,215.323097 60.3079284,218.399945 62.2690355,220.888325 C57.7099575,226.681356 58.3697251,235.005695 63.7844343,240.008228 C69.1991434,245.01076 77.5495875,245.01076 82.9642967,240.008228 C88.3790058,235.005695 89.0387735,226.681356 84.4796954,220.888325 C86.3756345,218.486041 59.2461929,210.567259 59.2461929,212.154822 Z" id="Path" fill="#000000" opacity="0.1"></path>
            <path d="M88.3134518,99.8375635 L88.3134518,268.001269 C88.3134518,269.558238 88.9319553,271.051437 90.0328985,272.152381 C91.1338418,273.253324 92.6270413,273.871827 94.1840102,273.871827 L335.505076,273.871827 C338.747296,273.871827 341.375635,271.243489 341.375635,268.001269 L341.375635,99.8375635 L88.3134518,99.8375635 Z" id="Path" fill="#FFFFFF"></path>
            <rect id="Rectangle" fill="#000000" opacity="0.1" x="108.338832" y="114.890863" width="60.4949239" height="35.5088832" rx="3.29314721"></rect>
            <rect id="Rectangle" fill="#000000" opacity="0.1" x="184.598985" y="114.890863" width="60.4949239" height="35.5088832" rx="3.29314721"></rect>
            <rect id="Rectangle" fill="#FFA1A1" x="109.187817" y="115.389594" width="58.7931472" height="34.5076142" rx="3.29314721"></rect>
            <rect id="Rectangle" fill="#EEEEEE" transform="translate(214.844543, 132.643401) rotate(-180.000000) translate(-214.844543, -132.643401) " x="185.44797" y="115.389594" width="58.7931472" height="34.5076142" rx="3.29314721"></rect>
            <rect id="Rectangle" fill="#FFA1A1" transform="translate(291.104695, 132.643401) rotate(-180.000000) translate(-291.104695, -132.643401) " x="261.708122" y="115.389594" width="58.7931472" height="34.5076142" rx="3.29314721"></rect>
            <rect id="Rectangle" fill="#EEEEEE" x="109.187817" y="165.236041" width="58.7931472" height="34.5076142" rx="3.29314721"></rect>
            <rect id="Rectangle" fill="#EEEEEE" transform="translate(291.104695, 182.489848) rotate(-180.000000) translate(-291.104695, -182.489848) " x="261.708122" y="165.236041" width="58.7931472" height="34.5076142" rx="3.29314721"></rect>
            <rect id="Rectangle" fill="#EEEEEE" transform="translate(214.844543, 182.489848) rotate(-180.000000) translate(-214.844543, -182.489848) " x="185.44797" y="165.236041" width="58.7931472" height="34.5076142" rx="3.29314721"></rect>
            <rect id="Rectangle" fill="#EEEEEE" x="109.187817" y="215.082487" width="58.7931472" height="34.5076142" rx="3.29314721"></rect>
            <rect id="Rectangle" fill="#EEEEEE" transform="translate(291.104695, 232.340102) rotate(-180.000000) translate(-291.104695, -232.340102) " x="261.708122" y="215.086294" width="58.7931472" height="34.5076142" rx="3.29314721"></rect>
            <rect id="Rectangle" fill="#EEEEEE" transform="translate(214.844543, 232.340102) rotate(-180.000000) translate(-214.844543, -232.340102) " x="185.44797" y="215.086294" width="58.7931472" height="34.5076142" rx="3.29314721"></rect>
            <path d="M88.3134505,70.1383249 L88.3134505,100.690355 L341.375636,100.690355 L341.375636,70.1383249 C341.375636,68.5806965 340.758587,67.0865187 339.657534,65.9847519 C338.556482,64.8829851 337.062705,64.2639594 335.505076,64.2639594 L94.1840102,64.2639594 C92.6263814,64.2639594 91.1326047,64.8829851 90.0315519,65.9847519 C88.9304992,67.0865187 88.3134505,68.5806965 88.3134505,70.1383249 Z M150.940355,79.1763959 C148.352046,79.1763959 146.253807,77.0781568 146.253807,74.4898477 C146.253807,71.9015386 148.352046,69.8032995 150.940355,69.8032995 C153.528664,69.8032995 155.626904,71.9015386 155.626904,74.4898477 C155.626904,77.0781568 153.528664,79.1763959 150.940355,79.1763959 L150.940355,79.1763959 Z M278.748731,79.1764021 C276.160422,79.1764021 274.062183,77.0781568 274.062183,74.4898477 C274.062183,71.9015386 276.160422,69.8032995 278.748731,69.8032995 C281.33704,69.8032995 283.435279,71.9015386 283.435279,74.4898477 C283.435279,75.734118 282.940476,76.9273152 282.05993,77.8064327 C281.179384,78.6855502 279.985385,79.1784175 278.741117,79.1764021 L278.748731,79.1764021 Z" id="Shape" fill="#EA565C"></path>
            <path d="M150.940355,68.9505063 C148.699556,68.9489675 146.678543,70.2976076 145.819959,72.3673947 C144.961374,74.4371819 145.434357,76.820375 147.018297,78.4054046 C148.602237,79.9904343 150.985105,80.4650549 153.055482,79.6078939 C155.125859,78.7507328 156.47589,76.730648 156.47589,74.4898477 C156.476898,73.0210736 155.894138,71.6121108 154.855915,70.5731735 C153.817692,69.5342361 152.40913,68.9505063 150.940355,68.9505063 L150.940355,68.9505063 Z M150.940355,79.1763959 C148.352046,79.1763959 146.253807,77.0781568 146.253807,74.4898477 C146.253807,71.9015386 148.352046,69.8032995 150.940355,69.8032995 C153.528664,69.8032995 155.626904,71.9015386 155.626904,74.4898477 C155.626904,77.0781568 153.528664,79.1763959 150.940355,79.1763959 L150.940355,79.1763959 Z" id="Shape" fill="#000000" opacity="0.1"></path>
            <path d="M278.741117,68.9505076 C275.681824,68.9505076 273.201777,71.4305547 273.201777,74.4898477 C273.201777,77.5491408 275.681824,80.0291878 278.741117,80.0291878 C281.80041,80.0291878 284.280457,77.5491408 284.280457,74.4898477 C284.280457,71.4305547 281.80041,68.9505076 278.741117,68.9505076 Z M278.741117,79.1763959 C276.152808,79.1763959 274.054569,77.0781568 274.054569,74.4898477 C274.054569,71.9015386 276.152808,69.8032995 278.741117,69.8032995 C281.329426,69.8032995 283.427665,71.9015386 283.427665,74.4898477 C283.427665,77.0781568 281.329426,79.1763959 278.741117,79.1763959 Z" id="Shape" fill="#000000" opacity="0.1"></path>
            <circle id="Oval" fill="#EDF9E8" cx="393.312183" cy="160.256345" r="5.81345178"></circle>
            <circle id="Oval" fill="#EDF9E8" cx="414.110406" cy="134.329949" r="9.74619289"></circle>
            <circle id="Oval" fill="#EDF9E8" cx="401.208122" cy="181.621827" r="9.74619289"></circle>
            <circle id="Oval" fill="#EDF9E8" cx="13.8007614" cy="131.939086" r="13.8007614"></circle>
            <path d="M352.404822,282.247462 C351.53809,281.594848 350.588064,281.060938 349.579949,280.659898 C349.503276,280.620256 349.418751,280.59815 349.332487,280.595178 C347.24645,279.09794 345.297201,277.418783 343.507614,275.577411 C343.888325,275.272843 344.238579,274.975888 344.611675,274.682741 C342.327411,273.593909 341.059645,271.100254 339.826142,268.850254 C336.564768,262.868832 332.267078,257.514122 327.133249,253.035533 C327.007614,252.55203 326.272843,252.654822 325.880711,252.34264 C325.620432,252.092439 325.514345,251.72186 325.602792,251.371827 C325.663706,251.021574 325.823604,250.69797 325.911168,250.35533 C326.120558,249.55203 325.937817,248.706853 325.846447,247.880711 C325.755076,247.054569 325.793147,246.133249 326.341371,245.516497 C326.516497,245.314721 326.741117,245.158629 326.912437,244.953046 C327.276497,244.463243 327.414933,243.841663 327.293147,243.243655 C327.25176,242.650715 327.123487,242.067072 326.912437,241.511421 C328.777919,236.435279 330.642132,231.350254 332.505076,226.256345 C333.810914,222.700508 335.128173,219.068528 335.261421,215.27665 C335.36802,212.230964 334.583756,209.067259 332.741117,206.741117 C333.076142,206.661168 333.411168,206.577411 333.742386,206.482234 C331.564721,203.596447 331.32868,199.774112 331.271574,196.138325 C331.241117,194.326142 331.178934,192.51269 331.085025,190.69797 C331.717005,190.975888 332.356599,191.22335 333.011421,191.436548 L333.620558,191.623096 C334.609655,191.912635 335.618728,192.128956 336.639594,192.270305 C337.088832,192.335025 337.545685,192.384518 337.998731,192.414975 L337.998731,192.414975 C337.343909,190.775381 336.690355,189.133249 336.038071,187.488579 C335.698807,186.760775 335.49251,185.978137 335.428934,185.177665 L335.428934,185.177665 L335.428934,185.025381 C335.428934,184.93401 335.428934,184.84264 335.44797,184.751269 C335.473972,184.533291 335.523761,184.318816 335.596447,184.111675 C335.630162,184.009304 335.669563,183.908894 335.714467,183.810914 C335.850101,183.510944 336.013234,183.224185 336.201777,182.954315 C336.338832,182.744924 336.491117,182.543147 336.643401,182.337563 C337.210798,181.675492 337.671881,180.929282 338.010152,180.125635 C338.143981,179.718763 338.214599,179.293769 338.219543,178.865482 C338.226905,178.431201 338.188623,177.997348 338.10533,177.571066 C338.05203,177.28934 337.983503,177.003807 337.90736,176.729695 L337.90736,176.729695 C337.857868,176.558376 337.804569,176.387056 337.751269,176.219543 L337.705584,176.082487 C337.663706,175.953046 337.621827,175.827411 337.576142,175.701777 L337.530457,175.572335 C337.480964,175.435279 337.431472,175.30203 337.378173,175.164975 L337.347716,175.085025 C336.620558,173.215736 335.653553,171.43401 335.063452,169.511421 C334.908314,168.999699 334.781221,168.47989 334.682741,167.954315 C334.656091,167.821066 334.637056,167.68401 334.614213,167.550761 C334.591371,167.417513 334.579949,167.322335 334.564721,167.208122 C334.549492,167.093909 334.530457,166.941624 334.515228,166.808376 L334.480964,166.427665 C334.480964,166.305838 334.461929,166.18401 334.454315,166.046954 C334.454315,165.814721 334.431472,165.582487 334.427665,165.350254 C334.427665,165.266497 334.427665,165.186548 334.427665,165.102792 C334.427665,164.927665 334.427665,164.748731 334.427665,164.573604 C334.427665,164.478426 334.427665,164.383249 334.427665,164.291878 C334.427665,164.116751 334.454315,163.941624 334.469543,163.770305 C334.469543,163.686548 334.469543,163.602792 334.496193,163.522843 C334.521574,163.269036 334.555838,163.015228 334.598985,162.761421 L334.598985,162.761421 C334.637056,162.536802 334.678934,162.308376 334.724619,162.079949 C334.862517,161.454709 334.933979,160.816651 334.937817,160.176396 C334.937817,160.054569 334.937817,159.928934 334.911168,159.795685 C334.884518,159.662437 334.880711,159.590102 334.861675,159.491117 C334.859846,159.460687 334.859846,159.430176 334.861675,159.399746 C334.861675,159.331218 334.827411,159.26269 334.812183,159.194162 C334.796954,159.125635 334.793147,159.129442 334.781726,159.098985 C334.770305,159.068528 334.739848,158.965736 334.717005,158.901015 C334.694162,158.836294 334.69797,158.843909 334.686548,158.813452 C334.675127,158.782995 334.633249,158.676396 334.602792,158.611675 L334.576142,158.543147 C334.538071,158.459391 334.496193,158.379442 334.454315,158.299492 L334.454315,158.299492 C334.306773,158.021693 334.136121,157.756799 333.944162,157.507614 L333.944162,157.507614 C332.691624,155.862944 330.609137,154.610406 329.463198,152.798223 C328.794128,151.623752 328.358467,150.330989 328.180203,148.991117 C328.123096,148.686548 328.073604,148.38198 328.020305,148.081218 C327.967005,147.780457 327.92132,147.483503 327.86802,147.186548 C327.833756,147.003807 327.799492,146.805838 327.761421,146.638325 L327.738579,146.520305 C327.708122,146.375635 327.677665,146.227157 327.643401,146.082487 L327.620558,145.979695 C327.586294,145.827411 327.55203,145.675127 327.513959,145.522843 L327.491117,145.442893 C327.453046,145.282995 327.411168,145.123096 327.369289,144.963198 C327.367566,144.944201 327.367566,144.925088 327.369289,144.906091 C327.323604,144.738579 327.274112,144.571066 327.224619,144.403553 L327.224619,144.369289 C327.17132,144.194162 327.11802,144.022843 327.060914,143.851523 L327.060914,143.851523 C327.003807,143.676396 326.942893,143.497462 326.878173,143.322335 L326.878173,143.322335 C326.809645,143.143401 326.744924,142.964467 326.672589,142.78934 L326.672589,142.78934 C326.193753,141.562787 325.545309,140.409429 324.746193,139.362944 C323.002538,137.124365 320.307107,135.517766 317.51269,135.624365 C316.01269,135.681472 314.573604,136.206853 313.161168,136.728426 L309.494924,138.079949 L310.519036,137.607868 C309.453046,137.703046 308.364213,137.80203 307.401015,138.274112 C306.437817,138.746193 305.623096,139.67132 305.59264,140.752538 C305.573604,141.380711 305.821066,142.005076 305.741117,142.629442 C305.607868,143.661168 304.659898,144.361675 304.168782,145.275381 C303.880959,145.825906 303.749299,146.444707 303.788071,147.064721 L303.788071,147.095178 C303.788071,147.167513 303.788071,147.236041 303.788071,147.308376 C303.786221,147.328638 303.786221,147.349027 303.788071,147.369289 L303.788071,147.491117 C302.265228,146.82868 300.742386,146.139594 299.219543,145.401015 C296.703046,144.163706 294.156091,142.709391 292.587563,140.364213 C292.085025,139.602792 291.696701,138.780457 291.19797,138.02665 C290.62576,137.215394 289.989188,136.451507 289.294416,135.742386 L284.623096,130.686548 C284.265228,131.360406 284.725888,132.156091 285.087563,132.826142 C285.471654,133.528945 285.762188,134.278959 285.951777,135.057107 C286.043908,135.310662 286.035738,135.58983 285.928934,135.837563 C285.758917,136.041797 285.538415,136.197986 285.28934,136.290609 C284.411956,136.84285 284.01649,137.916703 284.326142,138.906091 C284.663377,139.870003 285.483756,140.58476 286.484772,140.786802 C286.81454,140.824362 287.138199,140.903678 287.44797,141.022843 C288.011421,141.300761 288.277919,141.94797 288.681472,142.431472 C289.416244,143.314721 290.585025,143.645939 291.700508,143.935279 C293.428934,145.930203 295.225888,147.841371 296.954315,149.836294 C299.569797,152.85533 302.246193,155.927665 305.65736,157.968274 C306.011421,158.181472 306.373096,158.379442 306.738579,158.562183 C306.738579,158.623096 306.738579,158.68401 306.719543,158.744924 C306.624058,159.194917 306.681678,159.663913 306.883249,160.077411 C307.187817,160.560914 307.81599,160.705584 308.375635,160.804569 L310.956853,161.265228 C310.933979,161.599835 310.892033,161.932863 310.831218,162.26269 C310.796954,162.464467 310.755076,162.662437 310.717005,162.864213 L310.717005,162.864213 L310.67132,163.123096 C310.67132,163.123096 310.67132,163.149746 310.67132,163.161168 C310.67132,163.172589 310.67132,163.298223 310.64467,163.370558 C310.61802,163.442893 310.64467,163.420051 310.64467,163.442893 L310.64467,163.625635 L310.64467,163.701777 C310.64467,163.781726 310.64467,163.865482 310.64467,163.949239 C310.732234,164.961929 311.406091,165.799492 312.079949,166.572335 L312.441624,167.010152 C311.867686,167.732763 311.46543,168.57633 311.265228,169.477157 C311.15044,170.042201 311.094304,170.617587 311.097716,171.194162 C310.752515,171.523467 310.491394,171.930815 310.336294,172.38198 C310.155841,173.005843 310.088788,173.657023 310.138325,174.304569 L310.138325,174.350254 C310.138325,174.590102 310.138325,174.826142 310.138325,175.06599 C310.094123,175.975625 310.244689,176.884212 310.579949,177.730964 C310.614213,177.799492 310.652284,177.860406 310.686548,177.925127 C310.115482,179.044416 309.163706,179.916244 308.482234,180.970812 C307.07016,183.369426 307.312198,186.395657 309.087563,188.53934 C309.609137,189.140863 310.279188,189.719543 310.340102,190.519036 C310.33101,190.881561 310.295382,191.242933 310.233503,191.600254 C310.172589,192.46066 310.568528,193.275381 310.781726,194.109137 C310.96066,194.80203 310.968274,195.63198 310.572335,196.187817 C310.171819,196.771924 309.987385,197.47735 310.050761,198.182741 C310.244924,199.260152 309.799492,200.337563 309.72335,201.430203 C309.689086,201.898477 309.72335,202.374365 309.681472,202.84264 C309.626618,203.291354 309.533642,203.73458 309.403553,204.167513 C309.403553,204.213198 309.380711,204.26269 309.365482,204.312183 C308.425127,204.727157 307.492386,205.15736 306.593909,205.656091 C306.108691,205.872259 305.70756,206.241299 305.451777,206.706853 C305.2999,207.174504 305.278835,207.67479 305.390863,208.153553 L306.201777,213.795685 L306.060914,213.734772 C306.124365,214.658629 306.190355,215.586294 306.258883,216.517766 C306.308376,217.222081 306.373096,217.968274 306.791878,218.531726 C307.004943,218.759092 307.197328,219.004987 307.366751,219.266497 C307.686548,219.913706 307.305838,220.667513 307.024112,221.329949 C306.742386,221.992386 306.643401,222.932741 307.263959,223.290609 C307.587569,223.515746 307.936382,223.70229 308.303299,223.846447 C307.541878,227.021574 308.242386,230.348985 308.950508,233.535533 C309.491117,235.972081 310.032995,238.406091 310.576142,240.837563 C310.78855,241.870515 310.908315,242.920368 310.93401,243.974619 C310.93401,244.126904 310.93401,244.279188 310.93401,244.431472 C311.010393,245.881316 311.266149,247.316107 311.695431,248.703046 C312.540609,251.550761 311.729695,254.969543 311.996193,258.072335 C312.173349,259.564816 312.47128,261.040467 312.887056,262.484772 C314.725888,269.779188 316.366751,276.928934 316.998731,284.428934 C317.674852,285.289857 318.591981,285.929992 319.633249,286.267766 C319.557107,287.189086 319.659898,288.243655 319.633249,288.780457 C319.63219,289.224957 319.562854,289.666657 319.427665,290.090102 C319.104061,290.935279 318.285533,291.48731 317.436548,291.784264 C317.170051,291.875635 316.899746,291.94797 316.625635,292.01269 L316.930203,291.753807 C315.189631,291.375591 313.370146,291.69547 311.862944,292.64467 C311.384777,292.888326 311.024156,293.313393 310.861675,293.824873 C310.799043,294.308503 310.924415,294.797726 311.211929,295.191624 C312.050084,296.418521 313.299007,297.305594 314.733503,297.692893 C316.15106,298.066163 317.60801,298.269369 319.073604,298.298223 L321.761421,298.454315 C321.572616,298.771818 321.64742,299.179985 321.936548,299.409898 C322.224636,299.62029 322.56662,299.744408 322.922589,299.767766 C324.020876,299.930719 325.135918,299.947361 326.238579,299.817259 C326.515109,299.809349 326.781881,299.713311 327,299.543147 C327.102506,299.450063 327.160956,299.318032 327.160956,299.179569 C327.160956,299.041105 327.102506,298.909074 327,298.81599 C327.330045,298.805451 327.620018,298.594012 327.730964,298.282995 C327.836341,297.973538 327.870184,297.644218 327.829949,297.319797 C327.757614,296.067259 327.647208,294.247462 326.996193,293.13198 C326.76482,292.714804 326.283706,292.503052 325.819797,292.614213 C325.398649,290.384973 325.144138,288.127458 325.058376,285.860406 C325.729147,285.608794 326.382815,285.313753 327.015228,284.977157 C325.145939,281.958122 325.111675,278.124365 325.682741,274.614213 C325.909289,273.505994 326.075775,272.386341 326.181472,271.260152 C326.307107,269.013959 325.968274,266.470812 324.72335,264.612944 C326.992748,266.056133 329.000923,267.873789 330.662437,269.988579 C333.293147,273.414975 334.895939,277.564721 338.120558,280.420051 C338.544416,280.006345 338.97335,279.595178 339.40736,279.186548 C340.087563,280.338832 340.730964,281.515228 341.337563,282.715736 C341.81346,283.598671 342.1889,284.532163 342.456853,285.498731 C342.753807,286.977348 342.7886,288.496648 342.559645,289.98731 C342.470812,290.779188 342.362944,291.567259 342.236041,292.351523 C342.184861,292.687081 342.107208,293.018064 342.003807,293.341371 C342.002358,293.238202 341.977632,293.136693 341.931472,293.044416 C341.729695,292.690355 341.170051,292.850254 340.865482,293.093909 C340.323044,293.500944 339.874996,294.02042 339.55203,294.616751 C339.374349,294.907952 339.291843,295.247291 339.31599,295.587563 C339.415791,296.002188 339.694807,296.350958 340.077411,296.53934 C341.489848,297.365482 343.263959,296.767766 344.779188,296.158629 C345.197779,296.008014 345.596615,295.807318 345.967005,295.560914 C346.728426,295.01269 347.143401,294.110406 347.901015,293.577411 C348.305442,293.355513 348.695779,293.108851 349.069797,292.838832 C349.774112,292.195431 349.831218,291.110406 350.345178,290.295685 C351.19797,288.890863 353.10533,288.529188 353.851523,287.040609 C354.715736,285.395939 353.706853,283.321066 352.404822,282.247462 Z" id="Path" fill="url(#linearGradient-1)"></path>
            <path d="M319.583756,288.94797 C319.581423,289.387682 319.510784,289.824363 319.374365,290.242386 C319.054569,291.076142 318.232234,291.620558 317.387056,291.913706 C316.541878,292.206853 315.643401,292.294416 314.782995,292.549492 C314.405077,292.635544 314.05527,292.816343 313.766497,293.074873 C313.005076,293.836294 313.461929,295.206853 314.352792,295.774112 C315.243655,296.341371 316.378173,296.322335 317.436548,296.25 C319.682313,296.119261 321.913336,295.80218 324.106599,295.30203 C324.898477,295.115482 325.823604,294.75 325.949239,293.946701 C325.973011,293.69128 325.952403,293.433672 325.888325,293.185279 C325.348043,290.460018 325.061286,287.69058 325.031726,284.912437 C325.031726,284.729695 320.615482,284.611675 320.204315,284.878173 C319.282995,285.483503 319.633249,288.011421 319.583756,288.94797 Z" id="Path" fill="#FAD6C6"></path>
            <path d="M339.274112,279.251269 C340.005076,280.461929 340.691624,281.696701 341.333756,282.955584 C341.809387,283.825319 342.184882,284.746174 342.453046,285.700508 C342.748108,287.15879 342.782908,288.657768 342.555838,290.128173 C342.467005,290.90736 342.357868,291.685279 342.228426,292.461929 C342.102792,293.22335 341.901015,294.087563 341.25,294.525381 C341.837774,294.873869 342.55191,294.936881 343.191624,294.696701 C343.819824,294.453511 344.398921,294.09883 344.901015,293.649746 C348.163706,290.958122 350.611675,287.048223 350.733503,282.818528 C350.767912,282.488155 350.705756,282.154894 350.554569,281.859137 C350.400735,281.652159 350.206449,281.478597 349.983503,281.348985 C347.548921,279.690761 345.287513,277.791586 343.233503,275.680203 C343.11279,275.517819 342.936683,275.405382 342.738579,275.364213 C342.582681,275.365123 342.429987,275.408562 342.296954,275.489848 C341.044416,276.11802 338.950508,277.01269 338.428934,278.440355 C338.785453,278.620003 339.079872,278.902485 339.274112,279.251269 L339.274112,279.251269 Z" id="Path" fill="#FAD6C6"></path>
            <path d="M324.045685,293.36802 C321.304569,294.510152 318.335025,294.92132 315.369289,295.313452 C314.988579,295.359137 314.581218,295.389594 314.329949,295.123096 C314.12576,294.868616 314.098555,294.514949 314.261421,294.232234 C314.423043,293.957582 314.639461,293.719133 314.897208,293.531726 L316.865482,291.883249 C315.149309,291.51913 313.358846,291.827079 311.862944,292.743655 C311.392828,292.977901 311.034312,293.388416 310.865482,293.885787 C310.802079,294.364698 310.927711,294.849473 311.215736,295.23731 C312.058111,296.451341 313.30513,297.325874 314.733503,297.704315 C316.150742,298.071657 317.606028,298.272254 319.069797,298.30203 L321.734772,298.454315 C321.54472,298.76858 321.621845,299.175542 321.913706,299.398477 C322.203043,299.609787 322.546142,299.73515 322.903553,299.760152 C324.000879,299.919999 325.11442,299.935358 326.215736,299.805838 C326.492231,299.801191 326.759623,299.706266 326.977157,299.535533 C327.07912,299.444521 327.137419,299.314338 327.137419,299.177665 C327.137419,299.040992 327.07912,298.910809 326.977157,298.819797 C327.306232,298.809857 327.59593,298.600128 327.708122,298.290609 C327.809855,297.985619 327.843639,297.662067 327.807107,297.34264 C327.734772,296.109137 327.624365,294.296954 326.97335,293.219543 C326.322335,292.142132 324.967005,292.98731 324.045685,293.36802 Z" id="Path" fill="#3F3D56"></path>
            <path d="M352.336294,282.483503 C351.46786,281.839532 350.517981,281.313386 349.511421,280.918782 C349.430016,280.856252 349.324438,280.834493 349.224942,280.859738 C349.125446,280.884983 349.043015,280.954447 349.001269,281.048223 C347.203345,283.488073 345.799227,286.194823 344.840102,289.069797 C344.295685,290.706853 343.865482,292.450508 342.761421,293.775381 C342.616751,293.950508 342.380711,294.129442 342.182741,294.02665 C341.897208,293.88198 342.072335,293.42132 341.912437,293.143401 C341.714467,292.793147 341.173858,292.953046 340.850254,293.192893 C340.306144,293.597071 339.858785,294.117255 339.540609,294.715736 C339.358318,294.999353 339.275299,295.335445 339.304569,295.67132 C339.400774,296.078209 339.672763,296.421333 340.046954,296.607868 C341.459391,297.426396 343.233503,296.836294 344.744924,296.227157 C345.162384,296.079955 345.560065,295.881754 345.928934,295.637056 C346.690355,295.100254 347.10533,294.205584 347.862944,293.68401 C348.26725,293.46471 348.657591,293.220588 349.031726,292.953046 C349.732234,292.317259 349.793147,291.247462 350.303299,290.440355 C351.156091,289.058376 353.063452,288.700508 353.809645,287.230964 C354.643401,285.590102 353.638325,283.541878 352.336294,282.483503 Z" id="Path" fill="#3F3D56"></path>
            <path d="M331.088832,206.436548 C334.081218,208.682741 335.337563,212.676396 335.204315,216.414975 C335.071066,220.153553 333.757614,223.739848 332.455584,227.246193 C330.590102,232.263959 328.727157,237.280457 326.866751,242.295685 C327.074173,242.845832 327.202358,243.422666 327.247462,244.008883 C327.366765,244.598428 327.228209,245.210849 326.866751,245.691624 C326.691624,245.893401 326.486041,246.049492 326.295685,246.247462 C325.747462,246.856599 325.713198,247.770305 325.800761,248.581218 C325.888325,249.392132 326.074873,250.229695 325.865482,251.021574 C325.777919,251.360406 325.61802,251.680203 325.557107,252.022843 C325.470603,252.369346 325.576706,252.735619 325.835025,252.982234 C326.215736,253.286802 326.977157,253.187817 327.087563,253.667513 C332.206613,258.076658 336.499525,263.362225 339.765228,269.27665 C340.998731,271.496193 342.243655,273.955584 344.546954,275.029188 C342.302691,276.807005 340.15137,278.6991 338.101523,280.69797 C334.884518,277.880711 333.281726,273.780457 330.654822,270.418782 C328.992,268.328114 326.986354,266.534877 324.72335,265.115482 C325.968274,266.946701 326.307107,269.459391 326.181472,271.67132 C326.076041,272.782425 325.909545,273.886887 325.682741,274.979695 C325.09264,278.444162 325.145939,282.213198 327.015228,285.205584 C325.020305,286.241117 322.728426,287.010152 320.501269,286.701777 C319.103791,286.503045 317.834769,285.778667 316.953046,284.676396 C316.321066,277.275381 314.668782,270.209391 312.845178,263.025381 C312.427118,261.592184 312.130386,260.126354 311.958122,258.643401 C311.691624,255.597716 312.502538,252.209391 311.653553,249.399746 C311.225822,248.033271 310.970044,246.61882 310.892132,245.189086 C310.892132,245.036802 310.892132,244.888325 310.892132,244.736041 C310.866206,243.696908 310.74643,242.662243 310.534264,241.64467 L308.912437,234.441624 C308.204315,231.293147 307.496193,228.011421 308.261421,224.878173 C307.896439,224.737166 307.548959,224.554484 307.225888,224.333756 C306.60533,223.979695 306.704315,223.054569 306.986041,222.399746 C307.267766,221.744924 307.64467,221.002538 307.32868,220.362944 C307.160117,220.103186 306.967657,219.859742 306.753807,219.635787 C306.335025,219.079949 306.270305,218.345178 306.220812,217.652284 L306.022843,214.903553 C307.172094,215.359198 308.129334,216.196783 308.733503,217.275381 C307.233503,214.953046 307.972081,211.640863 309.079949,209.10533 C309.502835,207.51018 310.925265,206.383703 312.574873,206.337563 C318.677665,205.294416 326.13198,202.709391 331.088832,206.436548 Z" id="Path" fill="#3F3D56"></path>
            <path d="M328.305838,222.068528 C328.305838,222.068528 325.305838,224.071066 325.305838,225.571066 C325.305838,227.071066 324.544416,240.571066 324.544416,240.571066 L324.544416,250.088832 C324.544416,250.088832 325.043147,255.091371 324.544416,256.340102 C324.045685,257.588832 324.544416,263.341371 324.544416,264.091371 C324.544416,264.841371 325.305838,256.340102 325.305838,256.340102 L325.305838,247.324873 L326.067259,226.819797 L328.305838,222.068528 Z" id="Path" fill="#000000" opacity="0.1"></path>
            <path d="M311.573604,152.725888 L309.826142,152.044416 C306.255076,150.612944 302.680203,149.177665 299.22335,147.498731 C296.71066,146.27665 294.163706,144.833756 292.598985,142.530457 C292.096447,141.769036 291.708122,140.969543 291.209391,140.219543 C290.636267,139.417311 289.999707,138.662351 289.305838,137.961929 L284.638325,132.974619 C284.280457,133.640863 284.73731,134.425127 285.102792,135.083756 C285.485247,135.777936 285.775756,136.518928 285.967005,137.288071 C286.056772,137.535798 286.047222,137.808648 285.940355,138.049492 C285.772281,138.253257 285.552767,138.408362 285.304569,138.498731 C284.429971,139.034946 284.032788,140.097764 284.341371,141.076142 C284.681283,142.03242 285.500297,142.738566 286.496193,142.93401 C286.825479,142.972128 287.148915,143.050111 287.459391,143.166244 C288.022843,143.444162 288.28934,144.079949 288.692893,144.555838 C289.427665,145.427665 290.596447,145.758883 291.708122,146.040609 C293.436548,148.008883 295.229695,149.893401 296.958122,151.861675 C299.569797,154.838832 302.242386,157.869289 305.653553,159.887056 C306.864921,160.627566 308.191592,161.160293 309.57868,161.463198 C310.0374,158.50748 310.704029,155.587799 311.573604,152.725888 Z" id="Path" fill="#FAD6C6"></path>
            <path d="M311.459679,152.624231 L309.712217,151.942759 C306.141151,150.511286 302.566278,149.076007 299.109425,147.397073 C296.596735,146.174992 294.049781,144.732099 292.48506,142.428799 C291.982522,141.667378 291.594197,140.867885 291.095466,140.117885 C290.522342,139.315653 289.885783,138.560694 289.191913,137.860271 L284.5244,132.872962 C284.166532,133.539205 284.623385,134.323469 284.988867,134.982099 C285.371322,135.676279 285.661831,136.41727 285.85308,137.186413 C285.942847,137.43414 285.933297,137.70699 285.82643,137.947835 C285.658356,138.1516 285.438843,138.306705 285.190644,138.397073 C284.316046,138.933289 283.918863,139.996106 284.227446,140.974484 C284.567358,141.930762 285.386372,142.636908 286.382268,142.832352 C286.711554,142.870471 287.03499,142.948453 287.345466,143.064586 C287.908918,143.342505 288.175415,143.978292 288.578969,144.45418 C289.31374,145.326007 290.482522,145.657226 291.594197,145.938951 C293.322623,147.907226 295.115771,149.791743 296.844197,151.760017 C299.455872,154.737175 302.128461,157.767632 305.539628,159.785398 C306.750996,160.525908 308.077667,161.058636 309.464755,161.36154 C309.923475,158.405822 310.590104,155.486141 311.459679,152.624231 Z" id="Path" fill="#FAD6C6" opacity="0.15"></path>
            <path d="M308.375635,162.666244 C307.81599,162.567259 307.187817,162.430203 306.883249,161.950508 C306.681676,161.543813 306.623966,161.080786 306.719543,160.637056 C307.022361,157.767616 307.661258,154.94369 308.623096,152.22335 C309.472081,153.795685 311.143401,154.713198 312.727157,155.53934 C314.140986,156.325405 315.615193,156.997583 317.135787,157.549492 C316.755076,157.427665 315.822335,163.282995 315.296954,163.640863 C314.634518,164.10533 313.035533,163.477157 312.300761,163.351523 L308.375635,162.666244 Z" id="Path" fill="#575A89"></path>
            <circle id="Oval" fill="#E0C0B1" cx="312.430203" cy="152.935279" r="8.00253807"></circle>
            <path d="M310.804569,159.559645 C310.804569,159.559645 316.054569,164.059645 313.804569,167.059645 C311.554569,170.059645 310.30203,172.062183 313.30203,172.313452 C316.30203,172.564721 326.303299,167.310914 326.303299,167.310914 C326.303299,167.310914 317.05203,159.810914 318.55203,155.310914 C320.05203,150.810914 310.804569,159.559645 310.804569,159.559645 Z" id="Path" fill="#FBBEBE"></path>
            <path d="M315.841371,166.602792 C313.559248,167.151126 311.781321,168.939364 311.246193,171.224619 C310.656091,173.920051 311.908629,176.935279 310.728426,179.417513 C310.172589,180.597716 309.140863,181.480964 308.444162,182.588832 C307.038068,184.952447 307.279307,187.946564 309.045685,190.054569 C309.567259,190.648477 310.23731,191.22335 310.298223,192.007614 C310.289313,192.365105 310.253681,192.721428 310.191624,193.073604 C310.130711,193.922589 310.52665,194.729695 310.739848,195.55203 C310.918782,196.233503 310.926396,197.05203 310.530457,197.600254 C310.131102,198.174733 309.947707,198.871902 310.01269,199.568528 C310.203046,200.634518 309.757614,201.696701 309.681472,202.774112 C309.647208,203.238579 309.681472,203.703046 309.639594,204.167513 C309.584165,204.609569 309.492486,205.046319 309.365482,205.47335 L308.695431,207.944162 C312.327411,209.497462 316.187817,210.057107 320.116751,209.984772 C323.634518,209.916244 327.102792,209.189086 330.544416,208.461929 C331.591371,208.241117 332.638325,208.020305 333.670051,207.734772 C331.492386,204.887056 331.260152,201.114213 331.199239,197.531726 C331.104341,191.558894 330.658139,185.596818 329.862944,179.676396 C330.917513,177.685279 331.385787,175.465736 331.819797,173.253807 C332.014661,172.362803 332.096524,171.450804 332.063452,170.53934 C331.956853,168.635787 331.081218,166.827411 330.224619,165.102792 C329.440355,163.52665 328.591371,161.866751 326.843909,161.185279 C325.986185,160.823808 325.0025,160.931826 324.243655,161.470812 C322.922589,162.468274 323.314721,164.189086 322.975888,165.658629 C322.530457,167.562183 320.775381,168.928934 318.906091,169.465736 C317.511018,169.831333 316.065553,169.966363 314.626904,169.865482 C314.339506,169.849069 314.085935,169.671979 313.971568,169.407807 C313.8572,169.143635 313.901592,168.837549 314.086294,168.616751 C314.699239,167.939086 315.31599,167.25 315.841371,166.602792 Z" id="Path" fill="#575A89"></path>
            <path d="M322.03934,197.535533 C319.077411,199.956853 316.081218,202.401015 312.662437,204.114213 C310.656091,205.119289 308.524112,205.861675 306.571066,206.942893 C306.088157,207.15512 305.687311,207.518554 305.428934,207.978426 C305.273442,208.43887 305.252313,208.934077 305.36802,209.406091 L306.236041,215.390863 C306.475888,217.01269 308.032995,218.055838 309.281726,219.091371 C309.213198,218.546954 309.102792,218.124365 309.361675,217.640863 C309.451424,217.489744 309.549283,217.343591 309.654822,217.203046 C310.187817,216.395939 310.206853,215.348985 310.077411,214.389594 C309.94797,213.430203 309.696701,212.486041 309.746193,211.503807 C309.724408,211.173146 309.877567,210.855268 310.149746,210.666244 C314.402284,208.621827 318.982234,207.053299 323.280457,205.111675 C324.417703,204.65197 325.489172,204.043908 326.467005,203.303299 C327.449583,202.549567 328.110588,201.451973 328.317259,200.230964 C328.357105,200.071033 328.32958,199.901758 328.241117,199.76269 C328.15487,199.66811 328.042083,199.601765 327.917513,199.572335 C325.991117,198.871827 323.958122,198.228426 322.03934,197.535533 Z" id="Path" fill="#FAD6C6"></path>
            <path d="M313.812183,172.423858 C312.34264,172.67132 310.796954,173.432741 310.298223,174.841371 C310.118825,175.458923 310.051771,176.103671 310.100254,176.744924 C310.054622,177.646322 310.20665,178.546795 310.545685,179.383249 C310.796182,179.844917 311.094797,180.278801 311.436548,180.677665 C314.954315,185.185279 316.720812,190.846447 320.147208,195.426396 C320.451777,195.829949 321.007614,196.35533 320.836294,196.831218 C320.774044,196.954679 320.719374,197.081818 320.672589,197.211929 C320.640949,197.461905 320.735024,197.711347 320.923858,197.878173 C321.106517,198.045679 321.248459,198.252731 321.338832,198.483503 C321.403553,198.72335 321.243655,199.035533 320.996193,199.016497 C321.40736,200.288071 322.667513,201.030457 323.862944,201.63198 C325.850254,202.633249 328.050761,203.42132 330.26269,203.204315 C330.677665,201.540609 331.256345,199.659898 331.024112,197.965736 C330.781071,196.671956 330.351463,195.42032 329.748731,194.25 L328.260152,190.998731 C326.992386,188.22335 325.713198,185.428934 323.946701,182.942893 C323.310291,182.155883 322.774437,181.292632 322.351523,180.373096 C321.898477,179.196701 320.653553,178.370558 319.899746,177.361675 C318.780457,175.838832 317.615482,174.31599 316.115482,173.215736 C315.513959,172.751269 314.546954,172.30203 313.812183,172.423858 Z" id="Path" fill="#000000" opacity="0.1"></path>
            <path d="M313.812183,171.673858 C312.34264,171.92132 310.796954,172.682741 310.298223,174.087563 C310.119471,174.705243 310.05243,175.349874 310.100254,175.991117 C310.054622,176.892514 310.20665,177.792988 310.545685,178.629442 C310.796182,179.09111 311.094797,179.524994 311.436548,179.923858 C314.954315,184.431472 316.720812,190.09264 320.147208,194.672589 C320.451777,195.076142 321.007614,195.601523 320.836294,196.077411 C320.774044,196.200872 320.719374,196.328011 320.672589,196.458122 C320.640949,196.708098 320.735024,196.957539 320.923858,197.124365 C321.106517,197.291872 321.248459,197.498924 321.338832,197.729695 C321.403553,197.969543 321.243655,198.281726 320.996193,198.26269 C321.40736,199.534264 322.667513,200.27665 323.862944,200.878173 C325.850254,201.879442 328.050761,202.667513 330.26269,202.450508 C330.677665,200.786802 331.256345,198.906091 331.024112,197.211929 C330.781071,195.918149 330.351463,194.666513 329.748731,193.496193 L328.260152,190.244924 C326.992386,187.469543 325.713198,184.675127 323.946701,182.189086 C323.309501,181.40126 322.773596,180.536649 322.351523,179.615482 C321.898477,178.442893 320.653553,177.616751 319.899746,176.607868 C318.780457,175.085025 317.615482,173.562183 316.115482,172.461929 C315.513959,172.001269 314.546954,171.55203 313.812183,171.673858 Z" id="Path" fill="#575A89"></path>
            <path d="M310.458122,139.78934 C309.395939,139.880711 308.303299,139.979695 307.343909,140.444162 C306.384518,140.908629 305.56599,141.822335 305.535533,142.888325 C305.535533,143.508883 305.763959,144.125635 305.68401,144.738579 C305.550761,145.758883 304.602792,146.44797 304.115482,147.350254 C303.26269,148.918782 303.925127,150.913706 305.029188,152.299492 C306.133249,153.685279 307.629442,154.751269 308.763959,156.129442 C310.574777,158.359125 311.327752,161.265445 310.827411,164.093909 C310.686594,164.637061 310.618738,165.196547 310.625635,165.757614 C310.713198,166.755076 311.387056,167.581218 312.057107,168.34264 C315.316564,172.154125 318.332688,176.167147 321.087563,180.357868 C321.914096,181.575054 322.656926,182.847022 323.310914,184.164975 C323.958122,185.527919 324.453046,186.982234 325.351523,188.189086 C326.180984,189.225303 327.197247,190.096939 328.347716,190.758883 C331.249634,192.548443 334.541002,193.610301 337.941624,193.854061 L335.980964,188.992386 C335.634518,188.128173 335.27665,187.218274 335.390863,186.293147 C335.607868,184.541878 337.374365,183.392132 337.949239,181.724619 C338.329949,180.651015 338.158629,179.467005 337.846447,178.374365 C337.153553,175.911168 335.767766,173.695431 335.021574,171.247462 C334.367331,169.101038 334.221352,166.83185 334.595178,164.619289 C334.758883,163.64467 335.025381,162.666244 334.903553,161.687817 C334.541878,158.71066 331.050761,157.286802 329.436548,154.76269 C328.393401,153.140863 328.191624,151.142132 327.841371,149.246193 C327.335025,146.478426 326.432741,143.714467 324.689086,141.506345 C322.945431,139.298223 320.257614,137.699239 317.455584,137.817259 C315.955584,137.874365 314.520305,138.395939 313.107868,138.906091 L309.437817,140.242386" id="Path" fill="#3F3D56"></path>
            <g id="Group" opacity="0.1" transform="translate(303.426396, 144.670051)" fill="#000000">
                <path d="M23.4137056,1.33629442 C23.7296954,3.04568528 23.927665,4.83883249 24.7271574,6.36548223 C24.6167513,5.7715736 24.5253807,5.17385787 24.4149746,4.58756345 C24.1564329,3.09519604 23.7456583,1.63324696 23.1890863,0.224619289 C23.284264,0.593908629 23.3489848,0.96319797 23.4137056,1.33629442 Z" id="Path"></path>
                <path d="M30.1675127,16.7093909 C29.7957368,18.9233237 29.9416808,21.1932749 30.5939086,23.3413706 C30.7728426,23.9238579 30.9746193,24.4835025 31.2182741,25.0545685 C30.9011694,23.3728372 30.8844132,21.6482351 31.1687817,19.9606599 C31.3324873,18.9860406 31.5989848,18.0076142 31.4771574,17.0291878 C31.3650294,16.1908156 31.0223562,15.4000314 30.4873096,14.7449239 C30.430203,15.4073604 30.2779188,16.0583756 30.1675127,16.7093909 Z" id="Path"></path>
                <path d="M34.4200508,33.715736 C34.2091201,33.0004276 33.9548428,32.2986221 33.6586294,31.6142132 C33.7867161,32.3487497 33.7371105,33.103276 33.5139594,33.8147208 C32.9390863,35.4784264 31.1687817,36.6319797 30.9555838,38.3832487 C30.8413706,39.3083756 31.1954315,40.2182741 31.5456853,41.0824873 C31.6751269,41.4060914 31.8045685,41.7335025 31.9263959,42.0571066 C31.9168974,41.9164038 31.9168974,41.7752206 31.9263959,41.6345178 C32.143401,39.8832487 33.9098985,38.7335025 34.4847716,37.0659898 C34.8959391,35.9923858 34.7322335,34.8083756 34.4200508,33.715736 Z" id="Path"></path>
                <path d="M23.9238579,42.8489848 C22.7735284,42.1852498 21.7573575,41.3124016 20.927665,40.2753807 C20.0253807,39.0685279 19.5304569,37.6104061 18.8832487,36.251269 C18.230244,34.9327866 17.4873761,33.6607527 16.6598985,32.4441624 C13.9060545,28.2524761 10.8912161,24.2382017 7.63324873,20.4251269 C7.51522843,20.2918782 7.40101523,20.1548223 7.28680203,20.0177665 C7.20827033,20.3698881 7.17880349,20.7311772 7.19923858,21.0913706 C7.28680203,22.0888325 7.9606599,22.9149746 8.63071066,23.6763959 C11.8901679,27.4878809 14.9062925,31.5009033 17.6611675,35.6916244 C18.4877005,36.9088105 19.2305298,38.1807785 19.8845178,39.498731 C20.5317259,40.8616751 21.0266497,42.3159898 21.9251269,43.5228426 C22.7545877,44.5590589 23.7708509,45.430695 24.9213198,46.0926396 C27.8232376,47.8821993 31.1146061,48.9440575 34.5152284,49.1878173 L33.1827411,45.9137056 C29.9000812,45.6262023 26.7297642,44.5768169 23.9238579,42.8489848 L23.9238579,42.8489848 Z" id="Path"></path>
                <path d="M4.33629442,8.22335025 C3.19416244,6.84517766 1.70558376,5.79822335 0.601522843,4.39720812 C0.502538071,4.2677665 0.407360406,4.13451777 0.312182741,3.99365482 C0.28947637,5.32624038 0.74765824,6.62239499 1.60279188,7.64467005 C2.70685279,9.04949239 4.20304569,10.0964467 5.33756345,11.4746193 C5.78049517,12.0098794 6.163488,12.5920285 6.47969543,13.2106599 C6.24394029,11.380968 5.50155396,9.65356816 4.33629442,8.22335025 L4.33629442,8.22335025 Z" id="Path"></path>
            </g>
        </g>
    </g>
</svg>