<?xml version="1.0" encoding="UTF-8"?>
<svg width="453px" height="300px" viewBox="0 0 453 300" version="1.1" xmlns="http://www.w3.org/2000/svg" xmlns:xlink="http://www.w3.org/1999/xlink">
    <!-- Generator: Sketch 61.2 (89653) - https://sketch.com -->
    <title>img-problem-7</title>
    <desc>Created with Sketch.</desc>
    <g id="img-problem-7" stroke="none" stroke-width="1" fill="none" fill-rule="evenodd">
        <g id="undraw_working_out_6psf" transform="translate(27.000000, 41.000000)" fill-rule="nonzero">
            <path d="M400,204.622219 C400,192.708589 393.954778,183.050678 386.497585,183.050678 C381.810548,183.050678 377.682585,186.867459 375.261544,192.660152 C374.44355,192.320502 373.566879,192.144589 372.681174,192.142374 C370.424,192.142374 368.337056,193.298959 366.635148,195.256396 C364.452756,188.033804 359.825022,183.050678 354.468615,183.050678 C349.460404,183.050678 345.092319,187.4102 342.76133,193.880189 C341.466283,192.78727 339.834408,192.173602 338.140111,192.142374 C332.417163,192.142393 327.777778,199.554244 327.777778,208.697267 C327.75404,211.745103 328.307999,214.769839 329.410344,217.611441 L397.276907,217.611441 C398.985556,213.998019 400,209.499893 400,204.622219 Z" id="Path" fill="#54C41C"></path>
            <path d="M351.592222,80.0559963 C340.958767,57.0532259 320.149307,37.4299926 295.010304,34.2317074 C288.363507,33.3860741 281.423719,33.7252259 275.256681,36.3448778 C267.161496,39.7836 261.195541,46.7245407 255.165515,53.1273778 C242.398483,66.6803067 228.111592,78.7162377 212.587778,88.9968111 C204.925926,94.0694037 196.707778,98.8022 187.611015,100.100078 C169.372015,102.702322 151.331178,90.2644 143.01317,73.8253037 C137.817111,63.5562296 135.415967,51.4995222 131.215548,40.8182667 C126.377993,40.8090074 120.614489,40.8107852 114.413744,40.8393556 C97.2742148,40.918363 83.3233185,41.1715778 83.3233185,41.1715778 C83.3233185,41.1715778 99.9061407,19.2059296 114.351559,27.3440407 C118.967896,29.9447481 123.802989,32.2655519 128.246504,34.2205778 C125.722137,29.3647333 122.537956,24.9956556 118.157485,21.4828333 C109.51997,14.5562037 97.8214074,12.6132963 86.7616333,13.1291296 C75.1480222,13.6708037 63.4276667,16.7800926 53.9906815,23.5707296 C37.1793407,35.6677667 30.2369778,56.9606667 24.2952259,76.8014111 L38.6572704,84.0013444 C44.8176852,78.6754185 53.8260889,73.4069741 62.129337,78.0847778 C76.5747296,86.2229259 93.1688111,91.6262593 93.1688111,91.6262593 C93.1688111,91.6262593 79.3310556,91.5011148 62.1915222,91.5800963 C59.3129037,91.5933667 56.527663,91.6116333 53.8799148,91.6326889 L213.333333,171.569196 C265.925926,172.309937 305.580807,169.465811 355.555556,171.569196 C358.161915,171.678878 364.024274,158.016604 364.043804,154.421096 C364.181541,129.079841 362.225681,103.05877 351.592222,80.0559963 Z M300.524874,86.9504407 C283.385344,87.0294481 269.434448,87.282663 269.434448,87.282663 C269.434448,87.282663 286.01727,65.3170148 300.462689,73.4551259 C314.908107,81.593237 331.502163,86.9966074 331.502163,86.9966074 C331.502163,86.9966074 317.664389,86.8714778 300.524856,86.9504593 L300.524874,86.9504407 Z" id="Shape" fill="#F2F2F2"></path>
            <path d="M345.185185,162.124752 C345.185185,153.46237 339.821989,146.440115 333.206119,146.440115 C329.047881,146.440115 325.38563,149.2153 323.237733,153.427152 C322.500139,153.178237 321.726936,153.051083 320.948474,153.050681 C318.935272,153.084761 317.01325,153.89608 315.584563,155.314881 C313.648389,150.063348 309.542759,146.440115 304.790663,146.440115 C300.347485,146.440115 296.472215,149.609926 294.4042,154.314244 C293.191121,153.500002 291.765328,153.060577 290.304352,153.050681 C285.227081,153.050681 281.11079,158.439837 281.11079,165.087719 C281.09625,167.330082 281.591531,169.546463 282.559493,171.5692 L342.769315,171.5692 C344.383857,168.685365 345.216666,165.429637 345.185185,162.124752 L345.185185,162.124752 Z" id="Path" fill="#54C41C" opacity="0.3"></path>
            <polygon id="Path" fill="#2F2E41" points="400 218.235926 30.3703704 218.235926 30.3703704 217.495185 399.62963 217.495185"></polygon>
            <polygon id="Path" fill="#2F2E41" points="369.62963 172.31 0 172.31 0 171.569259 369.259259 171.569259"></polygon>
            <path d="M156.899859,104.124693 C156.899859,104.124693 159.227811,87.0530296 163.107737,91.708937 C166.987663,96.3648444 163.107737,103.348707 163.107737,103.348707 L160.003796,107.228633 L156.899859,104.900678 L156.899859,104.124693 Z" id="Path" fill="#FFB8B8"></path>
            <path d="M147.588041,109.556585 C147.588041,109.556585 155.347889,101.020756 156.899859,102.572722 C158.45183,104.124689 163.107737,104.900678 162.331752,108.004615 C161.555767,111.108552 145.260085,121.196356 145.260085,121.196356 L147.588041,109.556585 Z" id="Path" fill="#54C41C"></path>
            <path d="M147.588041,109.556585 C147.588041,109.556585 155.347889,101.020756 156.899859,102.572722 C158.45183,104.124689 163.107737,104.900678 162.331752,108.004615 C161.555767,111.108552 145.260085,121.196356 145.260085,121.196356 L147.588041,109.556585 Z" id="Path" fill="#000000" opacity="0.1"></path>
            <path d="M103.356911,108.7806 L103.356911,114.988478 C103.356911,114.988478 102.580926,128.956204 107.236833,128.180219 C111.892741,127.404233 109.564789,115.764463 109.564789,115.764463 L108.788804,108.7806 L103.356911,108.7806 Z" id="Path" fill="#FFB8B8"></path>
            <path d="M105.684867,153.787715 C105.684867,153.787715 98.7010037,164.651504 96.3730481,165.427489 C94.0450926,166.203474 81.6293444,173.187333 80.0773704,180.171193 L69.2135815,194.138919 L74.6454741,201.122781 C74.6454741,201.122781 99.4769889,174.7393 106.460848,172.411344 C113.444707,170.083389 120.428574,158.443622 120.428574,158.443622 L105.684867,153.787715 Z" id="Path" fill="#FFB8B8"></path>
            <path d="M160.779781,135.940067 C160.779781,135.940067 175.523485,138.268022 173.195537,147.579837 C170.867589,156.891652 148.364026,176.291281 148.364026,176.291281 L147.588041,180.947207 L139.052222,182.499152 L135.1723,178.61923 L135.948285,176.291274 C135.948285,176.291274 145.2601,167.755441 146.036085,164.651504 C146.81207,161.547567 155.347904,149.131807 159.227826,148.355822 L153.795926,145.251885 L160.779781,135.940067 Z" id="Path" fill="#FFB8B8"></path>
            <path d="M71.541537,194.138922 C71.541537,194.138922 74.6454741,189.482996 69.9895667,190.259 C65.3336593,191.035004 62.2297185,191.810967 62.2297185,194.914907 C62.2297185,198.018848 66.1096444,219.746419 70.7655519,218.194448 C75.4214593,216.642478 71.541537,209.658619 71.541537,209.658619 C71.541537,209.658619 73.8694889,203.450741 75.4214593,202.674756 C76.9734296,201.89877 76.9734296,198.018848 75.4214593,198.018848 C73.8694889,198.018848 70.7655556,195.690911 71.541537,194.138922 Z" id="Path" fill="#2F2E41"></path>
            <path d="M137.500241,177.067259 C137.500241,177.067259 137.500241,173.187333 134.3963,177.067259 C131.292359,180.947185 129.740393,184.051122 132.84433,186.379074 C135.948267,188.707026 146.812056,194.138922 146.812056,194.138922 C146.812056,194.138922 158.451826,196.466878 156.899859,191.034985 C156.899859,191.034985 149.140011,187.155059 149.140011,184.051122 C149.140011,180.947185 149.140011,175.515289 146.812056,177.067259 C144.4841,178.61923 137.500241,179.395211 137.500241,177.067259 Z" id="Path" fill="#2F2E41"></path>
            <path d="M122.75653,118.868404 C122.75653,118.868404 111.892744,120.420374 112.668726,135.940067 C112.668726,135.940067 98.7010037,149.907793 102.580926,154.5637 C106.460848,159.219607 114.996681,167.755441 118.100622,165.427489 C121.204563,163.099537 130.516378,145.251885 130.516378,145.251885 C130.516378,145.251885 152.243948,153.01173 156.123874,149.131807 C160.0038,145.251885 163.883722,135.940067 163.883722,135.940067 L144.484093,125.852267 L122.75653,118.868404 Z" id="Path" fill="#2F2E41"></path>
            <circle id="Oval" fill="#FFB8B8" cx="153.019933" cy="65.3254556" r="9.31181852"></circle>
            <path d="M146.03607,66.1014407 C146.03607,66.1014407 140.604178,74.6372741 139.052207,75.4132593 C137.500237,76.1892444 149.915996,83.9490889 149.915996,83.9490889 C149.915996,83.9490889 149.915996,73.8612889 153.795919,71.5333333 L146.03607,66.1014407 Z" id="Path" fill="#FFB8B8"></path>
            <path d="M145.260085,74.6372741 C145.260085,74.6372741 132.84433,70.7573481 130.516381,76.9652259 C128.188433,83.1731037 122.756533,94.8128778 123.532519,102.572722 C124.308504,110.332567 125.86047,108.7806 123.532519,111.108556 C121.204567,113.436511 119.652593,111.884541 120.428578,114.988478 C121.204563,118.092415 121.980548,118.092419 121.204563,119.644404 C120.428578,121.196389 130.516378,126.628252 139.052222,127.404244 L147.588056,128.18023 C147.588056,128.18023 147.588056,114.212507 149.140026,111.108567 C150.691996,108.004626 153.795952,101.796748 153.795952,99.4687963 L153.795952,93.3092111 C153.795952,89.2094741 152.726055,85.1807089 150.692015,81.6211407 L150.692015,81.6211407 C150.692015,81.6211407 146.03607,74.6372741 145.260085,74.6372741 Z" id="Path" fill="#54C41C"></path>
            <path d="M135.94827,77.7412111 C135.94827,77.7412111 107.236833,80.0691667 104.132896,87.8290148 C101.028959,95.588863 99.4769889,111.108556 102.580926,111.108556 C105.684863,111.108556 109.564789,112.660526 110.340774,111.108556 C111.116759,109.556585 114.220696,94.0368926 114.996681,94.0368926 C115.772667,94.0368926 139.052207,91.708937 139.052207,91.708937 C139.052207,91.708937 149.14,79.2931815 135.94827,77.7412111 Z" id="Path" fill="#54C41C"></path>
            <path d="M153.394074,63.0169333 C153.394074,63.0169333 155.865163,58.7226333 158.953978,62.4526222 C162.042793,66.1826111 167.067663,59.3281 166.296296,57.8654926 C165.52493,56.4028852 162.800852,57.9312556 158.132548,56.4051852 C153.464244,54.8791148 144.471578,51.7701963 142.965511,61.9115815 C141.459444,72.0529667 145.046352,70.9897926 145.046352,70.9897926 C145.046352,70.9897926 146.690478,62.0034296 148.176444,64.5847 L149.662411,67.1659741 L150.951374,67.4832111 L153.394074,63.0169333 Z" id="Path" fill="#2F2E41"></path>
            <circle id="Oval" fill="#2F2E41" cx="241.225459" cy="27.8939481" r="11.3608741"></circle>
            <path d="M237.593941,36.303 C237.593941,36.303 238.181844,46.8852519 237.006041,46.8852519 C235.830237,46.8852519 244.354815,51.8824259 244.354815,51.8824259 L249.645926,48.9429148 L249.645926,45.4155074 C249.645926,45.4155074 242.591089,44.5336556 245.530604,36.8909148 C248.470119,29.2481741 237.593941,36.303 237.593941,36.303 Z" id="Path" fill="#FFB9B9"></path>
            <polygon id="Path" fill="#FFB9B9" points="212.901852 152.413704 212.02 161.232222 214.95963 162.114074 217.311111 159.762593 218.192963 152.413704"></polygon>
            <polygon id="Path" fill="#FFB9B9" points="255.231111 157.411111 256.700741 162.995926 260.815926 165.641481 265.225556 163.29 260.228148 155.059259"></polygon>
            <circle id="Oval" fill="#FFB9B9" cx="240.386481" cy="32.3346593" r="8.52459259"></circle>
            <path d="M235.24233,64.2283889 L233.18467,63.346537 C233.18467,63.346537 229.657263,61.2888778 229.363304,57.1735741 C229.069344,53.0582704 232.302815,47.7671296 232.302815,47.7671296 L237.006041,46.2973741 L242.531967,50.7949222 L242.591126,58.0554296 L235.24233,64.2283889 Z" id="Path" fill="#FFB9B9"></path>
            <path d="M233.18467,48.3550111 L232.008867,47.7671074 C232.008867,47.7671074 226.129837,47.4731556 225.541933,54.5279889 C224.95403,61.5828222 222.896378,73.3408815 222.896378,73.3408815 C222.896378,73.3408815 218.193156,81.5715222 218.487119,90.3900667 L216.135507,98.0328037 C216.135507,98.0328037 212.902041,109.202956 216.723407,109.202956 C220.544774,109.202956 220.250815,97.1509481 220.250815,97.1509481 C220.250815,97.1509481 227.30563,80.1017667 227.893552,77.1622519 C228.481474,74.222737 233.47863,60.4070185 232.008874,56.5856519 C230.539119,52.7642852 233.18467,48.3550111 233.18467,48.3550111 Z" id="Path" fill="#FFB9B9"></path>
            <path d="M237.593941,66.8739519 L237.593941,70.1074148 C237.593941,70.1074148 239.651604,72.4590296 238.769748,73.9287852 C237.887893,75.3985407 237.006044,78.3380444 237.006044,78.3380444 L241.121359,84.8049852 L254.937078,85.9807889 L257.684485,67.5735778 L237.593941,66.8739519 Z" id="Path" fill="#FFB9B9"></path>
            <path d="M250.527804,46.2973519 L252.879415,45.1215444 C252.879415,45.1215444 257.876593,41.594137 261.991911,41.0062259 L274.631822,32.4816333 L282.862463,12.7868852 C282.862463,12.7868852 282.568511,2.20463704 284.920122,3.38044074 C287.271733,4.55624444 286.977778,13.6687407 286.977778,13.6687407 C286.977778,13.6687407 282.568519,31.8937296 278.747141,36.8909037 C274.925763,41.8880778 261.110052,50.1187185 261.110052,50.1187185 C261.110052,50.1187185 257.288685,54.5279778 257.582644,56.5856519 C257.876604,58.6433259 250.527804,46.2973519 250.527804,46.2973519 Z" id="Path" fill="#FFB9B9"></path>
            <path d="M239.651604,78.3380556 C239.651604,78.3380556 236.418137,76.2803963 234.360493,79.8078148 C232.302848,83.3352333 228.481463,84.2170741 226.129852,94.799337 C223.778241,105.3816 218.193148,122.136837 216.723389,123.312626 C215.25363,124.488415 209.080652,136.834393 212.60807,154.177526 L218.4871,154.177526 L223.484274,129.191652 C223.484274,129.191652 239.651604,109.202952 240.827407,100.972315 L246.118519,131.837207 C246.118519,131.837207 246.41247,143.595263 250.821741,149.180341 L255.524963,160.350496 L261.697926,157.410981 L254.643111,129.191644 C254.643111,129.191644 258.170519,100.678356 255.818915,92.7416667 L255.480993,82.3365148 C255.480993,82.3365148 245.824581,82.7473296 239.651604,78.3380556 Z" id="Path" fill="#2F2E41"></path>
            <path d="M214.959681,159.762604 L211.432274,159.762604 C210.844374,159.762604 206.141163,163.58397 208.198811,165.641633 C210.256459,167.699296 213.489922,171.520659 213.489922,171.520659 C213.489922,171.520659 224.954026,172.978693 225.247978,170.92103 C225.54193,168.863367 220.250804,164.465822 220.250804,164.465822 L218.781048,159.7626 C218.781048,159.7626 215.841537,156.529137 214.959681,159.762604 Z" id="Path" fill="#2F2E41"></path>
            <path d="M261.697959,162.702119 C261.697959,162.702119 256.700785,162.408167 255.81893,162.114215 C254.937074,161.820263 253.173374,169.756952 255.81893,170.344856 C258.464485,170.932759 269.340696,171.814615 269.340696,171.814615 C269.340696,171.814615 277.865289,171.520663 277.277385,169.169059 C276.689481,166.817456 265.225378,162.114244 265.225378,162.114244 C265.225378,162.114244 263.755619,159.1747 261.697959,162.702119 Z" id="Path" fill="#2F2E41"></path>
            <path d="M238.475796,46.0034 L237.006041,45.1215481 L235.242337,46.5913037 C235.242337,46.5913037 240.533448,50.1187111 239.357659,53.3521889 C238.18187,56.5856667 233.184678,63.346537 233.184678,63.346537 C233.184678,63.346537 237.593937,68.3437111 237.593937,70.1074185 C237.593937,70.1074185 249.058044,65.9921 257.582637,70.1074185 C257.582637,70.1074185 257.582637,64.2283926 258.758441,63.0526037 C259.934244,61.8768148 260.522144,57.7614926 257.582637,54.234063 C255.511691,51.6384928 253.644438,48.8867524 251.997559,46.0034222 L249.058044,44.2397185 L247.544007,44.719963 C247.544007,44.719963 250.5278,48.0610741 247.588289,48.3550407 C244.648778,48.6490074 239.945556,47.7671074 238.475796,46.0034 Z" id="Path" fill="#FF6584"></path>
            <path d="M249.528726,8.52459259 C248.529879,9.63935422 247.162018,10.3558532 245.676874,10.5422296 C243.10897,10.9090741 245.126611,14.9443519 245.126611,14.9443519 C245.126611,14.9443519 244.392907,13.4769778 245.860315,12.1930259 C247.327722,10.9090741 249.528726,10.1753852 249.528726,8.52459259 Z" id="Path" fill="#2F2E41"></path>
            <circle id="Oval" fill="#2F2E41" cx="244.577848" cy="15.7881" r="3.16614444"></circle>
            <path d="M248.274215,18.9057259 C245.828219,17.6281259 241.620363,16.6232667 239.384685,16.6950963 L239.950241,14.5329185 C241.92947,15.8775963 246.115204,16.9012185 248.83977,16.7435481 L248.274215,18.9057259 Z" id="Path" fill="#54C41C"></path>
            <path d="M243.22087,19.0960296 C243.22087,19.0960296 239.36647,24.0516815 231.657674,25.1529407 C223.948878,26.2542 230.005789,38.3680185 230.005789,38.3680185 C230.005789,38.3680185 227.803278,33.9629926 232.208304,30.1085963 C236.61333,26.2542 243.22087,24.0516815 243.22087,19.0960296 Z" id="Path" fill="#2F2E41"></path>
            <path d="M243.514815,18.8020778 C243.514815,18.8020778 245.717326,26.5108741 249.021111,27.6121296 C252.324896,28.7133852 250.672996,40.2765741 245.166715,41.377837 C245.166715,41.377837 249.847056,35.0456148 247.093915,30.0899593 C244.340774,25.1343037 242.688889,21.2799037 243.514815,18.8020778 Z" id="Path" fill="#2F2E41"></path>
            <rect id="Rectangle" fill="#2F2E41" x="275.072748" y="5.87902963" width="20.2826481" height="2.35161111"></rect>
            <ellipse id="Oval" fill="#2F2E41" cx="295.3554" cy="7.05483333" rx="1.76370741" ry="7.05483333"></ellipse>
            <ellipse id="Oval" fill="#2F2E41" cx="275.072748" cy="7.05483333" rx="1.76370741" ry="7.05483333"></ellipse>
            <rect id="Rectangle" fill="#2F2E41" x="285.361048" y="164.030552" width="20.2826481" height="2.35161111"></rect>
            <ellipse id="Oval" fill="#2F2E41" cx="305.6437" cy="165.206356" rx="1.76370741" ry="7.05483333"></ellipse>
            <ellipse id="Oval" fill="#2F2E41" cx="285.361048" cy="165.206356" rx="1.76370741" ry="7.05483333"></ellipse>
            <path d="M71.8518519,162.124752 C71.8518519,153.46237 66.4886556,146.440115 59.8727852,146.440115 C55.7145481,146.440115 52.0522963,149.2153 49.9044,153.427152 C49.166806,153.178237 48.3936029,153.051083 47.6151407,153.050681 C45.6019391,153.084761 43.6799163,153.89608 42.2512296,155.314881 C40.3150556,150.063348 36.2094259,146.440115 31.4573296,146.440115 C27.0141519,146.440115 23.1388815,149.609926 21.0708667,154.314244 C19.8577878,153.500002 18.4319951,153.060577 16.9710185,153.050681 C11.8937481,153.050681 7.7774565,158.439837 7.7774565,165.087719 C7.76291638,167.330082 8.25819771,169.546463 9.22615926,171.5692 L69.4359815,171.5692 C71.050524,168.685365 71.8833326,165.429637 71.8518519,162.124752 L71.8518519,162.124752 Z" id="Path" fill="#54C41C" opacity="0.3"></path>
        </g>
    </g>
</svg>